%TF.GenerationSoftware,KiCad,Pcbnew,10.0.5*%
%TF.CreationDate,2026-08-15T13:36:32+05:30*%
%TF.ProjectId,MIO-Blind BOT,4d494f2d-426c-4696-9e64-20424f542e6b,rev?*%
%TF.SameCoordinates,Original*%
%TF.FileFunction,Plated,1,2,PTH,Drill*%
%TF.FilePolarity,Positive*%
%FSLAX46Y46*%
G04 Gerber Fmt 4.6, Leading zero omitted, Abs format (unit mm)*
G04 Created by KiCad (PCBNEW 10.0.5) date 2026-08-15 13:36:32*
%MOMM*%
%LPD*%
G01*
G04 APERTURE LIST*
%TA.AperFunction,ViaDrill*%
%ADD10C,0.400000*%
%TD*%
%TA.AperFunction,ComponentDrill*%
%ADD11C,0.800000*%
%TD*%
%TA.AperFunction,ComponentDrill*%
%ADD12C,0.900000*%
%TD*%
%TA.AperFunction,ComponentDrill*%
%ADD13C,1.000000*%
%TD*%
%TA.AperFunction,ComponentDrill*%
%ADD14C,1.100000*%
%TD*%
%TA.AperFunction,ComponentDrill*%
%ADD15C,1.300000*%
%TD*%
%TA.AperFunction,ComponentDrill*%
%ADD16C,1.524000*%
%TD*%
%TA.AperFunction,ComponentDrill*%
%ADD17C,2.200000*%
%TD*%
%TA.AperFunction,ComponentDrill*%
%ADD18C,3.200000*%
%TD*%
G04 APERTURE END LIST*
D10*
X85000000Y-106000000D03*
X112000000Y-118000000D03*
X120650000Y-76200000D03*
X126000000Y-128000000D03*
X131160000Y-144160000D03*
X132000000Y-142000000D03*
X134000000Y-147000000D03*
D11*
%TO.C,10kohmR*%
X123008000Y-137650000D03*
X123008000Y-150350000D03*
D12*
%TO.C,INFERENCE*%
X78500000Y-32800000D03*
X78500000Y-35340000D03*
X78500000Y-37880000D03*
X78500000Y-40420000D03*
X78500000Y-42960000D03*
X78500000Y-45500000D03*
X78500000Y-48040000D03*
X78500000Y-50580000D03*
X78500000Y-53120000D03*
X78500000Y-55660000D03*
X78500000Y-58200000D03*
X78500000Y-60740000D03*
X78500000Y-63280000D03*
X78500000Y-65820000D03*
X78500000Y-68360000D03*
X78500000Y-70900000D03*
X78500000Y-73440000D03*
X78500000Y-75980000D03*
X78500000Y-78520000D03*
X103900000Y-32800000D03*
X103900000Y-35340000D03*
X103900000Y-37880000D03*
X103900000Y-40420000D03*
X103900000Y-42960000D03*
X103900000Y-45500000D03*
X103900000Y-48040000D03*
X103900000Y-50580000D03*
X103900000Y-53120000D03*
X103900000Y-55660000D03*
X103900000Y-58200000D03*
X103900000Y-60740000D03*
X103900000Y-63280000D03*
X103900000Y-65820000D03*
X103900000Y-68360000D03*
X103900000Y-70900000D03*
X103900000Y-73440000D03*
X103900000Y-75980000D03*
X103900000Y-78520000D03*
%TO.C,CORE*%
X110072500Y-32745000D03*
X110072500Y-35285000D03*
X110072500Y-37825000D03*
X110072500Y-40365000D03*
X110072500Y-42905000D03*
X110072500Y-45445000D03*
X110072500Y-47985000D03*
X110072500Y-50525000D03*
X110072500Y-53065000D03*
X110072500Y-55605000D03*
X110072500Y-58145000D03*
X110072500Y-60685000D03*
X110072500Y-63225000D03*
X110072500Y-65765000D03*
X110072500Y-68305000D03*
X110072500Y-70845000D03*
X110072500Y-73385000D03*
X110072500Y-75925000D03*
X110072500Y-78465000D03*
X135472500Y-32745000D03*
X135472500Y-35285000D03*
X135472500Y-37825000D03*
X135472500Y-40365000D03*
X135472500Y-42905000D03*
X135472500Y-45445000D03*
X135472500Y-47985000D03*
X135472500Y-50525000D03*
X135472500Y-53065000D03*
X135472500Y-55605000D03*
X135472500Y-58145000D03*
X135472500Y-60685000D03*
X135472500Y-63225000D03*
X135472500Y-65765000D03*
X135472500Y-68305000D03*
X135472500Y-70845000D03*
X135472500Y-73385000D03*
X135472500Y-75925000D03*
X135472500Y-78465000D03*
D13*
%TO.C,MPU6050-IMU*%
X78420000Y-139600000D03*
%TO.C,BMS 2S 20A*%
X79500000Y-118000000D03*
X79500000Y-133000000D03*
%TO.C,MPU6050-IMU*%
X80960000Y-139600000D03*
X83500000Y-139600000D03*
X86040000Y-139600000D03*
X88580000Y-139600000D03*
X91120000Y-139600000D03*
X93660000Y-139600000D03*
X96200000Y-139600000D03*
%TO.C,SD-Card Adapter (SPI)*%
X103445000Y-139600000D03*
X105985000Y-139600000D03*
X108525000Y-139600000D03*
X111065000Y-139600000D03*
X113605000Y-139600000D03*
X116145000Y-139600000D03*
%TO.C,BMS 2S 20A*%
X117500000Y-123000000D03*
X117500000Y-128000000D03*
%TO.C,TFT-SPI (1.8)*%
X129000000Y-131460000D03*
X129000000Y-134000000D03*
X129000000Y-136540000D03*
X129000000Y-139080000D03*
X129000000Y-141620000D03*
X129000000Y-144160000D03*
X129000000Y-146700000D03*
X129000000Y-149240000D03*
D14*
%TO.C,CA-1235 (5V)*%
X130000000Y-99500000D03*
X130000000Y-124500000D03*
X145000000Y-99500000D03*
X145000000Y-124500000D03*
D15*
%TO.C,PowerS*%
X79000000Y-104500000D03*
X79000000Y-111000000D03*
D16*
%TO.C,U12*%
X84251500Y-93427500D03*
X84251500Y-110572500D03*
X123748500Y-93427500D03*
X123748500Y-110572500D03*
D17*
%TO.C,PS*%
X78754000Y-90500000D03*
%TO.C,PG*%
X78754000Y-98000000D03*
%TO.C,3VCC*%
X136000000Y-84000000D03*
%TO.C,3GND*%
X136000000Y-92000000D03*
%TO.C,MVCC*%
X144000000Y-36500000D03*
%TO.C,MGND*%
X144000000Y-43000000D03*
%TO.C,5VCC*%
X144000000Y-50800000D03*
%TO.C,5GND*%
X144000000Y-56800000D03*
%TO.C,UOR*%
X144000000Y-67000000D03*
%TO.C,UOT*%
X144000000Y-75000000D03*
%TO.C,GND*%
X144000000Y-83500000D03*
%TO.C,VCC*%
X144000000Y-91500000D03*
D18*
%TO.C,U12*%
X89014000Y-93999000D03*
X118986000Y-110001000D03*
M02*
