%TF.GenerationSoftware,KiCad,Pcbnew,10.0.5*%
%TF.CreationDate,2026-08-15T13:35:57+05:30*%
%TF.ProjectId,MIO-Blind BOT,4d494f2d-426c-4696-9e64-20424f542e6b,rev?*%
%TF.SameCoordinates,Original*%
%TF.FileFunction,Copper,L1,Top*%
%TF.FilePolarity,Positive*%
%FSLAX46Y46*%
G04 Gerber Fmt 4.6, Leading zero omitted, Abs format (unit mm)*
G04 Created by KiCad (PCBNEW 10.0.5) date 2026-08-15 13:35:57*
%MOMM*%
%LPD*%
G01*
G04 APERTURE LIST*
%TA.AperFunction,ComponentPad*%
%ADD10R,2.683000X2.683000*%
%TD*%
%TA.AperFunction,ComponentPad*%
%ADD11C,4.400000*%
%TD*%
%TA.AperFunction,ComponentPad*%
%ADD12C,1.408000*%
%TD*%
%TA.AperFunction,ComponentPad*%
%ADD13C,3.800000*%
%TD*%
%TA.AperFunction,ComponentPad*%
%ADD14C,1.600000*%
%TD*%
%TA.AperFunction,ComponentPad*%
%ADD15R,3.000000X2.000000*%
%TD*%
%TA.AperFunction,ComponentPad*%
%ADD16R,1.700000X1.700000*%
%TD*%
%TA.AperFunction,ComponentPad*%
%ADD17C,1.700000*%
%TD*%
%TA.AperFunction,ComponentPad*%
%ADD18R,2.250000X2.250000*%
%TD*%
%TA.AperFunction,ComponentPad*%
%ADD19C,2.250000*%
%TD*%
%TA.AperFunction,ComponentPad*%
%ADD20R,1.350000X1.350000*%
%TD*%
%TA.AperFunction,ViaPad*%
%ADD21C,0.800000*%
%TD*%
%TA.AperFunction,Conductor*%
%ADD22C,0.300000*%
%TD*%
%TA.AperFunction,Conductor*%
%ADD23C,0.800000*%
%TD*%
G04 APERTURE END LIST*
D10*
%TO.P,U12,1,IN+_1*%
%TO.N,/VCC_SYS*%
X123748500Y-110572500D03*
%TO.P,U12,2,IN-_2*%
%TO.N,/GND*%
X123748500Y-93427500D03*
%TO.P,U12,3,OUT-_3*%
X84251500Y-93427500D03*
%TO.P,U12,4,OUT+_4*%
%TO.N,/+3V3_PWR*%
X84251500Y-110572500D03*
D11*
%TO.P,U12,MH1*%
%TO.N,N/C*%
X89014000Y-93999000D03*
%TO.P,U12,MH2*%
X118986000Y-110001000D03*
%TD*%
D12*
%TO.P,CORE,VP,VP_VP*%
%TO.N,unconnected-(CORE1-PadVP)*%
X135472500Y-73385000D03*
%TO.P,CORE,VN,VN_VN*%
%TO.N,unconnected-(CORE1-PadVN)*%
X135472500Y-70845000D03*
%TO.P,CORE,VIN,VIN_VIN*%
%TO.N,unconnected-(CORE1-PadVIN)*%
X135472500Y-32745000D03*
%TO.P,CORE,TX,TX_TX*%
%TO.N,unconnected-(CORE1-PadTX)*%
X110072500Y-70845000D03*
%TO.P,CORE,SD3*%
%TO.N,N/C*%
X135472500Y-37825000D03*
%TO.P,CORE,SD2*%
X135472500Y-40365000D03*
%TO.P,CORE,SD1*%
X110072500Y-37825000D03*
%TO.P,CORE,SD0*%
X110072500Y-35285000D03*
%TO.P,CORE,RX,RX_RX*%
%TO.N,unconnected-(CORE1-PadRX)*%
X110072500Y-68305000D03*
%TO.P,CORE,GND,GND_GND*%
%TO.N,unconnected-(CORE1-PadGND)_1*%
X135472500Y-45445000D03*
%TO.N,unconnected-(CORE1-PadGND)*%
X110072500Y-78465000D03*
%TO.N,unconnected-(CORE1-PadGND)_2*%
X110072500Y-63225000D03*
%TO.P,CORE,EN,EN_EN*%
%TO.N,unconnected-(CORE1-PadEN)*%
X135472500Y-75925000D03*
%TO.P,CORE,D35,D35_D35*%
%TO.N,unconnected-(CORE1-PadD35)*%
X135472500Y-65765000D03*
%TO.P,CORE,D34,D34_D34*%
%TO.N,/+3V3_PWR*%
X135472500Y-68305000D03*
%TO.P,CORE,D33,D33_D33*%
%TO.N,Net-(CM1-Pad1)*%
X135472500Y-60685000D03*
%TO.P,CORE,D32,D32_D32*%
%TO.N,Net-(CM2-Pad1)*%
X135472500Y-63225000D03*
%TO.P,CORE,D27,D27_D27*%
%TO.N,/TFT_CS*%
X135472500Y-53065000D03*
%TO.P,CORE,D26,D26_D26*%
%TO.N,/TFT_DC*%
X135472500Y-55605000D03*
%TO.P,CORE,D25,D25_D25*%
%TO.N,/TFT_RST*%
X135472500Y-58145000D03*
%TO.P,CORE,D23,D23_D23*%
%TO.N,Net-(INFERENCE1-SDA{slash}D21)*%
X110072500Y-75925000D03*
%TO.P,CORE,D22,SCL/D22_D22*%
%TO.N,/I2C_SCL*%
X110072500Y-73385000D03*
%TO.P,CORE,D21,SDA/D21_D21*%
%TO.N,/SD_CS*%
X110072500Y-65765000D03*
%TO.P,CORE,D19,D19_D19*%
%TO.N,/I2S_SDA*%
X110072500Y-60685000D03*
%TO.P,CORE,D18,D18_D18*%
%TO.N,Net-(CORE1-PadD18)*%
X110072500Y-58145000D03*
%TO.P,CORE,D17,TX2/D17_D17*%
%TO.N,Net-(CORE1-TX2{slash}D17)*%
X110072500Y-53065000D03*
%TO.P,CORE,D16,RX2/D16_D16*%
%TO.N,Net-(CORE1-RX2{slash}D16)*%
X110072500Y-50525000D03*
%TO.P,CORE,D15,D15_D15*%
%TO.N,unconnected-(CORE1-PadD15)*%
X110072500Y-40365000D03*
%TO.P,CORE,D14,D14_D14*%
%TO.N,/SD_SCK*%
X135472500Y-50525000D03*
%TO.P,CORE,D13,D13_D13*%
%TO.N,/SD_MOSI*%
X135472500Y-42905000D03*
%TO.P,CORE,D12,D12_D12*%
%TO.N,unconnected-(CORE1-PadD12)*%
X135472500Y-47985000D03*
%TO.P,CORE,D5,D5_D5*%
%TO.N,Net-(CORE1-PadD5)*%
X110072500Y-55605000D03*
%TO.P,CORE,D4,D4_D4*%
%TO.N,Net-(CORE1-PadD4)*%
X110072500Y-47985000D03*
%TO.P,CORE,D2,D2_D2*%
%TO.N,unconnected-(CORE1-PadD2)*%
X110072500Y-42905000D03*
%TO.P,CORE,D0,D0_D0*%
%TO.N,unconnected-(CORE1-PadD0)*%
X110072500Y-45445000D03*
%TO.P,CORE,CMD*%
%TO.N,N/C*%
X135472500Y-35285000D03*
%TO.P,CORE,CLK*%
X110072500Y-32745000D03*
%TO.P,CORE,3V3,3V3_3V3*%
%TO.N,/+3V3_PWR*%
X135472500Y-78465000D03*
%TD*%
%TO.P,INFERENCE,3V3,3V3_3V3*%
%TO.N,/+3V3_PWR*%
X103900000Y-78520000D03*
%TO.P,INFERENCE,CLK*%
%TO.N,N/C*%
X78500000Y-32800000D03*
%TO.P,INFERENCE,CMD*%
X103900000Y-35340000D03*
%TO.P,INFERENCE,D0,D0_D0*%
%TO.N,unconnected-(INFERENCE1-PadD0)*%
X78500000Y-45500000D03*
%TO.P,INFERENCE,D2,D2_D2*%
%TO.N,unconnected-(INFERENCE1-PadD2)*%
X78500000Y-42960000D03*
%TO.P,INFERENCE,D4,D4_D4*%
%TO.N,Net-(CORE1-PadD4)*%
X78500000Y-48040000D03*
%TO.P,INFERENCE,D5,D5_D5*%
%TO.N,Net-(CORE1-PadD5)*%
X78500000Y-55660000D03*
%TO.P,INFERENCE,D12,D12_D12*%
%TO.N,unconnected-(INFERENCE1-PadD12)*%
X103900000Y-48040000D03*
%TO.P,INFERENCE,D13,D13_D13*%
%TO.N,unconnected-(INFERENCE1-PadD13)*%
X103900000Y-42960000D03*
%TO.P,INFERENCE,D14,D14_D14*%
%TO.N,unconnected-(INFERENCE1-PadD14)*%
X103900000Y-50580000D03*
%TO.P,INFERENCE,D15,D15_D15*%
%TO.N,unconnected-(INFERENCE1-PadD15)*%
X78500000Y-40420000D03*
%TO.P,INFERENCE,D16,RX2/D16_D16*%
%TO.N,unconnected-(INFERENCE1-RX2{slash}D16-PadD16)*%
X78500000Y-50580000D03*
%TO.P,INFERENCE,D17,TX2/D17_D17*%
%TO.N,Net-(CORE1-RX2{slash}D16)*%
X78500000Y-53120000D03*
%TO.P,INFERENCE,D18,D18_D18*%
%TO.N,unconnected-(INFERENCE1-PadD18)*%
X78500000Y-58200000D03*
%TO.P,INFERENCE,D19,D19_D19*%
%TO.N,Net-(CORE1-PadD18)*%
X78500000Y-60740000D03*
%TO.P,INFERENCE,D21,SDA/D21_D21*%
%TO.N,Net-(INFERENCE1-SDA{slash}D21)*%
X78500000Y-65820000D03*
%TO.P,INFERENCE,D22,SCL/D22_D22*%
%TO.N,unconnected-(INFERENCE1-SCL{slash}D22-PadD22)*%
X78500000Y-73440000D03*
%TO.P,INFERENCE,D23,D23_D23*%
%TO.N,unconnected-(INFERENCE1-PadD23)*%
X78500000Y-75980000D03*
%TO.P,INFERENCE,D25,D25_D25*%
%TO.N,unconnected-(INFERENCE1-PadD25)*%
X103900000Y-58200000D03*
%TO.P,INFERENCE,D26,D26_D26*%
%TO.N,unconnected-(INFERENCE1-PadD26)*%
X103900000Y-55660000D03*
%TO.P,INFERENCE,D27,D27_D27*%
%TO.N,unconnected-(INFERENCE1-PadD27)*%
X103900000Y-53120000D03*
%TO.P,INFERENCE,D32,D32_D32*%
%TO.N,unconnected-(INFERENCE1-PadD32)*%
X103900000Y-63280000D03*
%TO.P,INFERENCE,D33,D33_D33*%
%TO.N,unconnected-(INFERENCE1-PadD33)*%
X103900000Y-60740000D03*
%TO.P,INFERENCE,D34,D34_D34*%
%TO.N,unconnected-(INFERENCE1-PadD34)*%
X103900000Y-68360000D03*
%TO.P,INFERENCE,D35,D35_D35*%
%TO.N,unconnected-(INFERENCE1-PadD35)*%
X103900000Y-65820000D03*
%TO.P,INFERENCE,EN,EN_EN*%
%TO.N,unconnected-(INFERENCE1-PadEN)*%
X103900000Y-75980000D03*
%TO.P,INFERENCE,GND,GND_GND*%
%TO.N,unconnected-(INFERENCE1-PadGND)_2*%
X78500000Y-63280000D03*
%TO.N,unconnected-(INFERENCE1-PadGND)_1*%
X78500000Y-78520000D03*
%TO.N,unconnected-(INFERENCE1-PadGND)*%
X103900000Y-45500000D03*
%TO.P,INFERENCE,RX,RX_RX*%
%TO.N,unconnected-(INFERENCE1-PadRX)*%
X78500000Y-68360000D03*
%TO.P,INFERENCE,SD0*%
%TO.N,N/C*%
X78500000Y-35340000D03*
%TO.P,INFERENCE,SD1*%
X78500000Y-37880000D03*
%TO.P,INFERENCE,SD2*%
X103900000Y-40420000D03*
%TO.P,INFERENCE,SD3*%
X103900000Y-37880000D03*
%TO.P,INFERENCE,TX,TX_TX*%
%TO.N,unconnected-(INFERENCE1-PadTX)*%
X78500000Y-70900000D03*
%TO.P,INFERENCE,VIN,VIN_VIN*%
%TO.N,unconnected-(INFERENCE1-PadVIN)*%
X103900000Y-32800000D03*
%TO.P,INFERENCE,VN,VN_VN*%
%TO.N,unconnected-(INFERENCE1-PadVN)*%
X103900000Y-70900000D03*
%TO.P,INFERENCE,VP,VP_VP*%
%TO.N,unconnected-(INFERENCE1-PadVP)*%
X103900000Y-73440000D03*
%TD*%
D13*
%TO.P,5VCC,1,1_1*%
%TO.N,/+5V_PWR*%
X144000000Y-50800000D03*
%TD*%
%TO.P,UOT,1,1_1*%
%TO.N,Net-(CM1-Pad1)*%
X144000000Y-75000000D03*
%TD*%
%TO.P,5GND,1,1_1*%
%TO.N,Net-(U5-Out-)*%
X144000000Y-56800000D03*
%TD*%
%TO.P,UOR,1,1_1*%
%TO.N,Net-(CM2-Pad1)*%
X144000000Y-67000000D03*
%TD*%
%TO.P,MVCC,1,1_1*%
%TO.N,/VBAT-*%
X144000000Y-36500000D03*
%TD*%
D14*
%TO.P,10kohmR,1,1_1*%
%TO.N,/+3V3_PWR*%
X123008000Y-150350000D03*
%TO.P,10kohmR,2,2_2*%
%TO.N,/SD_MISO*%
X123008000Y-137650000D03*
%TD*%
D13*
%TO.P,PG,1,1_1*%
%TO.N,/GND*%
X78754000Y-98000000D03*
%TD*%
D15*
%TO.P,BMS 2S 20A,1,B1+_1*%
%TO.N,/VBAT-*%
X79500000Y-118000000D03*
%TO.P,BMS 2S 20A,2,P+_2*%
%TO.N,/VCC_SYS*%
X79500000Y-133000000D03*
%TO.P,BMS 2S 20A,3,P-_3*%
%TO.N,/PWR_SW_IN*%
X117500000Y-128000000D03*
%TO.P,BMS 2S 20A,4,B1-_4*%
%TO.N,/VBAT+*%
X117500000Y-123000000D03*
%TD*%
D16*
%TO.P,MPU6050-IMU,1,INT_1*%
%TO.N,unconnected-(P1-INT-Pad1)*%
X78420000Y-139600000D03*
D17*
%TO.P,MPU6050-IMU,2,AD0_2*%
%TO.N,/GND*%
X80960000Y-139600000D03*
%TO.P,MPU6050-IMU,3,XCL_3*%
%TO.N,unconnected-(P1-XCL-Pad3)*%
X83500000Y-139600000D03*
%TO.P,MPU6050-IMU,4,XDA_4*%
%TO.N,unconnected-(P1-XDA-Pad4)*%
X86040000Y-139600000D03*
%TO.P,MPU6050-IMU,5,SDA_5*%
%TO.N,/I2S_SDA*%
X88580000Y-139600000D03*
%TO.P,MPU6050-IMU,6,SCL_6*%
%TO.N,/I2C_SCL*%
X91120000Y-139600000D03*
%TO.P,MPU6050-IMU,7,GND_7*%
%TO.N,/GND*%
X93660000Y-139600000D03*
%TO.P,MPU6050-IMU,8,VCC-3.3V_8*%
%TO.N,/+3V3_PWR*%
X96200000Y-139600000D03*
%TD*%
D13*
%TO.P,PS,1,1_1*%
%TO.N,Net-(CORE1-TX2{slash}D17)*%
X78754000Y-90500000D03*
%TD*%
D18*
%TO.P,PowerS,1,1_1*%
%TO.N,/GND*%
X79000000Y-111000000D03*
D19*
%TO.P,PowerS,2,2_2*%
%TO.N,/PWR_SW_IN*%
X79000000Y-104500000D03*
%TD*%
D13*
%TO.P,MGND,1,1_1*%
%TO.N,/VBAT+*%
X144000000Y-43000000D03*
%TD*%
D16*
%TO.P,SD-Card Adapter (SPI),1,CS_1*%
%TO.N,/SD_CS*%
X103445000Y-139600000D03*
D17*
%TO.P,SD-Card Adapter (SPI),2,SCK_2*%
%TO.N,/SD_SCK*%
X105985000Y-139600000D03*
%TO.P,SD-Card Adapter (SPI),3,MOSI_3*%
%TO.N,/SD_MOSI*%
X108525000Y-139600000D03*
%TO.P,SD-Card Adapter (SPI),4,MISO_4*%
%TO.N,/SD_MISO*%
X111065000Y-139600000D03*
%TO.P,SD-Card Adapter (SPI),5,VCC_5*%
%TO.N,/+3V3_PWR*%
X113605000Y-139600000D03*
%TO.P,SD-Card Adapter (SPI),6,GND_6*%
%TO.N,/GND*%
X116145000Y-139600000D03*
%TD*%
D16*
%TO.P,TFT-SPI (1.8),1,VCC_1*%
%TO.N,/+3V3_PWR*%
X129000000Y-149240000D03*
D17*
%TO.P,TFT-SPI (1.8),2,GND_2*%
%TO.N,/GND*%
X129000000Y-146700000D03*
%TO.P,TFT-SPI (1.8),3,CS_3*%
%TO.N,/TFT_CS*%
X129000000Y-144160000D03*
%TO.P,TFT-SPI (1.8),4,RST_4*%
%TO.N,/TFT_RST*%
X129000000Y-141620000D03*
%TO.P,TFT-SPI (1.8),5,A0_5*%
%TO.N,/TFT_DC*%
X129000000Y-139080000D03*
%TO.P,TFT-SPI (1.8),6,SDA_6*%
%TO.N,/SD_MOSI*%
X129000000Y-136540000D03*
%TO.P,TFT-SPI (1.8),7,SCK_7*%
%TO.N,/SD_SCK*%
X129000000Y-134000000D03*
%TO.P,TFT-SPI (1.8),8,LED_8*%
%TO.N,/+3V3_PWR*%
X129000000Y-131460000D03*
%TD*%
D13*
%TO.P,GND,1,1_1*%
%TO.N,/GND*%
X144000000Y-83500000D03*
%TD*%
%TO.P,3GND,1,1_1*%
%TO.N,/GND*%
X136000000Y-92000000D03*
%TD*%
%TO.P,3VCC,1,1_1*%
%TO.N,/+3V3_PWR*%
X136000000Y-84000000D03*
%TD*%
D20*
%TO.P,CA-1235 (5V),1,Out-_1*%
%TO.N,Net-(U5-Out-)*%
X145000000Y-99500000D03*
%TO.P,CA-1235 (5V),2,Out+_2*%
%TO.N,/+5V_PWR*%
X130000000Y-99500000D03*
%TO.P,CA-1235 (5V),3,In+_3*%
%TO.N,/VCC_SYS*%
X145000000Y-124500000D03*
%TO.P,CA-1235 (5V),4,In-_4*%
%TO.N,/GND*%
X130000000Y-124500000D03*
%TD*%
D13*
%TO.P,VCC,1,1_1*%
%TO.N,/+3V3_PWR*%
X144000000Y-91500000D03*
%TD*%
D21*
%TO.N,/GND*%
X126000000Y-128000000D03*
%TO.N,/VBAT+*%
X120650000Y-76200000D03*
%TO.N,/SD_CS*%
X85000000Y-106000000D03*
%TO.N,/TFT_CS*%
X131160000Y-144160000D03*
X134000000Y-147000000D03*
%TO.N,/TFT_RST*%
X132000000Y-142000000D03*
%TO.N,/TFT_DC*%
X112000000Y-118000000D03*
%TD*%
%TO.N,/VCC_SYS*%
D22*
X123748500Y-130251500D02*
X120650000Y-133350000D01*
X120650000Y-133350000D02*
X120300000Y-133000000D01*
D23*
X131572500Y-110572500D02*
X123748500Y-110572500D01*
D22*
X123748500Y-110572500D02*
X123748500Y-130251500D01*
D23*
X145000000Y-124000000D02*
X131572500Y-110572500D01*
D22*
X120300000Y-133000000D02*
X79500000Y-133000000D01*
%TO.N,/GND*%
X126000000Y-128000000D02*
X130000000Y-124000000D01*
D23*
X77300000Y-135300000D02*
X80960000Y-138960000D01*
X79000000Y-111000000D02*
X77300000Y-112700000D01*
X82560000Y-138000000D02*
X92060000Y-138000000D01*
X78500000Y-98000000D02*
X76000000Y-100500000D01*
X134572500Y-93427500D02*
X136000000Y-92000000D01*
X76000000Y-108000000D02*
X79000000Y-111000000D01*
X123748500Y-93427500D02*
X134572500Y-93427500D01*
X83072500Y-93427500D02*
X78500000Y-98000000D01*
X80960000Y-139600000D02*
X82560000Y-138000000D01*
X77300000Y-112700000D02*
X77300000Y-135300000D01*
X80960000Y-138960000D02*
X80960000Y-139600000D01*
X92060000Y-138000000D02*
X93660000Y-139600000D01*
X84251500Y-93427500D02*
X83072500Y-93427500D01*
X76000000Y-100500000D02*
X76000000Y-108000000D01*
%TO.N,/+3V3_PWR*%
X138000000Y-82000000D02*
X138000000Y-70832500D01*
X127890000Y-150350000D02*
X129000000Y-149240000D01*
X138600000Y-114529800D02*
X138600000Y-86600000D01*
X134000000Y-136460000D02*
X129000000Y-131460000D01*
X138000000Y-70832500D02*
X135472500Y-68305000D01*
X146550000Y-125579800D02*
X146550000Y-122479800D01*
X138600000Y-86600000D02*
X136000000Y-84000000D01*
X129000000Y-131460000D02*
X140669800Y-131460000D01*
X136000000Y-84000000D02*
X138000000Y-82000000D01*
X136000000Y-84000000D02*
X143500000Y-91500000D01*
X143500000Y-91500000D02*
X144000000Y-91500000D01*
X129000000Y-149240000D02*
X134000000Y-144240000D01*
X140669800Y-131460000D02*
X146550000Y-125579800D01*
X122500000Y-150350000D02*
X127890000Y-150350000D01*
X113605000Y-139600000D02*
X122500000Y-148495000D01*
X146550000Y-122479800D02*
X138600000Y-114529800D01*
X122500000Y-148495000D02*
X122500000Y-150350000D01*
X134000000Y-144240000D02*
X134000000Y-136460000D01*
%TO.N,Net-(CM1-Pad1)*%
D22*
X135819000Y-66819000D02*
X144000000Y-75000000D01*
X135035918Y-66819000D02*
X135819000Y-66819000D01*
X135472500Y-60685000D02*
X134418500Y-61739000D01*
X134418500Y-61739000D02*
X134418500Y-66201582D01*
X134418500Y-66201582D02*
X135035918Y-66819000D01*
%TO.N,Net-(U5-Out-)*%
X147000000Y-58000000D02*
X144000000Y-55000000D01*
X145000000Y-100000000D02*
X148000000Y-97000000D01*
X148000000Y-58000000D02*
X147000000Y-58000000D01*
X148000000Y-97000000D02*
X148000000Y-58000000D01*
%TO.N,Net-(CM2-Pad1)*%
X135472500Y-63225000D02*
X140225000Y-63225000D01*
X140225000Y-63225000D02*
X144000000Y-67000000D01*
%TO.N,Net-(INFERENCE1-SDA{slash}D21)*%
X108641500Y-74494000D02*
X110072500Y-75925000D01*
X78500000Y-65820000D02*
X87174000Y-74494000D01*
X87174000Y-74494000D02*
X108641500Y-74494000D01*
%TO.N,/SD_MISO*%
X122500000Y-137650000D02*
X113015000Y-137650000D01*
X113015000Y-137650000D02*
X111065000Y-139600000D01*
%TO.N,/VBAT+*%
X114300000Y-82550000D02*
X114300000Y-119800000D01*
X114300000Y-119800000D02*
X117500000Y-123000000D01*
X120650000Y-76200000D02*
X114300000Y-82550000D01*
%TO.N,Net-(CORE1-TX2{slash}D17)*%
X110072500Y-53065000D02*
X108641500Y-51634000D01*
X76600001Y-53399999D02*
X76600001Y-88600001D01*
X76600001Y-88600001D02*
X78500000Y-90500000D01*
X108641500Y-51634000D02*
X78366000Y-51634000D01*
X78366000Y-51634000D02*
X76600001Y-53399999D01*
%TO.N,/SD_CS*%
X111126500Y-79873500D02*
X111126500Y-66819000D01*
X111126500Y-79873500D02*
X108450000Y-82550000D01*
X111126500Y-66819000D02*
X110072500Y-65765000D01*
X101600000Y-82550000D02*
X101600000Y-89400000D01*
X108450000Y-82550000D02*
X101600000Y-82550000D01*
X101600000Y-89400000D02*
X85000000Y-106000000D01*
%TO.N,/SD_SCK*%
X142981981Y-53868019D02*
X139982303Y-56867697D01*
X112467943Y-136500000D02*
X109865000Y-139102943D01*
X127000000Y-139700000D02*
X126111522Y-140588478D01*
X121367943Y-151600000D02*
X130460661Y-151600000D01*
X133150000Y-138150000D02*
X133150000Y-143887918D01*
X109865000Y-140097057D02*
X121367943Y-151600000D01*
X133150000Y-143887918D02*
X131637918Y-145400000D01*
X111585000Y-134000000D02*
X105985000Y-139600000D01*
X129000000Y-134000000D02*
X111585000Y-134000000D01*
X123490000Y-136190000D02*
X127000000Y-139700000D01*
X122976346Y-136500000D02*
X112467943Y-136500000D01*
X148500000Y-56318019D02*
X146050000Y-53868019D01*
X137697500Y-54582894D02*
X137697500Y-52750000D01*
X109865000Y-139102943D02*
X109865000Y-140097057D01*
X137697500Y-52750000D02*
X135472500Y-50525000D01*
X122976346Y-136500000D02*
X123286346Y-136190000D01*
X139982303Y-56867697D02*
X137697500Y-54582894D01*
X146050000Y-53868019D02*
X142981981Y-53868019D01*
X123286346Y-136190000D02*
X123490000Y-136190000D01*
X128461522Y-145400000D02*
X123650000Y-140588478D01*
X131637918Y-145400000D02*
X128461522Y-145400000D01*
X126111522Y-140588478D02*
X123650000Y-140588478D01*
X129000000Y-134000000D02*
X133150000Y-138150000D01*
X130460661Y-151600000D02*
X148500000Y-133560661D01*
X148500000Y-133560661D02*
X148500000Y-56318019D01*
%TO.N,/SD_MOSI*%
X129000000Y-136540000D02*
X128150000Y-135690000D01*
X149000000Y-133767767D02*
X149000000Y-49376598D01*
X121160837Y-152100000D02*
X130667768Y-152100000D01*
X144973402Y-45350000D02*
X137917500Y-45350000D01*
X109365000Y-138895837D02*
X109365000Y-140304164D01*
X112570837Y-135690000D02*
X109365000Y-138895837D01*
X137917500Y-45350000D02*
X135472500Y-42905000D01*
X130667768Y-152100000D02*
X149000000Y-133767767D01*
X112435000Y-135690000D02*
X108525000Y-139600000D01*
X128150000Y-135690000D02*
X112570837Y-135690000D01*
X128150000Y-135690000D02*
X112435000Y-135690000D01*
X149000000Y-49376598D02*
X144973402Y-45350000D01*
X109365000Y-140304164D02*
X121160837Y-152100000D01*
%TO.N,/TFT_CS*%
X147400000Y-133600000D02*
X134000000Y-147000000D01*
X135472500Y-53065000D02*
X146350000Y-63942500D01*
X147400000Y-107323402D02*
X147400000Y-133600000D01*
X146350000Y-63942500D02*
X146350000Y-92473402D01*
X131160000Y-144160000D02*
X129000000Y-144160000D01*
X139450000Y-99373402D02*
X147400000Y-107323402D01*
X146350000Y-92473402D02*
X139450000Y-99373402D01*
%TO.N,/TFT_RST*%
X132000000Y-142000000D02*
X131620000Y-141620000D01*
X131620000Y-141620000D02*
X129000000Y-141620000D01*
%TO.N,/TFT_DC*%
X112000000Y-79077500D02*
X112000000Y-118000000D01*
X135472500Y-55605000D02*
X112000000Y-79077500D01*
%TD*%
%TA.AperFunction,Conductor*%
%TO.N,/GND*%
G36*
X124400839Y-138030159D02*
G01*
X124433810Y-138053756D01*
X125992373Y-139612319D01*
X126025858Y-139673642D01*
X126020874Y-139743334D01*
X125992373Y-139787681D01*
X125878395Y-139901659D01*
X125817072Y-139935144D01*
X125790714Y-139937978D01*
X123585929Y-139937978D01*
X123476303Y-139959785D01*
X123476268Y-139959792D01*
X123464230Y-139962186D01*
X123460255Y-139962977D01*
X123341874Y-140012012D01*
X123235326Y-140083204D01*
X123144727Y-140173803D01*
X123144721Y-140173810D01*
X123100432Y-140240094D01*
X123100433Y-140240095D01*
X123073534Y-140280352D01*
X123024499Y-140398733D01*
X123024497Y-140398739D01*
X122999500Y-140524406D01*
X122999500Y-140524409D01*
X122999500Y-140652547D01*
X122999500Y-140652549D01*
X122999499Y-140652549D01*
X123018399Y-140747557D01*
X123018399Y-140747558D01*
X123024497Y-140778215D01*
X123024498Y-140778220D01*
X123059342Y-140862339D01*
X123073535Y-140896605D01*
X123138945Y-140994499D01*
X123144726Y-141003151D01*
X123144727Y-141003152D01*
X127891953Y-145750377D01*
X127925438Y-145811700D01*
X127920454Y-145881392D01*
X127904591Y-145910942D01*
X127845377Y-145992445D01*
X127845376Y-145992447D01*
X127748904Y-146181782D01*
X127683242Y-146383869D01*
X127683242Y-146383872D01*
X127650000Y-146593753D01*
X127650000Y-146806246D01*
X127683242Y-147016127D01*
X127683242Y-147016130D01*
X127748904Y-147218217D01*
X127845375Y-147407550D01*
X127884728Y-147461716D01*
X128517036Y-146829407D01*
X128534075Y-146892993D01*
X128599901Y-147007007D01*
X128692993Y-147100099D01*
X128807007Y-147165925D01*
X128870589Y-147182962D01*
X128200370Y-147853181D01*
X128139047Y-147886666D01*
X128112698Y-147889500D01*
X128102134Y-147889500D01*
X128102123Y-147889501D01*
X128042516Y-147895908D01*
X127907671Y-147946202D01*
X127907664Y-147946206D01*
X127792455Y-148032452D01*
X127792452Y-148032455D01*
X127706206Y-148147664D01*
X127706202Y-148147671D01*
X127655908Y-148282517D01*
X127649501Y-148342116D01*
X127649500Y-148342135D01*
X127649500Y-149265636D01*
X127629815Y-149332675D01*
X127613182Y-149353317D01*
X127553319Y-149413181D01*
X127491996Y-149446666D01*
X127465637Y-149449500D01*
X123998047Y-149449500D01*
X123931008Y-149429815D01*
X123910366Y-149413181D01*
X123855213Y-149358028D01*
X123689613Y-149237715D01*
X123689612Y-149237714D01*
X123689610Y-149237713D01*
X123542978Y-149163000D01*
X123507222Y-149144781D01*
X123486178Y-149137943D01*
X123428504Y-149098503D01*
X123401308Y-149034144D01*
X123400500Y-149020013D01*
X123400500Y-148406310D01*
X123400500Y-148406309D01*
X123394094Y-148374105D01*
X123387733Y-148342127D01*
X123365896Y-148232341D01*
X123365895Y-148232334D01*
X123300339Y-148074071D01*
X123298695Y-148069474D01*
X123199465Y-147920966D01*
X123165165Y-147886666D01*
X123074035Y-147795536D01*
X119781157Y-144502658D01*
X116403296Y-141124796D01*
X116369811Y-141063473D01*
X116374795Y-140993781D01*
X116416667Y-140937848D01*
X116456741Y-140919028D01*
X116456493Y-140918264D01*
X116663217Y-140851095D01*
X116852554Y-140754622D01*
X116906716Y-140715270D01*
X116906717Y-140715270D01*
X116274408Y-140082962D01*
X116337993Y-140065925D01*
X116452007Y-140000099D01*
X116545099Y-139907007D01*
X116610925Y-139792993D01*
X116627962Y-139729408D01*
X117260270Y-140361717D01*
X117260270Y-140361716D01*
X117299622Y-140307554D01*
X117396095Y-140118217D01*
X117461757Y-139916130D01*
X117461757Y-139916127D01*
X117495000Y-139706246D01*
X117495000Y-139493753D01*
X117461757Y-139283872D01*
X117461757Y-139283869D01*
X117396095Y-139081782D01*
X117299624Y-138892449D01*
X117260270Y-138838282D01*
X117260269Y-138838282D01*
X116627962Y-139470590D01*
X116610925Y-139407007D01*
X116545099Y-139292993D01*
X116452007Y-139199901D01*
X116337993Y-139134075D01*
X116274409Y-139117037D01*
X116906716Y-138484728D01*
X116902742Y-138434230D01*
X116917106Y-138365852D01*
X116966157Y-138316095D01*
X117026360Y-138300500D01*
X121809929Y-138300500D01*
X121876968Y-138320185D01*
X121910245Y-138351613D01*
X122006958Y-138484727D01*
X122016034Y-138497219D01*
X122160786Y-138641971D01*
X122294387Y-138739036D01*
X122326390Y-138762287D01*
X122442607Y-138821503D01*
X122508776Y-138855218D01*
X122508778Y-138855218D01*
X122508781Y-138855220D01*
X122613137Y-138889127D01*
X122703465Y-138918477D01*
X122804557Y-138934488D01*
X122905648Y-138950500D01*
X122905649Y-138950500D01*
X123110351Y-138950500D01*
X123110352Y-138950500D01*
X123312534Y-138918477D01*
X123507219Y-138855220D01*
X123689610Y-138762287D01*
X123854461Y-138642517D01*
X123855213Y-138641971D01*
X123855215Y-138641968D01*
X123855219Y-138641966D01*
X123999966Y-138497219D01*
X123999968Y-138497215D01*
X123999971Y-138497213D01*
X124076081Y-138392455D01*
X124120287Y-138331610D01*
X124213220Y-138149219D01*
X124228198Y-138103118D01*
X124267635Y-138045444D01*
X124331993Y-138018245D01*
X124400839Y-138030159D01*
G37*
%TD.AperFunction*%
%TA.AperFunction,Conductor*%
G36*
X115330678Y-138320185D02*
G01*
X115376433Y-138372989D01*
X115387257Y-138434230D01*
X115383282Y-138484728D01*
X116015591Y-139117037D01*
X115952007Y-139134075D01*
X115837993Y-139199901D01*
X115744901Y-139292993D01*
X115679075Y-139407007D01*
X115662037Y-139470591D01*
X115029728Y-138838282D01*
X115029727Y-138838282D01*
X114990380Y-138892440D01*
X114990376Y-138892446D01*
X114985760Y-138901505D01*
X114937781Y-138952297D01*
X114869959Y-138969087D01*
X114803826Y-138946543D01*
X114764794Y-138901493D01*
X114760051Y-138892184D01*
X114760049Y-138892181D01*
X114760048Y-138892179D01*
X114635109Y-138720213D01*
X114484792Y-138569896D01*
X114422748Y-138524819D01*
X114380082Y-138469489D01*
X114374103Y-138399876D01*
X114406708Y-138338080D01*
X114467547Y-138303723D01*
X114495633Y-138300500D01*
X115263639Y-138300500D01*
X115330678Y-138320185D01*
G37*
%TD.AperFunction*%
%TA.AperFunction,Conductor*%
G36*
X131215177Y-111492685D02*
G01*
X131235819Y-111509319D01*
X143788181Y-124061680D01*
X143821666Y-124123003D01*
X143824500Y-124149361D01*
X143824500Y-125222870D01*
X143824501Y-125222876D01*
X143830908Y-125282483D01*
X143881202Y-125417328D01*
X143881206Y-125417335D01*
X143967452Y-125532544D01*
X143967455Y-125532547D01*
X144082664Y-125618793D01*
X144082671Y-125618797D01*
X144217517Y-125669091D01*
X144217516Y-125669091D01*
X144224444Y-125669835D01*
X144277127Y-125675500D01*
X144881439Y-125675499D01*
X144948477Y-125695183D01*
X144994232Y-125747987D01*
X145004176Y-125817146D01*
X144975151Y-125880702D01*
X144969119Y-125887180D01*
X140333119Y-130523181D01*
X140271796Y-130556666D01*
X140245438Y-130559500D01*
X130060758Y-130559500D01*
X129993719Y-130539815D01*
X129973077Y-130523181D01*
X129879786Y-130429890D01*
X129707820Y-130304951D01*
X129518414Y-130208444D01*
X129518413Y-130208443D01*
X129518412Y-130208443D01*
X129316243Y-130142754D01*
X129316241Y-130142753D01*
X129316240Y-130142753D01*
X129154957Y-130117208D01*
X129106287Y-130109500D01*
X128893713Y-130109500D01*
X128845042Y-130117208D01*
X128683760Y-130142753D01*
X128481585Y-130208444D01*
X128292179Y-130304951D01*
X128120213Y-130429890D01*
X127969890Y-130580213D01*
X127844951Y-130752179D01*
X127748444Y-130941585D01*
X127682753Y-131143760D01*
X127649500Y-131353713D01*
X127649500Y-131566287D01*
X127682754Y-131776243D01*
X127739902Y-131952127D01*
X127748444Y-131978414D01*
X127844951Y-132167820D01*
X127969890Y-132339786D01*
X128120213Y-132490109D01*
X128292182Y-132615050D01*
X128300946Y-132619516D01*
X128351742Y-132667491D01*
X128368536Y-132735312D01*
X128345998Y-132801447D01*
X128300946Y-132840484D01*
X128292182Y-132844949D01*
X128120213Y-132969890D01*
X127969890Y-133120213D01*
X127842085Y-133296125D01*
X127840740Y-133295148D01*
X127794295Y-133337166D01*
X127740382Y-133349500D01*
X121869808Y-133349500D01*
X121802769Y-133329815D01*
X121757014Y-133277011D01*
X121747070Y-133207853D01*
X121776095Y-133144297D01*
X121782127Y-133137819D01*
X124253773Y-130666173D01*
X124253777Y-130666169D01*
X124324965Y-130559627D01*
X124374001Y-130441243D01*
X124399000Y-130315569D01*
X124399000Y-130187431D01*
X124399000Y-123777155D01*
X128825000Y-123777155D01*
X128825000Y-124250000D01*
X129509252Y-124250000D01*
X129487482Y-124287708D01*
X129450000Y-124427591D01*
X129450000Y-124572409D01*
X129487482Y-124712292D01*
X129509252Y-124750000D01*
X128825000Y-124750000D01*
X128825000Y-125222844D01*
X128831401Y-125282372D01*
X128831403Y-125282379D01*
X128881645Y-125417086D01*
X128881649Y-125417093D01*
X128967809Y-125532187D01*
X128967812Y-125532190D01*
X129082906Y-125618350D01*
X129082913Y-125618354D01*
X129217620Y-125668596D01*
X129217627Y-125668598D01*
X129277155Y-125674999D01*
X129277172Y-125675000D01*
X129750000Y-125675000D01*
X129750000Y-124990747D01*
X129787708Y-125012518D01*
X129927591Y-125050000D01*
X130072409Y-125050000D01*
X130212292Y-125012518D01*
X130250000Y-124990747D01*
X130250000Y-125675000D01*
X130722828Y-125675000D01*
X130722844Y-125674999D01*
X130782372Y-125668598D01*
X130782379Y-125668596D01*
X130917086Y-125618354D01*
X130917093Y-125618350D01*
X131032187Y-125532190D01*
X131032190Y-125532187D01*
X131118350Y-125417093D01*
X131118354Y-125417086D01*
X131168596Y-125282379D01*
X131168598Y-125282372D01*
X131174999Y-125222844D01*
X131175000Y-125222827D01*
X131175000Y-124750000D01*
X130490748Y-124750000D01*
X130512518Y-124712292D01*
X130550000Y-124572409D01*
X130550000Y-124427591D01*
X130512518Y-124287708D01*
X130490748Y-124250000D01*
X131175000Y-124250000D01*
X131175000Y-123777172D01*
X131174999Y-123777155D01*
X131168598Y-123717627D01*
X131168596Y-123717620D01*
X131118354Y-123582913D01*
X131118350Y-123582906D01*
X131032190Y-123467812D01*
X131032187Y-123467809D01*
X130917093Y-123381649D01*
X130917086Y-123381645D01*
X130782379Y-123331403D01*
X130782372Y-123331401D01*
X130722844Y-123325000D01*
X130250000Y-123325000D01*
X130250000Y-124009252D01*
X130212292Y-123987482D01*
X130072409Y-123950000D01*
X129927591Y-123950000D01*
X129787708Y-123987482D01*
X129750000Y-124009252D01*
X129750000Y-123325000D01*
X129277155Y-123325000D01*
X129217627Y-123331401D01*
X129217620Y-123331403D01*
X129082913Y-123381645D01*
X129082906Y-123381649D01*
X128967812Y-123467809D01*
X128967809Y-123467812D01*
X128881649Y-123582906D01*
X128881645Y-123582913D01*
X128831403Y-123717620D01*
X128831401Y-123717627D01*
X128825000Y-123777155D01*
X124399000Y-123777155D01*
X124399000Y-112538499D01*
X124418685Y-112471460D01*
X124471489Y-112425705D01*
X124523000Y-112414499D01*
X125137871Y-112414499D01*
X125137872Y-112414499D01*
X125197483Y-112408091D01*
X125332331Y-112357796D01*
X125447546Y-112271546D01*
X125533796Y-112156331D01*
X125584091Y-112021483D01*
X125590500Y-111961873D01*
X125590500Y-111597000D01*
X125610185Y-111529961D01*
X125662989Y-111484206D01*
X125714500Y-111473000D01*
X131148138Y-111473000D01*
X131215177Y-111492685D01*
G37*
%TD.AperFunction*%
%TA.AperFunction,Conductor*%
G36*
X139105703Y-71026094D02*
G01*
X139112181Y-71032126D01*
X141840439Y-73760384D01*
X141873924Y-73821707D01*
X141868940Y-73891399D01*
X141864478Y-73901866D01*
X141778737Y-74079909D01*
X141778734Y-74079917D01*
X141689687Y-74334397D01*
X141689684Y-74334405D01*
X141629688Y-74597268D01*
X141629686Y-74597280D01*
X141599500Y-74865186D01*
X141599500Y-75134813D01*
X141629686Y-75402719D01*
X141629688Y-75402731D01*
X141689684Y-75665594D01*
X141689687Y-75665602D01*
X141778734Y-75920082D01*
X141895714Y-76162994D01*
X141895716Y-76162997D01*
X142039162Y-76391289D01*
X142207266Y-76602085D01*
X142397915Y-76792734D01*
X142608711Y-76960838D01*
X142837003Y-77104284D01*
X143079921Y-77221267D01*
X143229175Y-77273493D01*
X143334397Y-77310312D01*
X143334405Y-77310315D01*
X143334408Y-77310315D01*
X143334409Y-77310316D01*
X143597268Y-77370312D01*
X143865187Y-77400499D01*
X143865188Y-77400500D01*
X143865191Y-77400500D01*
X144134812Y-77400500D01*
X144134812Y-77400499D01*
X144402732Y-77370312D01*
X144665591Y-77310316D01*
X144920079Y-77221267D01*
X145162997Y-77104284D01*
X145391289Y-76960838D01*
X145498189Y-76875588D01*
X145562874Y-76849181D01*
X145631569Y-76861936D01*
X145682463Y-76909807D01*
X145699500Y-76972536D01*
X145699500Y-89527463D01*
X145679815Y-89594502D01*
X145627011Y-89640257D01*
X145557853Y-89650201D01*
X145498188Y-89624410D01*
X145391293Y-89539164D01*
X145391291Y-89539163D01*
X145162994Y-89395714D01*
X144920082Y-89278734D01*
X144665602Y-89189687D01*
X144665594Y-89189684D01*
X144468446Y-89144687D01*
X144402732Y-89129688D01*
X144402728Y-89129687D01*
X144402719Y-89129686D01*
X144134813Y-89099500D01*
X144134809Y-89099500D01*
X143865191Y-89099500D01*
X143865186Y-89099500D01*
X143597280Y-89129686D01*
X143597268Y-89129688D01*
X143334405Y-89189684D01*
X143334397Y-89189687D01*
X143079917Y-89278734D01*
X142837001Y-89395716D01*
X142836999Y-89395717D01*
X142817686Y-89407852D01*
X142750448Y-89426849D01*
X142683614Y-89406479D01*
X142664037Y-89390537D01*
X138269183Y-84995683D01*
X138235698Y-84934360D01*
X138239822Y-84867049D01*
X138310316Y-84665591D01*
X138370312Y-84402732D01*
X138400500Y-84134809D01*
X138400500Y-83865191D01*
X138370312Y-83597268D01*
X138310316Y-83334409D01*
X138267380Y-83211706D01*
X138239823Y-83132951D01*
X138236261Y-83063172D01*
X138269181Y-83004317D01*
X138699464Y-82574036D01*
X138738936Y-82514959D01*
X138798013Y-82426547D01*
X138831953Y-82344606D01*
X138865895Y-82262666D01*
X138900500Y-82088692D01*
X138900500Y-81911308D01*
X138900500Y-71119807D01*
X138920185Y-71052768D01*
X138972989Y-71007013D01*
X139042147Y-70997069D01*
X139105703Y-71026094D01*
G37*
%TD.AperFunction*%
%TA.AperFunction,Conductor*%
G36*
X150192539Y-29480185D02*
G01*
X150238294Y-29532989D01*
X150249500Y-29584500D01*
X150249500Y-153807300D01*
X150229815Y-153874339D01*
X150177011Y-153920094D01*
X150125500Y-153931300D01*
X75174500Y-153931300D01*
X75107461Y-153911615D01*
X75061706Y-153858811D01*
X75050500Y-153807300D01*
X75050500Y-138702135D01*
X77069500Y-138702135D01*
X77069500Y-140497870D01*
X77069501Y-140497876D01*
X77075908Y-140557483D01*
X77126202Y-140692328D01*
X77126206Y-140692335D01*
X77212452Y-140807544D01*
X77212455Y-140807547D01*
X77327664Y-140893793D01*
X77327671Y-140893797D01*
X77462517Y-140944091D01*
X77462516Y-140944091D01*
X77469444Y-140944835D01*
X77522127Y-140950500D01*
X79317872Y-140950499D01*
X79377483Y-140944091D01*
X79512331Y-140893796D01*
X79627546Y-140807546D01*
X79713796Y-140692331D01*
X79764091Y-140557483D01*
X79770500Y-140497873D01*
X79770499Y-140473979D01*
X79773330Y-140460963D01*
X79783940Y-140441525D01*
X79790179Y-140420275D01*
X79806803Y-140399643D01*
X79806808Y-140399636D01*
X79806811Y-140399634D01*
X79806818Y-140399626D01*
X80477037Y-139729408D01*
X80494075Y-139792993D01*
X80559901Y-139907007D01*
X80652993Y-140000099D01*
X80767007Y-140065925D01*
X80830590Y-140082962D01*
X80198282Y-140715269D01*
X80198282Y-140715270D01*
X80252449Y-140754624D01*
X80441782Y-140851095D01*
X80643870Y-140916757D01*
X80853754Y-140950000D01*
X81066246Y-140950000D01*
X81276127Y-140916757D01*
X81276130Y-140916757D01*
X81478217Y-140851095D01*
X81667554Y-140754622D01*
X81721716Y-140715270D01*
X81721717Y-140715270D01*
X81089408Y-140082962D01*
X81152993Y-140065925D01*
X81267007Y-140000099D01*
X81360099Y-139907007D01*
X81425925Y-139792993D01*
X81442962Y-139729408D01*
X82075270Y-140361717D01*
X82075270Y-140361716D01*
X82114622Y-140307555D01*
X82119232Y-140298507D01*
X82167205Y-140247709D01*
X82235025Y-140230912D01*
X82301161Y-140253447D01*
X82340204Y-140298504D01*
X82344949Y-140307817D01*
X82469890Y-140479786D01*
X82620213Y-140630109D01*
X82792179Y-140755048D01*
X82792181Y-140755049D01*
X82792184Y-140755051D01*
X82981588Y-140851557D01*
X83183757Y-140917246D01*
X83393713Y-140950500D01*
X83393714Y-140950500D01*
X83606286Y-140950500D01*
X83606287Y-140950500D01*
X83816243Y-140917246D01*
X84018412Y-140851557D01*
X84207816Y-140755051D01*
X84294138Y-140692335D01*
X84379786Y-140630109D01*
X84379788Y-140630106D01*
X84379792Y-140630104D01*
X84530104Y-140479792D01*
X84530106Y-140479788D01*
X84530109Y-140479786D01*
X84655048Y-140307820D01*
X84655047Y-140307820D01*
X84655051Y-140307816D01*
X84659514Y-140299054D01*
X84707488Y-140248259D01*
X84775308Y-140231463D01*
X84841444Y-140253999D01*
X84880486Y-140299056D01*
X84884951Y-140307820D01*
X85009890Y-140479786D01*
X85160213Y-140630109D01*
X85332179Y-140755048D01*
X85332181Y-140755049D01*
X85332184Y-140755051D01*
X85521588Y-140851557D01*
X85723757Y-140917246D01*
X85933713Y-140950500D01*
X85933714Y-140950500D01*
X86146286Y-140950500D01*
X86146287Y-140950500D01*
X86356243Y-140917246D01*
X86558412Y-140851557D01*
X86747816Y-140755051D01*
X86834138Y-140692335D01*
X86919786Y-140630109D01*
X86919788Y-140630106D01*
X86919792Y-140630104D01*
X87070104Y-140479792D01*
X87070106Y-140479788D01*
X87070109Y-140479786D01*
X87195048Y-140307820D01*
X87195047Y-140307820D01*
X87195051Y-140307816D01*
X87199514Y-140299054D01*
X87247488Y-140248259D01*
X87315308Y-140231463D01*
X87381444Y-140253999D01*
X87420486Y-140299056D01*
X87424951Y-140307820D01*
X87549890Y-140479786D01*
X87700213Y-140630109D01*
X87872179Y-140755048D01*
X87872181Y-140755049D01*
X87872184Y-140755051D01*
X88061588Y-140851557D01*
X88263757Y-140917246D01*
X88473713Y-140950500D01*
X88473714Y-140950500D01*
X88686286Y-140950500D01*
X88686287Y-140950500D01*
X88896243Y-140917246D01*
X89098412Y-140851557D01*
X89287816Y-140755051D01*
X89374138Y-140692335D01*
X89459786Y-140630109D01*
X89459788Y-140630106D01*
X89459792Y-140630104D01*
X89610104Y-140479792D01*
X89610106Y-140479788D01*
X89610109Y-140479786D01*
X89735048Y-140307820D01*
X89735047Y-140307820D01*
X89735051Y-140307816D01*
X89739514Y-140299054D01*
X89787488Y-140248259D01*
X89855308Y-140231463D01*
X89921444Y-140253999D01*
X89960486Y-140299056D01*
X89964951Y-140307820D01*
X90089890Y-140479786D01*
X90240213Y-140630109D01*
X90412179Y-140755048D01*
X90412181Y-140755049D01*
X90412184Y-140755051D01*
X90601588Y-140851557D01*
X90803757Y-140917246D01*
X91013713Y-140950500D01*
X91013714Y-140950500D01*
X91226286Y-140950500D01*
X91226287Y-140950500D01*
X91436243Y-140917246D01*
X91638412Y-140851557D01*
X91827816Y-140755051D01*
X91914138Y-140692335D01*
X91999786Y-140630109D01*
X91999788Y-140630106D01*
X91999792Y-140630104D01*
X92150104Y-140479792D01*
X92150106Y-140479788D01*
X92150109Y-140479786D01*
X92235890Y-140361717D01*
X92275051Y-140307816D01*
X92279793Y-140298508D01*
X92327763Y-140247711D01*
X92395583Y-140230911D01*
X92461719Y-140253445D01*
X92500763Y-140298500D01*
X92505373Y-140307547D01*
X92544728Y-140361716D01*
X93177037Y-139729408D01*
X93194075Y-139792993D01*
X93259901Y-139907007D01*
X93352993Y-140000099D01*
X93467007Y-140065925D01*
X93530590Y-140082962D01*
X92898282Y-140715269D01*
X92898282Y-140715270D01*
X92952449Y-140754624D01*
X93141782Y-140851095D01*
X93343870Y-140916757D01*
X93553754Y-140950000D01*
X93766246Y-140950000D01*
X93976127Y-140916757D01*
X93976130Y-140916757D01*
X94178217Y-140851095D01*
X94367554Y-140754622D01*
X94421716Y-140715270D01*
X94421717Y-140715270D01*
X93789408Y-140082962D01*
X93852993Y-140065925D01*
X93967007Y-140000099D01*
X94060099Y-139907007D01*
X94125925Y-139792993D01*
X94142962Y-139729408D01*
X94775270Y-140361717D01*
X94775270Y-140361716D01*
X94814622Y-140307555D01*
X94819232Y-140298507D01*
X94867205Y-140247709D01*
X94935025Y-140230912D01*
X95001161Y-140253447D01*
X95040204Y-140298504D01*
X95044949Y-140307817D01*
X95169890Y-140479786D01*
X95320213Y-140630109D01*
X95492179Y-140755048D01*
X95492181Y-140755049D01*
X95492184Y-140755051D01*
X95681588Y-140851557D01*
X95883757Y-140917246D01*
X96093713Y-140950500D01*
X96093714Y-140950500D01*
X96306286Y-140950500D01*
X96306287Y-140950500D01*
X96516243Y-140917246D01*
X96718412Y-140851557D01*
X96907816Y-140755051D01*
X96994138Y-140692335D01*
X97079786Y-140630109D01*
X97079788Y-140630106D01*
X97079792Y-140630104D01*
X97230104Y-140479792D01*
X97230106Y-140479788D01*
X97230109Y-140479786D01*
X97355048Y-140307820D01*
X97355047Y-140307820D01*
X97355051Y-140307816D01*
X97451557Y-140118412D01*
X97517246Y-139916243D01*
X97550500Y-139706287D01*
X97550500Y-139493713D01*
X97517246Y-139283757D01*
X97451557Y-139081588D01*
X97355051Y-138892184D01*
X97355049Y-138892181D01*
X97355048Y-138892179D01*
X97230109Y-138720213D01*
X97079786Y-138569890D01*
X96907820Y-138444951D01*
X96718414Y-138348444D01*
X96718413Y-138348443D01*
X96718412Y-138348443D01*
X96516243Y-138282754D01*
X96516241Y-138282753D01*
X96516240Y-138282753D01*
X96354957Y-138257208D01*
X96306287Y-138249500D01*
X96093713Y-138249500D01*
X96045042Y-138257208D01*
X95883760Y-138282753D01*
X95681585Y-138348444D01*
X95492179Y-138444951D01*
X95320213Y-138569890D01*
X95169890Y-138720213D01*
X95044949Y-138892182D01*
X95040202Y-138901499D01*
X94992227Y-138952293D01*
X94924405Y-138969087D01*
X94858271Y-138946548D01*
X94819234Y-138901495D01*
X94814626Y-138892452D01*
X94775270Y-138838282D01*
X94775269Y-138838282D01*
X94142962Y-139470590D01*
X94125925Y-139407007D01*
X94060099Y-139292993D01*
X93967007Y-139199901D01*
X93852993Y-139134075D01*
X93789409Y-139117037D01*
X94421716Y-138484728D01*
X94367550Y-138445375D01*
X94178217Y-138348904D01*
X93976129Y-138283242D01*
X93766246Y-138250000D01*
X93553754Y-138250000D01*
X93343872Y-138283242D01*
X93343869Y-138283242D01*
X93141782Y-138348904D01*
X92952439Y-138445380D01*
X92898282Y-138484727D01*
X92898282Y-138484728D01*
X93530591Y-139117037D01*
X93467007Y-139134075D01*
X93352993Y-139199901D01*
X93259901Y-139292993D01*
X93194075Y-139407007D01*
X93177037Y-139470591D01*
X92544728Y-138838282D01*
X92544727Y-138838282D01*
X92505380Y-138892440D01*
X92505376Y-138892446D01*
X92500760Y-138901505D01*
X92452781Y-138952297D01*
X92384959Y-138969087D01*
X92318826Y-138946543D01*
X92279794Y-138901493D01*
X92275051Y-138892184D01*
X92275049Y-138892181D01*
X92275048Y-138892179D01*
X92150109Y-138720213D01*
X91999786Y-138569890D01*
X91827820Y-138444951D01*
X91638414Y-138348444D01*
X91638413Y-138348443D01*
X91638412Y-138348443D01*
X91436243Y-138282754D01*
X91436241Y-138282753D01*
X91436240Y-138282753D01*
X91274957Y-138257208D01*
X91226287Y-138249500D01*
X91013713Y-138249500D01*
X90965042Y-138257208D01*
X90803760Y-138282753D01*
X90601585Y-138348444D01*
X90412179Y-138444951D01*
X90240213Y-138569890D01*
X90089890Y-138720213D01*
X89964949Y-138892182D01*
X89960484Y-138900946D01*
X89912509Y-138951742D01*
X89844688Y-138968536D01*
X89778553Y-138945998D01*
X89739516Y-138900946D01*
X89735050Y-138892182D01*
X89610109Y-138720213D01*
X89459786Y-138569890D01*
X89287820Y-138444951D01*
X89098414Y-138348444D01*
X89098413Y-138348443D01*
X89098412Y-138348443D01*
X88896243Y-138282754D01*
X88896241Y-138282753D01*
X88896240Y-138282753D01*
X88734957Y-138257208D01*
X88686287Y-138249500D01*
X88473713Y-138249500D01*
X88425042Y-138257208D01*
X88263760Y-138282753D01*
X88061585Y-138348444D01*
X87872179Y-138444951D01*
X87700213Y-138569890D01*
X87549890Y-138720213D01*
X87424949Y-138892182D01*
X87420484Y-138900946D01*
X87372509Y-138951742D01*
X87304688Y-138968536D01*
X87238553Y-138945998D01*
X87199516Y-138900946D01*
X87195050Y-138892182D01*
X87070109Y-138720213D01*
X86919786Y-138569890D01*
X86747820Y-138444951D01*
X86558414Y-138348444D01*
X86558413Y-138348443D01*
X86558412Y-138348443D01*
X86356243Y-138282754D01*
X86356241Y-138282753D01*
X86356240Y-138282753D01*
X86194957Y-138257208D01*
X86146287Y-138249500D01*
X85933713Y-138249500D01*
X85885042Y-138257208D01*
X85723760Y-138282753D01*
X85521585Y-138348444D01*
X85332179Y-138444951D01*
X85160213Y-138569890D01*
X85009890Y-138720213D01*
X84884949Y-138892182D01*
X84880484Y-138900946D01*
X84832509Y-138951742D01*
X84764688Y-138968536D01*
X84698553Y-138945998D01*
X84659516Y-138900946D01*
X84655050Y-138892182D01*
X84530109Y-138720213D01*
X84379786Y-138569890D01*
X84207820Y-138444951D01*
X84018414Y-138348444D01*
X84018413Y-138348443D01*
X84018412Y-138348443D01*
X83816243Y-138282754D01*
X83816241Y-138282753D01*
X83816240Y-138282753D01*
X83654957Y-138257208D01*
X83606287Y-138249500D01*
X83393713Y-138249500D01*
X83345042Y-138257208D01*
X83183760Y-138282753D01*
X82981585Y-138348444D01*
X82792179Y-138444951D01*
X82620213Y-138569890D01*
X82469890Y-138720213D01*
X82344949Y-138892182D01*
X82340202Y-138901499D01*
X82292227Y-138952293D01*
X82224405Y-138969087D01*
X82158271Y-138946548D01*
X82119234Y-138901495D01*
X82114626Y-138892452D01*
X82075270Y-138838282D01*
X82075269Y-138838282D01*
X81442962Y-139470590D01*
X81425925Y-139407007D01*
X81360099Y-139292993D01*
X81267007Y-139199901D01*
X81152993Y-139134075D01*
X81089409Y-139117037D01*
X81721716Y-138484728D01*
X81667550Y-138445375D01*
X81478217Y-138348904D01*
X81276129Y-138283242D01*
X81066246Y-138250000D01*
X80853754Y-138250000D01*
X80643872Y-138283242D01*
X80643869Y-138283242D01*
X80441782Y-138348904D01*
X80252439Y-138445380D01*
X80198282Y-138484727D01*
X80198282Y-138484728D01*
X80830591Y-139117037D01*
X80767007Y-139134075D01*
X80652993Y-139199901D01*
X80559901Y-139292993D01*
X80494075Y-139407007D01*
X80477037Y-139470591D01*
X79806818Y-138800372D01*
X79773333Y-138739049D01*
X79773330Y-138739036D01*
X79770499Y-138726015D01*
X79770499Y-138702128D01*
X79764091Y-138642517D01*
X79735926Y-138567002D01*
X79713798Y-138507673D01*
X79713793Y-138507664D01*
X79627547Y-138392455D01*
X79627544Y-138392452D01*
X79512335Y-138306206D01*
X79512328Y-138306202D01*
X79377482Y-138255908D01*
X79377483Y-138255908D01*
X79317883Y-138249501D01*
X79317881Y-138249500D01*
X79317873Y-138249500D01*
X79317864Y-138249500D01*
X77522129Y-138249500D01*
X77522123Y-138249501D01*
X77462516Y-138255908D01*
X77327671Y-138306202D01*
X77327664Y-138306206D01*
X77212455Y-138392452D01*
X77212452Y-138392455D01*
X77126206Y-138507664D01*
X77126202Y-138507671D01*
X77075908Y-138642517D01*
X77069501Y-138702116D01*
X77069500Y-138702135D01*
X75050500Y-138702135D01*
X75050500Y-126952135D01*
X115499500Y-126952135D01*
X115499500Y-129047870D01*
X115499501Y-129047876D01*
X115505908Y-129107483D01*
X115556202Y-129242328D01*
X115556206Y-129242335D01*
X115642452Y-129357544D01*
X115642455Y-129357547D01*
X115757664Y-129443793D01*
X115757671Y-129443797D01*
X115892517Y-129494091D01*
X115892516Y-129494091D01*
X115899444Y-129494835D01*
X115952127Y-129500500D01*
X119047872Y-129500499D01*
X119107483Y-129494091D01*
X119242331Y-129443796D01*
X119357546Y-129357546D01*
X119443796Y-129242331D01*
X119494091Y-129107483D01*
X119500500Y-129047873D01*
X119500499Y-126952128D01*
X119494091Y-126892517D01*
X119443796Y-126757669D01*
X119443795Y-126757668D01*
X119443793Y-126757664D01*
X119357547Y-126642455D01*
X119357544Y-126642452D01*
X119242335Y-126556206D01*
X119242328Y-126556202D01*
X119107482Y-126505908D01*
X119107483Y-126505908D01*
X119047883Y-126499501D01*
X119047881Y-126499500D01*
X119047873Y-126499500D01*
X119047864Y-126499500D01*
X115952129Y-126499500D01*
X115952123Y-126499501D01*
X115892516Y-126505908D01*
X115757671Y-126556202D01*
X115757664Y-126556206D01*
X115642455Y-126642452D01*
X115642452Y-126642455D01*
X115556206Y-126757664D01*
X115556202Y-126757671D01*
X115505908Y-126892517D01*
X115500340Y-126944315D01*
X115499501Y-126952123D01*
X115499500Y-126952135D01*
X75050500Y-126952135D01*
X75050500Y-119864071D01*
X113649499Y-119864071D01*
X113674497Y-119989738D01*
X113674499Y-119989744D01*
X113723534Y-120108125D01*
X113794726Y-120214673D01*
X113794727Y-120214674D01*
X115463181Y-121883127D01*
X115496666Y-121944450D01*
X115499500Y-121970808D01*
X115499500Y-124047870D01*
X115499501Y-124047876D01*
X115505908Y-124107483D01*
X115556202Y-124242328D01*
X115556206Y-124242335D01*
X115642452Y-124357544D01*
X115642455Y-124357547D01*
X115757664Y-124443793D01*
X115757671Y-124443797D01*
X115892517Y-124494091D01*
X115892516Y-124494091D01*
X115899444Y-124494835D01*
X115952127Y-124500500D01*
X119047872Y-124500499D01*
X119107483Y-124494091D01*
X119242331Y-124443796D01*
X119357546Y-124357546D01*
X119443796Y-124242331D01*
X119494091Y-124107483D01*
X119500500Y-124047873D01*
X119500499Y-121952128D01*
X119494091Y-121892517D01*
X119443796Y-121757669D01*
X119443795Y-121757668D01*
X119443793Y-121757664D01*
X119357547Y-121642455D01*
X119357544Y-121642452D01*
X119242335Y-121556206D01*
X119242328Y-121556202D01*
X119107482Y-121505908D01*
X119107483Y-121505908D01*
X119047883Y-121499501D01*
X119047881Y-121499500D01*
X119047873Y-121499500D01*
X119047865Y-121499500D01*
X116970808Y-121499500D01*
X116903769Y-121479815D01*
X116883127Y-121463181D01*
X114986819Y-119566873D01*
X114953334Y-119505550D01*
X114950500Y-119479192D01*
X114950500Y-98777135D01*
X128824500Y-98777135D01*
X128824500Y-100222870D01*
X128824501Y-100222876D01*
X128830908Y-100282483D01*
X128881202Y-100417328D01*
X128881206Y-100417335D01*
X128967452Y-100532544D01*
X128967455Y-100532547D01*
X129082664Y-100618793D01*
X129082671Y-100618797D01*
X129217517Y-100669091D01*
X129217516Y-100669091D01*
X129224444Y-100669835D01*
X129277127Y-100675500D01*
X130722872Y-100675499D01*
X130782483Y-100669091D01*
X130917331Y-100618796D01*
X131032546Y-100532546D01*
X131118796Y-100417331D01*
X131169091Y-100282483D01*
X131175500Y-100222873D01*
X131175499Y-98777128D01*
X131169091Y-98717517D01*
X131118796Y-98582669D01*
X131118795Y-98582668D01*
X131118793Y-98582664D01*
X131032547Y-98467455D01*
X131032544Y-98467452D01*
X130917335Y-98381206D01*
X130917328Y-98381202D01*
X130782482Y-98330908D01*
X130782483Y-98330908D01*
X130722883Y-98324501D01*
X130722881Y-98324500D01*
X130722873Y-98324500D01*
X130722864Y-98324500D01*
X129277129Y-98324500D01*
X129277123Y-98324501D01*
X129217516Y-98330908D01*
X129082671Y-98381202D01*
X129082664Y-98381206D01*
X128967455Y-98467452D01*
X128967452Y-98467455D01*
X128881206Y-98582664D01*
X128881202Y-98582671D01*
X128830908Y-98717517D01*
X128824501Y-98777116D01*
X128824501Y-98777123D01*
X128824500Y-98777135D01*
X114950500Y-98777135D01*
X114950500Y-92038155D01*
X121907000Y-92038155D01*
X121907000Y-93177500D01*
X123027270Y-93177500D01*
X123015783Y-93205233D01*
X122986500Y-93352450D01*
X122986500Y-93502550D01*
X123015783Y-93649767D01*
X123027270Y-93677500D01*
X121907000Y-93677500D01*
X121907000Y-94816844D01*
X121913401Y-94876372D01*
X121913403Y-94876379D01*
X121963645Y-95011086D01*
X121963649Y-95011093D01*
X122049809Y-95126187D01*
X122049812Y-95126190D01*
X122164906Y-95212350D01*
X122164913Y-95212354D01*
X122299620Y-95262596D01*
X122299627Y-95262598D01*
X122359155Y-95268999D01*
X122359172Y-95269000D01*
X123498500Y-95269000D01*
X123498500Y-94148729D01*
X123526233Y-94160217D01*
X123673450Y-94189500D01*
X123823550Y-94189500D01*
X123970767Y-94160217D01*
X123998500Y-94148729D01*
X123998500Y-95269000D01*
X125137828Y-95269000D01*
X125137844Y-95268999D01*
X125197372Y-95262598D01*
X125197379Y-95262596D01*
X125332086Y-95212354D01*
X125332093Y-95212350D01*
X125447187Y-95126190D01*
X125447190Y-95126187D01*
X125533350Y-95011093D01*
X125533354Y-95011086D01*
X125583596Y-94876379D01*
X125583598Y-94876372D01*
X125589999Y-94816844D01*
X125590000Y-94816827D01*
X125590000Y-93677500D01*
X124469730Y-93677500D01*
X124481217Y-93649767D01*
X124510500Y-93502550D01*
X124510500Y-93352450D01*
X124481217Y-93205233D01*
X124469730Y-93177500D01*
X125590000Y-93177500D01*
X125590000Y-92038172D01*
X125589999Y-92038155D01*
X125583598Y-91978627D01*
X125583596Y-91978620D01*
X125533354Y-91843913D01*
X125533350Y-91843906D01*
X125447190Y-91728812D01*
X125447187Y-91728809D01*
X125332093Y-91642649D01*
X125332086Y-91642645D01*
X125197379Y-91592403D01*
X125197372Y-91592401D01*
X125137844Y-91586000D01*
X123998500Y-91586000D01*
X123998500Y-92706270D01*
X123970767Y-92694783D01*
X123823550Y-92665500D01*
X123673450Y-92665500D01*
X123526233Y-92694783D01*
X123498500Y-92706270D01*
X123498500Y-91586000D01*
X122359155Y-91586000D01*
X122299627Y-91592401D01*
X122299620Y-91592403D01*
X122164913Y-91642645D01*
X122164906Y-91642649D01*
X122049812Y-91728809D01*
X122049809Y-91728812D01*
X121963649Y-91843906D01*
X121963645Y-91843913D01*
X121913403Y-91978620D01*
X121913401Y-91978627D01*
X121907000Y-92038155D01*
X114950500Y-92038155D01*
X114950500Y-82870807D01*
X114970185Y-82803768D01*
X114986819Y-82783126D01*
X120633126Y-77136819D01*
X120694449Y-77103334D01*
X120720807Y-77100500D01*
X120738693Y-77100500D01*
X120738694Y-77100499D01*
X120797445Y-77088813D01*
X120912658Y-77065896D01*
X120912661Y-77065894D01*
X120912666Y-77065894D01*
X121076547Y-76998013D01*
X121224035Y-76899464D01*
X121349464Y-76774035D01*
X121448013Y-76626547D01*
X121515894Y-76462666D01*
X121550500Y-76288691D01*
X121550500Y-76111309D01*
X121550500Y-76111306D01*
X121550499Y-76111304D01*
X121515896Y-75937341D01*
X121515893Y-75937332D01*
X121448016Y-75773459D01*
X121448009Y-75773446D01*
X121349464Y-75625965D01*
X121349461Y-75625961D01*
X121224038Y-75500538D01*
X121224034Y-75500535D01*
X121076553Y-75401990D01*
X121076540Y-75401983D01*
X120912667Y-75334106D01*
X120912658Y-75334103D01*
X120738694Y-75299500D01*
X120738691Y-75299500D01*
X120561309Y-75299500D01*
X120561306Y-75299500D01*
X120387341Y-75334103D01*
X120387332Y-75334106D01*
X120223459Y-75401983D01*
X120223446Y-75401990D01*
X120075965Y-75500535D01*
X120075961Y-75500538D01*
X119950538Y-75625961D01*
X119950535Y-75625965D01*
X119851990Y-75773446D01*
X119851983Y-75773459D01*
X119784106Y-75937332D01*
X119784103Y-75937341D01*
X119749500Y-76111304D01*
X119749500Y-76129191D01*
X119729815Y-76196230D01*
X119713181Y-76216872D01*
X113794727Y-82135325D01*
X113794726Y-82135326D01*
X113723534Y-82241874D01*
X113674499Y-82360255D01*
X113674497Y-82360261D01*
X113649500Y-82485928D01*
X113649500Y-82485931D01*
X113649500Y-119864069D01*
X113649500Y-119864071D01*
X113649499Y-119864071D01*
X75050500Y-119864071D01*
X75050500Y-116952135D01*
X77499500Y-116952135D01*
X77499500Y-119047870D01*
X77499501Y-119047876D01*
X77505908Y-119107483D01*
X77556202Y-119242328D01*
X77556206Y-119242335D01*
X77642452Y-119357544D01*
X77642455Y-119357547D01*
X77757664Y-119443793D01*
X77757671Y-119443797D01*
X77892517Y-119494091D01*
X77892516Y-119494091D01*
X77899444Y-119494835D01*
X77952127Y-119500500D01*
X81047872Y-119500499D01*
X81107483Y-119494091D01*
X81242331Y-119443796D01*
X81357546Y-119357546D01*
X81443796Y-119242331D01*
X81494091Y-119107483D01*
X81500500Y-119047873D01*
X81500499Y-116952128D01*
X81494091Y-116892517D01*
X81443796Y-116757669D01*
X81443795Y-116757668D01*
X81443793Y-116757664D01*
X81357547Y-116642455D01*
X81357544Y-116642452D01*
X81242335Y-116556206D01*
X81242328Y-116556202D01*
X81107482Y-116505908D01*
X81107483Y-116505908D01*
X81047883Y-116499501D01*
X81047881Y-116499500D01*
X81047873Y-116499500D01*
X81047864Y-116499500D01*
X77952129Y-116499500D01*
X77952123Y-116499501D01*
X77892516Y-116505908D01*
X77757671Y-116556202D01*
X77757664Y-116556206D01*
X77642455Y-116642452D01*
X77642452Y-116642455D01*
X77556206Y-116757664D01*
X77556202Y-116757671D01*
X77505908Y-116892517D01*
X77499501Y-116952116D01*
X77499501Y-116952123D01*
X77499500Y-116952135D01*
X75050500Y-116952135D01*
X75050500Y-109827155D01*
X77375000Y-109827155D01*
X77375000Y-110750000D01*
X78399999Y-110750000D01*
X78374979Y-110810402D01*
X78350000Y-110935981D01*
X78350000Y-111064019D01*
X78374979Y-111189598D01*
X78399999Y-111250000D01*
X77375000Y-111250000D01*
X77375000Y-112172844D01*
X77381401Y-112232372D01*
X77381403Y-112232379D01*
X77431645Y-112367086D01*
X77431649Y-112367093D01*
X77517809Y-112482187D01*
X77517812Y-112482190D01*
X77632906Y-112568350D01*
X77632913Y-112568354D01*
X77767620Y-112618596D01*
X77767627Y-112618598D01*
X77827155Y-112624999D01*
X77827172Y-112625000D01*
X78750000Y-112625000D01*
X78750000Y-111600001D01*
X78810402Y-111625021D01*
X78935981Y-111650000D01*
X79064019Y-111650000D01*
X79189598Y-111625021D01*
X79250000Y-111600001D01*
X79250000Y-112625000D01*
X80172828Y-112625000D01*
X80172844Y-112624999D01*
X80232372Y-112618598D01*
X80232379Y-112618596D01*
X80367086Y-112568354D01*
X80367093Y-112568350D01*
X80482187Y-112482190D01*
X80482190Y-112482187D01*
X80568350Y-112367093D01*
X80568354Y-112367086D01*
X80618596Y-112232379D01*
X80618598Y-112232372D01*
X80624999Y-112172844D01*
X80625000Y-112172827D01*
X80625000Y-111250000D01*
X79600001Y-111250000D01*
X79625021Y-111189598D01*
X79650000Y-111064019D01*
X79650000Y-110935981D01*
X79625021Y-110810402D01*
X79600001Y-110750000D01*
X80625000Y-110750000D01*
X80625000Y-109827172D01*
X80624999Y-109827155D01*
X80618598Y-109767627D01*
X80618596Y-109767620D01*
X80568354Y-109632913D01*
X80568350Y-109632906D01*
X80482190Y-109517812D01*
X80482187Y-109517809D01*
X80367093Y-109431649D01*
X80367086Y-109431645D01*
X80232379Y-109381403D01*
X80232372Y-109381401D01*
X80172844Y-109375000D01*
X79250000Y-109375000D01*
X79250000Y-110399998D01*
X79189598Y-110374979D01*
X79064019Y-110350000D01*
X78935981Y-110350000D01*
X78810402Y-110374979D01*
X78750000Y-110399998D01*
X78750000Y-109375000D01*
X77827155Y-109375000D01*
X77767627Y-109381401D01*
X77767620Y-109381403D01*
X77632913Y-109431645D01*
X77632906Y-109431649D01*
X77517812Y-109517809D01*
X77517809Y-109517812D01*
X77431649Y-109632906D01*
X77431645Y-109632913D01*
X77381403Y-109767620D01*
X77381401Y-109767627D01*
X77375000Y-109827155D01*
X75050500Y-109827155D01*
X75050500Y-109183135D01*
X82409500Y-109183135D01*
X82409500Y-111961870D01*
X82409501Y-111961876D01*
X82415908Y-112021483D01*
X82466202Y-112156328D01*
X82466206Y-112156335D01*
X82552452Y-112271544D01*
X82552455Y-112271547D01*
X82667664Y-112357793D01*
X82667671Y-112357797D01*
X82802517Y-112408091D01*
X82802516Y-112408091D01*
X82809444Y-112408835D01*
X82862127Y-112414500D01*
X85640872Y-112414499D01*
X85700483Y-112408091D01*
X85835331Y-112357796D01*
X85950546Y-112271546D01*
X86036796Y-112156331D01*
X86087091Y-112021483D01*
X86093500Y-111961873D01*
X86093499Y-109183128D01*
X86087091Y-109123517D01*
X86036796Y-108988669D01*
X86036795Y-108988668D01*
X86036793Y-108988664D01*
X85950547Y-108873455D01*
X85950544Y-108873452D01*
X85835335Y-108787206D01*
X85835328Y-108787202D01*
X85700482Y-108736908D01*
X85700483Y-108736908D01*
X85640883Y-108730501D01*
X85640881Y-108730500D01*
X85640873Y-108730500D01*
X85640864Y-108730500D01*
X82862129Y-108730500D01*
X82862123Y-108730501D01*
X82802516Y-108736908D01*
X82667671Y-108787202D01*
X82667664Y-108787206D01*
X82552455Y-108873452D01*
X82552452Y-108873455D01*
X82466206Y-108988664D01*
X82466202Y-108988671D01*
X82415908Y-109123517D01*
X82409501Y-109183116D01*
X82409501Y-109183123D01*
X82409500Y-109183135D01*
X75050500Y-109183135D01*
X75050500Y-104372070D01*
X77374500Y-104372070D01*
X77374500Y-104627929D01*
X77414526Y-104880640D01*
X77493588Y-105123972D01*
X77493589Y-105123975D01*
X77609750Y-105351950D01*
X77760132Y-105558935D01*
X77760136Y-105558940D01*
X77941059Y-105739863D01*
X77941064Y-105739867D01*
X78121607Y-105871038D01*
X78148053Y-105890252D01*
X78297080Y-105966185D01*
X78376024Y-106006410D01*
X78376027Y-106006411D01*
X78497693Y-106045942D01*
X78619361Y-106085474D01*
X78872070Y-106125500D01*
X78872071Y-106125500D01*
X79127929Y-106125500D01*
X79127930Y-106125500D01*
X79380639Y-106085474D01*
X79623975Y-106006410D01*
X79851947Y-105890252D01*
X80058942Y-105739862D01*
X80239862Y-105558942D01*
X80390252Y-105351947D01*
X80506410Y-105123975D01*
X80585474Y-104880639D01*
X80625500Y-104627930D01*
X80625500Y-104372070D01*
X80585474Y-104119361D01*
X80506410Y-103876025D01*
X80506410Y-103876024D01*
X80466185Y-103797080D01*
X80390252Y-103648053D01*
X80371038Y-103621607D01*
X80239867Y-103441064D01*
X80239863Y-103441059D01*
X80058940Y-103260136D01*
X80058935Y-103260132D01*
X79851950Y-103109750D01*
X79851949Y-103109749D01*
X79851947Y-103109748D01*
X79778910Y-103072533D01*
X79623975Y-102993589D01*
X79623972Y-102993588D01*
X79380640Y-102914526D01*
X79254284Y-102894513D01*
X79127930Y-102874500D01*
X78872070Y-102874500D01*
X78787833Y-102887842D01*
X78619359Y-102914526D01*
X78376027Y-102993588D01*
X78376024Y-102993589D01*
X78148049Y-103109750D01*
X77941064Y-103260132D01*
X77941059Y-103260136D01*
X77760136Y-103441059D01*
X77760132Y-103441064D01*
X77609750Y-103648049D01*
X77493589Y-103876024D01*
X77493588Y-103876027D01*
X77414526Y-104119359D01*
X77374500Y-104372070D01*
X75050500Y-104372070D01*
X75050500Y-53335927D01*
X75949501Y-53335927D01*
X75949501Y-53335930D01*
X75949501Y-88664070D01*
X75966495Y-88749501D01*
X75971368Y-88773999D01*
X75974500Y-88789745D01*
X76019305Y-88897915D01*
X76023536Y-88908128D01*
X76075354Y-88985680D01*
X76094727Y-89014674D01*
X76094728Y-89014675D01*
X76511878Y-89431824D01*
X76545363Y-89493147D01*
X76540379Y-89562838D01*
X76535921Y-89573298D01*
X76532738Y-89579908D01*
X76532734Y-89579917D01*
X76443687Y-89834397D01*
X76443684Y-89834405D01*
X76383688Y-90097268D01*
X76383686Y-90097280D01*
X76353500Y-90365186D01*
X76353500Y-90634813D01*
X76383686Y-90902719D01*
X76383688Y-90902731D01*
X76443684Y-91165594D01*
X76443687Y-91165602D01*
X76532734Y-91420082D01*
X76649714Y-91662994D01*
X76649716Y-91662997D01*
X76793162Y-91891289D01*
X76961266Y-92102085D01*
X77151915Y-92292734D01*
X77362711Y-92460838D01*
X77591003Y-92604284D01*
X77833921Y-92721267D01*
X78006166Y-92781538D01*
X78088397Y-92810312D01*
X78088405Y-92810315D01*
X78088408Y-92810315D01*
X78088409Y-92810316D01*
X78351268Y-92870312D01*
X78619187Y-92900499D01*
X78619188Y-92900500D01*
X78619191Y-92900500D01*
X78888812Y-92900500D01*
X78888812Y-92900499D01*
X79156732Y-92870312D01*
X79419591Y-92810316D01*
X79674079Y-92721267D01*
X79916997Y-92604284D01*
X80145289Y-92460838D01*
X80356085Y-92292734D01*
X80546734Y-92102085D01*
X80597716Y-92038155D01*
X82410000Y-92038155D01*
X82410000Y-93177500D01*
X83530270Y-93177500D01*
X83518783Y-93205233D01*
X83489500Y-93352450D01*
X83489500Y-93502550D01*
X83518783Y-93649767D01*
X83530270Y-93677500D01*
X82410000Y-93677500D01*
X82410000Y-94816844D01*
X82416401Y-94876372D01*
X82416403Y-94876379D01*
X82466645Y-95011086D01*
X82466649Y-95011093D01*
X82552809Y-95126187D01*
X82552812Y-95126190D01*
X82667906Y-95212350D01*
X82667913Y-95212354D01*
X82802620Y-95262596D01*
X82802627Y-95262598D01*
X82862155Y-95268999D01*
X82862172Y-95269000D01*
X84001500Y-95269000D01*
X84001500Y-94148729D01*
X84029233Y-94160217D01*
X84176450Y-94189500D01*
X84326550Y-94189500D01*
X84473767Y-94160217D01*
X84501500Y-94148729D01*
X84501500Y-95269000D01*
X85640828Y-95269000D01*
X85640844Y-95268999D01*
X85700372Y-95262598D01*
X85700379Y-95262596D01*
X85835086Y-95212354D01*
X85835093Y-95212350D01*
X85950187Y-95126190D01*
X85950190Y-95126187D01*
X86036350Y-95011093D01*
X86036354Y-95011086D01*
X86086596Y-94876379D01*
X86086598Y-94876372D01*
X86092999Y-94816844D01*
X86093000Y-94816827D01*
X86093000Y-94401693D01*
X86112685Y-94334654D01*
X86165489Y-94288899D01*
X86234647Y-94278955D01*
X86298203Y-94307980D01*
X86335977Y-94366758D01*
X86340220Y-94387810D01*
X86347457Y-94452048D01*
X86347460Y-94452062D01*
X86414953Y-94747771D01*
X86414957Y-94747783D01*
X86515133Y-95034068D01*
X86646733Y-95307338D01*
X86646735Y-95307341D01*
X86808108Y-95564164D01*
X86997221Y-95801304D01*
X87211696Y-96015779D01*
X87448836Y-96204892D01*
X87705659Y-96366265D01*
X87978935Y-96497868D01*
X88193951Y-96573105D01*
X88265216Y-96598042D01*
X88265228Y-96598046D01*
X88560937Y-96665540D01*
X88560946Y-96665541D01*
X88560951Y-96665542D01*
X88761874Y-96688180D01*
X88862337Y-96699499D01*
X88862340Y-96699500D01*
X88862343Y-96699500D01*
X89165660Y-96699500D01*
X89165661Y-96699499D01*
X89345906Y-96679191D01*
X89467048Y-96665542D01*
X89467051Y-96665541D01*
X89467063Y-96665540D01*
X89762772Y-96598046D01*
X90049065Y-96497868D01*
X90322341Y-96366265D01*
X90579164Y-96204892D01*
X90816304Y-96015779D01*
X91030779Y-95801304D01*
X91219892Y-95564164D01*
X91381265Y-95307341D01*
X91512868Y-95034065D01*
X91613046Y-94747772D01*
X91680540Y-94452063D01*
X91690152Y-94366758D01*
X91714499Y-94150663D01*
X91714500Y-94150659D01*
X91714500Y-93847340D01*
X91714499Y-93847336D01*
X91707863Y-93788442D01*
X91698058Y-93701415D01*
X91680542Y-93545951D01*
X91680541Y-93545946D01*
X91680540Y-93545937D01*
X91613046Y-93250228D01*
X91512868Y-92963935D01*
X91381265Y-92690659D01*
X91219892Y-92433836D01*
X91030779Y-92196696D01*
X90816304Y-91982221D01*
X90811797Y-91978627D01*
X90642871Y-91843913D01*
X90579164Y-91793108D01*
X90372089Y-91662994D01*
X90322338Y-91631733D01*
X90049068Y-91500133D01*
X89762783Y-91399957D01*
X89762771Y-91399953D01*
X89534556Y-91347864D01*
X89467063Y-91332460D01*
X89467060Y-91332459D01*
X89467048Y-91332457D01*
X89165663Y-91298500D01*
X89165657Y-91298500D01*
X88862343Y-91298500D01*
X88862336Y-91298500D01*
X88560951Y-91332457D01*
X88560937Y-91332460D01*
X88265228Y-91399953D01*
X88265216Y-91399957D01*
X87978931Y-91500133D01*
X87705661Y-91631733D01*
X87448837Y-91793107D01*
X87211696Y-91982220D01*
X86997220Y-92196696D01*
X86808107Y-92433837D01*
X86646733Y-92690661D01*
X86515133Y-92963931D01*
X86414957Y-93250216D01*
X86414953Y-93250228D01*
X86347460Y-93545937D01*
X86347458Y-93545949D01*
X86337199Y-93637001D01*
X86310132Y-93701415D01*
X86252538Y-93740970D01*
X86182701Y-93743107D01*
X86126298Y-93710798D01*
X86093000Y-93677500D01*
X84972730Y-93677500D01*
X84984217Y-93649767D01*
X85013500Y-93502550D01*
X85013500Y-93352450D01*
X84984217Y-93205233D01*
X84972730Y-93177500D01*
X86093000Y-93177500D01*
X86093000Y-92038172D01*
X86092999Y-92038155D01*
X86086598Y-91978627D01*
X86086596Y-91978620D01*
X86036354Y-91843913D01*
X86036350Y-91843906D01*
X85950190Y-91728812D01*
X85950187Y-91728809D01*
X85835093Y-91642649D01*
X85835086Y-91642645D01*
X85700379Y-91592403D01*
X85700372Y-91592401D01*
X85640844Y-91586000D01*
X84501500Y-91586000D01*
X84501500Y-92706270D01*
X84473767Y-92694783D01*
X84326550Y-92665500D01*
X84176450Y-92665500D01*
X84029233Y-92694783D01*
X84001500Y-92706270D01*
X84001500Y-91586000D01*
X82862155Y-91586000D01*
X82802627Y-91592401D01*
X82802620Y-91592403D01*
X82667913Y-91642645D01*
X82667906Y-91642649D01*
X82552812Y-91728809D01*
X82552809Y-91728812D01*
X82466649Y-91843906D01*
X82466645Y-91843913D01*
X82416403Y-91978620D01*
X82416401Y-91978627D01*
X82410000Y-92038155D01*
X80597716Y-92038155D01*
X80714838Y-91891289D01*
X80858284Y-91662997D01*
X80975267Y-91420079D01*
X81064316Y-91165591D01*
X81124312Y-90902732D01*
X81154500Y-90634809D01*
X81154500Y-90365191D01*
X81124312Y-90097268D01*
X81064316Y-89834409D01*
X80975267Y-89579921D01*
X80858284Y-89337003D01*
X80714838Y-89108711D01*
X80546734Y-88897915D01*
X80356085Y-88707266D01*
X80145289Y-88539162D01*
X79916997Y-88395716D01*
X79916994Y-88395714D01*
X79674082Y-88278734D01*
X79419602Y-88189687D01*
X79419594Y-88189684D01*
X79222446Y-88144687D01*
X79156732Y-88129688D01*
X79156728Y-88129687D01*
X79156719Y-88129686D01*
X78888813Y-88099500D01*
X78888809Y-88099500D01*
X78619191Y-88099500D01*
X78619186Y-88099500D01*
X78351280Y-88129686D01*
X78351268Y-88129688D01*
X78088405Y-88189684D01*
X78088397Y-88189687D01*
X77833917Y-88278734D01*
X77591001Y-88395716D01*
X77591000Y-88395717D01*
X77505638Y-88449353D01*
X77438401Y-88468353D01*
X77371566Y-88447985D01*
X77351986Y-88432040D01*
X77286820Y-88366874D01*
X77253335Y-88305551D01*
X77250501Y-88279193D01*
X77250501Y-79231063D01*
X77270186Y-79164024D01*
X77322990Y-79118269D01*
X77392148Y-79108325D01*
X77455704Y-79137350D01*
X77474815Y-79158173D01*
X77581259Y-79304679D01*
X77715321Y-79438741D01*
X77868704Y-79550181D01*
X77948515Y-79590846D01*
X78037627Y-79636252D01*
X78037629Y-79636252D01*
X78037632Y-79636254D01*
X78217945Y-79694842D01*
X78311574Y-79709671D01*
X78405200Y-79724500D01*
X78405204Y-79724500D01*
X78594800Y-79724500D01*
X78678022Y-79711318D01*
X78782055Y-79694842D01*
X78962368Y-79636254D01*
X79131296Y-79550181D01*
X79284679Y-79438741D01*
X79418741Y-79304679D01*
X79530181Y-79151296D01*
X79616254Y-78982368D01*
X79674842Y-78802055D01*
X79691318Y-78698022D01*
X79704500Y-78614800D01*
X79704500Y-78425199D01*
X79688023Y-78321171D01*
X79674842Y-78237945D01*
X79616254Y-78057632D01*
X79616252Y-78057629D01*
X79616252Y-78057627D01*
X79530180Y-77888703D01*
X79525181Y-77881822D01*
X79418741Y-77735321D01*
X79284679Y-77601259D01*
X79131296Y-77489819D01*
X78962368Y-77403746D01*
X78852139Y-77367930D01*
X78794465Y-77328493D01*
X78767267Y-77264135D01*
X78779182Y-77195288D01*
X78826426Y-77143813D01*
X78852138Y-77132070D01*
X78962368Y-77096254D01*
X79131296Y-77010181D01*
X79284679Y-76898741D01*
X79418741Y-76764679D01*
X79530181Y-76611296D01*
X79616254Y-76442368D01*
X79674842Y-76262055D01*
X79698718Y-76111304D01*
X79704500Y-76074800D01*
X79704500Y-75885199D01*
X79679727Y-75728791D01*
X79674842Y-75697945D01*
X79616254Y-75517632D01*
X79616252Y-75517629D01*
X79616252Y-75517627D01*
X79570846Y-75428515D01*
X79530181Y-75348704D01*
X79418741Y-75195321D01*
X79284679Y-75061259D01*
X79131296Y-74949819D01*
X78962368Y-74863746D01*
X78852139Y-74827930D01*
X78794465Y-74788493D01*
X78767267Y-74724135D01*
X78779182Y-74655288D01*
X78826426Y-74603813D01*
X78852138Y-74592070D01*
X78962368Y-74556254D01*
X79131296Y-74470181D01*
X79284679Y-74358741D01*
X79418741Y-74224679D01*
X79530181Y-74071296D01*
X79616254Y-73902368D01*
X79674842Y-73722055D01*
X79691318Y-73618022D01*
X79704500Y-73534800D01*
X79704500Y-73345199D01*
X79682653Y-73207266D01*
X79674842Y-73157945D01*
X79616254Y-72977632D01*
X79616252Y-72977629D01*
X79616252Y-72977627D01*
X79548413Y-72844487D01*
X79530181Y-72808704D01*
X79418741Y-72655321D01*
X79284679Y-72521259D01*
X79131296Y-72409819D01*
X78962368Y-72323746D01*
X78852139Y-72287930D01*
X78794465Y-72248493D01*
X78767267Y-72184135D01*
X78779182Y-72115288D01*
X78826426Y-72063813D01*
X78852138Y-72052070D01*
X78962368Y-72016254D01*
X79131296Y-71930181D01*
X79284679Y-71818741D01*
X79418741Y-71684679D01*
X79530181Y-71531296D01*
X79616254Y-71362368D01*
X79674842Y-71182055D01*
X79691318Y-71078022D01*
X79704500Y-70994800D01*
X79704500Y-70805199D01*
X79688023Y-70701171D01*
X79674842Y-70617945D01*
X79616254Y-70437632D01*
X79616252Y-70437629D01*
X79616252Y-70437627D01*
X79530180Y-70268703D01*
X79525181Y-70261822D01*
X79418741Y-70115321D01*
X79284679Y-69981259D01*
X79131296Y-69869819D01*
X78962368Y-69783746D01*
X78852139Y-69747930D01*
X78794465Y-69708493D01*
X78767267Y-69644135D01*
X78779182Y-69575288D01*
X78826426Y-69523813D01*
X78852138Y-69512070D01*
X78962368Y-69476254D01*
X79131296Y-69390181D01*
X79284679Y-69278741D01*
X79418741Y-69144679D01*
X79530181Y-68991296D01*
X79616254Y-68822368D01*
X79674842Y-68642055D01*
X79691318Y-68538022D01*
X79704500Y-68454800D01*
X79704500Y-68265205D01*
X79703837Y-68261021D01*
X79712790Y-68191727D01*
X79757784Y-68138273D01*
X79824534Y-68117631D01*
X79891849Y-68136353D01*
X79913991Y-68153937D01*
X86759324Y-74999271D01*
X86759327Y-74999274D01*
X86759330Y-74999276D01*
X86804564Y-75029500D01*
X86865873Y-75070465D01*
X86984256Y-75119501D01*
X86984260Y-75119501D01*
X86984261Y-75119502D01*
X87109928Y-75144500D01*
X87109931Y-75144500D01*
X102774818Y-75144500D01*
X102841857Y-75164185D01*
X102887612Y-75216989D01*
X102897556Y-75286147D01*
X102875136Y-75341386D01*
X102869819Y-75348703D01*
X102783747Y-75517627D01*
X102725157Y-75697949D01*
X102695500Y-75885199D01*
X102695500Y-76074800D01*
X102716446Y-76207050D01*
X102725158Y-76262055D01*
X102733814Y-76288695D01*
X102783747Y-76442372D01*
X102841795Y-76556296D01*
X102869819Y-76611296D01*
X102981259Y-76764679D01*
X103115321Y-76898741D01*
X103268704Y-77010181D01*
X103348515Y-77050846D01*
X103437627Y-77096252D01*
X103437629Y-77096252D01*
X103437632Y-77096254D01*
X103547860Y-77132069D01*
X103605534Y-77171507D01*
X103632732Y-77235866D01*
X103620817Y-77304712D01*
X103573573Y-77356188D01*
X103547861Y-77367929D01*
X103505838Y-77381583D01*
X103437627Y-77403747D01*
X103268703Y-77489819D01*
X103115319Y-77601260D01*
X102981260Y-77735319D01*
X102869819Y-77888703D01*
X102783747Y-78057627D01*
X102751946Y-78155501D01*
X102736722Y-78202357D01*
X102725157Y-78237949D01*
X102695500Y-78425199D01*
X102695500Y-78614800D01*
X102716446Y-78747050D01*
X102725158Y-78802055D01*
X102764750Y-78923905D01*
X102783747Y-78982372D01*
X102841795Y-79096296D01*
X102869819Y-79151296D01*
X102981259Y-79304679D01*
X103115321Y-79438741D01*
X103268704Y-79550181D01*
X103348515Y-79590846D01*
X103437627Y-79636252D01*
X103437629Y-79636252D01*
X103437632Y-79636254D01*
X103617945Y-79694842D01*
X103711574Y-79709671D01*
X103805200Y-79724500D01*
X103805204Y-79724500D01*
X103994800Y-79724500D01*
X104078022Y-79711318D01*
X104182055Y-79694842D01*
X104362368Y-79636254D01*
X104531296Y-79550181D01*
X104684679Y-79438741D01*
X104818741Y-79304679D01*
X104930181Y-79151296D01*
X105016254Y-78982368D01*
X105074842Y-78802055D01*
X105091318Y-78698022D01*
X105104500Y-78614800D01*
X105104500Y-78425199D01*
X105088023Y-78321171D01*
X105074842Y-78237945D01*
X105016254Y-78057632D01*
X105016252Y-78057629D01*
X105016252Y-78057627D01*
X104930180Y-77888703D01*
X104925181Y-77881822D01*
X104818741Y-77735321D01*
X104684679Y-77601259D01*
X104531296Y-77489819D01*
X104362368Y-77403746D01*
X104252139Y-77367930D01*
X104194465Y-77328493D01*
X104167267Y-77264135D01*
X104179182Y-77195288D01*
X104226426Y-77143813D01*
X104252138Y-77132070D01*
X104362368Y-77096254D01*
X104531296Y-77010181D01*
X104684679Y-76898741D01*
X104818741Y-76764679D01*
X104930181Y-76611296D01*
X105016254Y-76442368D01*
X105074842Y-76262055D01*
X105098718Y-76111304D01*
X105104500Y-76074800D01*
X105104500Y-75885199D01*
X105079727Y-75728791D01*
X105074842Y-75697945D01*
X105016254Y-75517632D01*
X105016252Y-75517629D01*
X105016252Y-75517627D01*
X104970846Y-75428515D01*
X104930181Y-75348704D01*
X104924863Y-75341385D01*
X104901384Y-75275580D01*
X104917209Y-75207526D01*
X104967314Y-75158831D01*
X105025182Y-75144500D01*
X108320692Y-75144500D01*
X108387731Y-75164185D01*
X108408373Y-75180819D01*
X108849268Y-75621714D01*
X108882753Y-75683037D01*
X108884061Y-75728791D01*
X108868000Y-75830203D01*
X108868000Y-76019800D01*
X108897657Y-76207050D01*
X108897658Y-76207055D01*
X108924184Y-76288693D01*
X108956247Y-76387372D01*
X109042319Y-76556296D01*
X109153759Y-76709679D01*
X109287821Y-76843741D01*
X109441204Y-76955181D01*
X109521015Y-76995846D01*
X109610127Y-77041252D01*
X109610129Y-77041252D01*
X109610132Y-77041254D01*
X109720360Y-77077069D01*
X109778034Y-77116507D01*
X109805232Y-77180866D01*
X109793317Y-77249712D01*
X109746073Y-77301188D01*
X109720361Y-77312929D01*
X109678338Y-77326583D01*
X109610127Y-77348747D01*
X109441203Y-77434819D01*
X109287819Y-77546260D01*
X109153760Y-77680319D01*
X109042319Y-77833703D01*
X108956247Y-78002627D01*
X108897657Y-78182949D01*
X108868000Y-78370199D01*
X108868000Y-78559800D01*
X108897657Y-78747050D01*
X108897658Y-78747055D01*
X108915529Y-78802055D01*
X108956247Y-78927372D01*
X109042319Y-79096296D01*
X109153759Y-79249679D01*
X109287821Y-79383741D01*
X109441204Y-79495181D01*
X109521015Y-79535846D01*
X109610127Y-79581252D01*
X109610129Y-79581252D01*
X109610132Y-79581254D01*
X109790445Y-79639842D01*
X109884074Y-79654671D01*
X109977700Y-79669500D01*
X110111192Y-79669500D01*
X110178231Y-79689185D01*
X110223986Y-79741989D01*
X110233930Y-79811147D01*
X110204905Y-79874703D01*
X110198873Y-79881181D01*
X108216873Y-81863181D01*
X108155550Y-81896666D01*
X108129192Y-81899500D01*
X101535929Y-81899500D01*
X101410261Y-81924497D01*
X101410255Y-81924499D01*
X101291875Y-81973533D01*
X101291866Y-81973538D01*
X101185331Y-82044723D01*
X101185327Y-82044726D01*
X101094726Y-82135327D01*
X101094723Y-82135331D01*
X101023538Y-82241866D01*
X101023533Y-82241875D01*
X100974499Y-82360255D01*
X100974497Y-82360261D01*
X100949500Y-82485928D01*
X100949500Y-89079192D01*
X100929815Y-89146231D01*
X100913181Y-89166873D01*
X85016873Y-105063181D01*
X84955550Y-105096666D01*
X84929192Y-105099500D01*
X84911306Y-105099500D01*
X84737341Y-105134103D01*
X84737332Y-105134106D01*
X84573459Y-105201983D01*
X84573446Y-105201990D01*
X84425965Y-105300535D01*
X84425961Y-105300538D01*
X84300538Y-105425961D01*
X84300535Y-105425965D01*
X84201990Y-105573446D01*
X84201983Y-105573459D01*
X84134106Y-105737332D01*
X84134103Y-105737341D01*
X84099500Y-105911304D01*
X84099500Y-106088695D01*
X84134103Y-106262658D01*
X84134106Y-106262667D01*
X84201983Y-106426540D01*
X84201990Y-106426553D01*
X84300535Y-106574034D01*
X84300538Y-106574038D01*
X84425961Y-106699461D01*
X84425965Y-106699464D01*
X84573446Y-106798009D01*
X84573459Y-106798016D01*
X84696363Y-106848923D01*
X84737334Y-106865894D01*
X84737336Y-106865894D01*
X84737341Y-106865896D01*
X84911304Y-106900499D01*
X84911307Y-106900500D01*
X84911309Y-106900500D01*
X85088693Y-106900500D01*
X85088694Y-106900499D01*
X85146682Y-106888964D01*
X85262658Y-106865896D01*
X85262661Y-106865894D01*
X85262666Y-106865894D01*
X85426547Y-106798013D01*
X85574035Y-106699464D01*
X85699464Y-106574035D01*
X85798013Y-106426547D01*
X85865894Y-106262666D01*
X85900500Y-106088691D01*
X85900500Y-106070807D01*
X85920185Y-106003768D01*
X85936819Y-105983126D01*
X102105273Y-89814672D01*
X102105276Y-89814669D01*
X102176465Y-89708127D01*
X102225501Y-89589744D01*
X102227455Y-89579921D01*
X102235562Y-89539164D01*
X102250500Y-89464071D01*
X102250500Y-85745713D01*
X106599500Y-85745713D01*
X106599500Y-85958287D01*
X106632754Y-86168243D01*
X106698410Y-86370311D01*
X106698444Y-86370414D01*
X106794951Y-86559820D01*
X106919890Y-86731786D01*
X107070213Y-86882109D01*
X107242179Y-87007048D01*
X107242181Y-87007049D01*
X107242184Y-87007051D01*
X107431588Y-87103557D01*
X107633757Y-87169246D01*
X107843713Y-87202500D01*
X107843714Y-87202500D01*
X108056286Y-87202500D01*
X108056287Y-87202500D01*
X108266243Y-87169246D01*
X108468412Y-87103557D01*
X108657816Y-87007051D01*
X108754674Y-86936680D01*
X108829786Y-86882109D01*
X108829788Y-86882106D01*
X108829792Y-86882104D01*
X108980104Y-86731792D01*
X108980106Y-86731788D01*
X108980109Y-86731786D01*
X109105048Y-86559820D01*
X109105047Y-86559820D01*
X109105051Y-86559816D01*
X109201557Y-86370412D01*
X109267246Y-86168243D01*
X109300500Y-85958287D01*
X109300500Y-85745713D01*
X109267246Y-85535757D01*
X109201557Y-85333588D01*
X109105051Y-85144184D01*
X109105049Y-85144181D01*
X109105048Y-85144179D01*
X108980109Y-84972213D01*
X108829786Y-84821890D01*
X108657820Y-84696951D01*
X108468414Y-84600444D01*
X108468413Y-84600443D01*
X108468412Y-84600443D01*
X108266243Y-84534754D01*
X108266241Y-84534753D01*
X108266240Y-84534753D01*
X108104957Y-84509208D01*
X108056287Y-84501500D01*
X107843713Y-84501500D01*
X107795042Y-84509208D01*
X107633760Y-84534753D01*
X107431585Y-84600444D01*
X107242179Y-84696951D01*
X107070213Y-84821890D01*
X106919890Y-84972213D01*
X106794951Y-85144179D01*
X106698444Y-85333585D01*
X106632753Y-85535760D01*
X106599500Y-85745713D01*
X102250500Y-85745713D01*
X102250500Y-83324500D01*
X102270185Y-83257461D01*
X102322989Y-83211706D01*
X102374500Y-83200500D01*
X108514071Y-83200500D01*
X108598615Y-83183682D01*
X108639744Y-83175501D01*
X108758127Y-83126465D01*
X108864669Y-83055277D01*
X111137819Y-80782127D01*
X111199142Y-80748642D01*
X111268834Y-80753626D01*
X111324767Y-80795498D01*
X111349184Y-80860962D01*
X111349500Y-80869808D01*
X111349500Y-117325638D01*
X111329815Y-117392677D01*
X111313181Y-117413319D01*
X111300538Y-117425961D01*
X111300535Y-117425965D01*
X111201990Y-117573446D01*
X111201983Y-117573459D01*
X111134106Y-117737332D01*
X111134103Y-117737341D01*
X111099500Y-117911304D01*
X111099500Y-118088695D01*
X111134103Y-118262658D01*
X111134106Y-118262667D01*
X111201983Y-118426540D01*
X111201990Y-118426553D01*
X111300535Y-118574034D01*
X111300538Y-118574038D01*
X111425961Y-118699461D01*
X111425965Y-118699464D01*
X111573446Y-118798009D01*
X111573459Y-118798016D01*
X111696363Y-118848923D01*
X111737334Y-118865894D01*
X111737336Y-118865894D01*
X111737341Y-118865896D01*
X111911304Y-118900499D01*
X111911307Y-118900500D01*
X111911309Y-118900500D01*
X112088693Y-118900500D01*
X112088694Y-118900499D01*
X112146682Y-118888964D01*
X112262658Y-118865896D01*
X112262661Y-118865894D01*
X112262666Y-118865894D01*
X112426547Y-118798013D01*
X112574035Y-118699464D01*
X112699464Y-118574035D01*
X112798013Y-118426547D01*
X112865894Y-118262666D01*
X112900500Y-118088691D01*
X112900500Y-117911309D01*
X112900500Y-117911306D01*
X112900499Y-117911304D01*
X112865896Y-117737341D01*
X112865893Y-117737332D01*
X112798016Y-117573459D01*
X112798009Y-117573446D01*
X112699464Y-117425965D01*
X112699461Y-117425961D01*
X112686819Y-117413319D01*
X112653334Y-117351996D01*
X112650500Y-117325638D01*
X112650500Y-79398307D01*
X112670185Y-79331268D01*
X112686814Y-79310631D01*
X134058510Y-57938934D01*
X134119831Y-57905451D01*
X134189523Y-57910435D01*
X134245456Y-57952307D01*
X134269873Y-58017771D01*
X134268664Y-58046005D01*
X134268000Y-58050199D01*
X134268000Y-58239800D01*
X134293703Y-58402084D01*
X134297658Y-58427055D01*
X134315529Y-58482055D01*
X134356247Y-58607372D01*
X134434443Y-58760838D01*
X134442319Y-58776296D01*
X134553759Y-58929679D01*
X134687821Y-59063741D01*
X134841204Y-59175181D01*
X134921015Y-59215846D01*
X135010127Y-59261252D01*
X135010129Y-59261252D01*
X135010132Y-59261254D01*
X135120360Y-59297069D01*
X135178034Y-59336507D01*
X135205232Y-59400866D01*
X135193317Y-59469712D01*
X135146073Y-59521188D01*
X135120361Y-59532929D01*
X135078338Y-59546583D01*
X135010127Y-59568747D01*
X134841203Y-59654819D01*
X134687819Y-59766260D01*
X134553760Y-59900319D01*
X134442319Y-60053703D01*
X134356247Y-60222627D01*
X134297657Y-60402949D01*
X134268000Y-60590199D01*
X134268000Y-60779795D01*
X134284061Y-60881207D01*
X134275105Y-60950501D01*
X134249268Y-60988285D01*
X133913224Y-61324329D01*
X133847096Y-61423299D01*
X133847094Y-61423301D01*
X133842037Y-61430868D01*
X133842034Y-61430874D01*
X133792999Y-61549255D01*
X133792997Y-61549261D01*
X133768000Y-61674928D01*
X133768000Y-61674931D01*
X133768000Y-66265651D01*
X133768000Y-66265653D01*
X133767999Y-66265653D01*
X133791863Y-66385617D01*
X133792998Y-66391325D01*
X133792999Y-66391327D01*
X133842033Y-66509707D01*
X133868742Y-66549680D01*
X133905492Y-66604681D01*
X133913226Y-66616255D01*
X133913227Y-66616256D01*
X134597844Y-67300872D01*
X134631329Y-67362195D01*
X134626345Y-67431886D01*
X134597846Y-67476232D01*
X134553762Y-67520317D01*
X134553760Y-67520319D01*
X134442319Y-67673703D01*
X134356247Y-67842627D01*
X134297657Y-68022949D01*
X134268000Y-68210199D01*
X134268000Y-68399800D01*
X134297657Y-68587050D01*
X134297658Y-68587055D01*
X134315529Y-68642055D01*
X134356247Y-68767372D01*
X134411387Y-68875589D01*
X134442319Y-68936296D01*
X134553759Y-69089679D01*
X134687821Y-69223741D01*
X134841204Y-69335181D01*
X134910151Y-69370311D01*
X135010127Y-69421252D01*
X135010129Y-69421252D01*
X135010132Y-69421254D01*
X135120360Y-69457069D01*
X135178034Y-69496507D01*
X135205232Y-69560866D01*
X135193317Y-69629712D01*
X135146073Y-69681188D01*
X135120361Y-69692929D01*
X135078338Y-69706583D01*
X135010127Y-69728747D01*
X134841203Y-69814819D01*
X134687819Y-69926260D01*
X134553760Y-70060319D01*
X134442319Y-70213703D01*
X134356247Y-70382627D01*
X134297657Y-70562949D01*
X134268000Y-70750199D01*
X134268000Y-70939800D01*
X134282623Y-71032126D01*
X134297658Y-71127055D01*
X134331271Y-71230503D01*
X134356247Y-71307372D01*
X134442319Y-71476296D01*
X134553759Y-71629679D01*
X134687821Y-71763741D01*
X134841204Y-71875181D01*
X134921015Y-71915846D01*
X135010127Y-71961252D01*
X135010129Y-71961252D01*
X135010132Y-71961254D01*
X135120360Y-71997069D01*
X135178034Y-72036507D01*
X135205232Y-72100866D01*
X135193317Y-72169712D01*
X135146073Y-72221188D01*
X135120361Y-72232929D01*
X135078338Y-72246583D01*
X135010127Y-72268747D01*
X134841203Y-72354819D01*
X134687819Y-72466260D01*
X134553760Y-72600319D01*
X134442319Y-72753703D01*
X134356247Y-72922627D01*
X134338375Y-72977632D01*
X134300402Y-73094502D01*
X134297657Y-73102949D01*
X134268000Y-73290199D01*
X134268000Y-73479800D01*
X134297657Y-73667049D01*
X134297658Y-73667055D01*
X134315529Y-73722055D01*
X134356247Y-73847372D01*
X134442319Y-74016296D01*
X134553759Y-74169679D01*
X134687821Y-74303741D01*
X134841204Y-74415181D01*
X134921015Y-74455846D01*
X135010127Y-74501252D01*
X135010129Y-74501252D01*
X135010132Y-74501254D01*
X135120360Y-74537069D01*
X135178034Y-74576507D01*
X135205232Y-74640866D01*
X135193317Y-74709712D01*
X135146073Y-74761188D01*
X135120361Y-74772929D01*
X135078338Y-74786583D01*
X135010127Y-74808747D01*
X134841203Y-74894819D01*
X134687819Y-75006260D01*
X134553760Y-75140319D01*
X134442319Y-75293703D01*
X134356247Y-75462627D01*
X134338375Y-75517632D01*
X134304557Y-75621714D01*
X134297657Y-75642949D01*
X134268000Y-75830199D01*
X134268000Y-76019800D01*
X134297657Y-76207050D01*
X134297658Y-76207055D01*
X134324184Y-76288693D01*
X134356247Y-76387372D01*
X134442319Y-76556296D01*
X134553759Y-76709679D01*
X134687821Y-76843741D01*
X134841204Y-76955181D01*
X134921015Y-76995846D01*
X135010127Y-77041252D01*
X135010129Y-77041252D01*
X135010132Y-77041254D01*
X135120360Y-77077069D01*
X135178034Y-77116507D01*
X135205232Y-77180866D01*
X135193317Y-77249712D01*
X135146073Y-77301188D01*
X135120361Y-77312929D01*
X135078338Y-77326583D01*
X135010127Y-77348747D01*
X134841203Y-77434819D01*
X134687819Y-77546260D01*
X134553760Y-77680319D01*
X134442319Y-77833703D01*
X134356247Y-78002627D01*
X134297657Y-78182949D01*
X134268000Y-78370199D01*
X134268000Y-78559800D01*
X134297657Y-78747050D01*
X134297658Y-78747055D01*
X134315529Y-78802055D01*
X134356247Y-78927372D01*
X134442319Y-79096296D01*
X134553759Y-79249679D01*
X134687821Y-79383741D01*
X134841204Y-79495181D01*
X134921015Y-79535846D01*
X135010127Y-79581252D01*
X135010129Y-79581252D01*
X135010132Y-79581254D01*
X135190445Y-79639842D01*
X135284074Y-79654671D01*
X135377700Y-79669500D01*
X135377704Y-79669500D01*
X135567300Y-79669500D01*
X135650522Y-79656318D01*
X135754555Y-79639842D01*
X135934868Y-79581254D01*
X136103796Y-79495181D01*
X136257179Y-79383741D01*
X136391241Y-79249679D01*
X136502681Y-79096296D01*
X136588754Y-78927368D01*
X136647342Y-78747055D01*
X136663818Y-78643022D01*
X136677000Y-78559800D01*
X136677000Y-78370199D01*
X136660523Y-78266171D01*
X136647342Y-78182945D01*
X136588754Y-78002632D01*
X136588752Y-78002629D01*
X136588752Y-78002627D01*
X136502680Y-77833703D01*
X136431201Y-77735321D01*
X136391241Y-77680321D01*
X136257179Y-77546259D01*
X136103796Y-77434819D01*
X135934868Y-77348746D01*
X135824639Y-77312930D01*
X135766965Y-77273493D01*
X135739767Y-77209135D01*
X135751682Y-77140288D01*
X135798926Y-77088813D01*
X135824638Y-77077070D01*
X135934868Y-77041254D01*
X136103796Y-76955181D01*
X136257179Y-76843741D01*
X136391241Y-76709679D01*
X136502681Y-76556296D01*
X136588754Y-76387368D01*
X136647342Y-76207055D01*
X136663818Y-76103022D01*
X136677000Y-76019800D01*
X136677000Y-75830199D01*
X136660523Y-75726171D01*
X136647342Y-75642945D01*
X136588754Y-75462632D01*
X136588752Y-75462629D01*
X136588752Y-75462627D01*
X136502680Y-75293703D01*
X136446944Y-75216989D01*
X136391241Y-75140321D01*
X136257179Y-75006259D01*
X136103796Y-74894819D01*
X135934868Y-74808746D01*
X135824639Y-74772930D01*
X135766965Y-74733493D01*
X135739767Y-74669135D01*
X135751682Y-74600288D01*
X135798926Y-74548813D01*
X135824638Y-74537070D01*
X135934868Y-74501254D01*
X136103796Y-74415181D01*
X136257179Y-74303741D01*
X136391241Y-74169679D01*
X136502681Y-74016296D01*
X136588754Y-73847368D01*
X136647342Y-73667055D01*
X136663818Y-73563022D01*
X136677000Y-73479800D01*
X136677000Y-73290199D01*
X136660523Y-73186171D01*
X136647342Y-73102945D01*
X136588754Y-72922632D01*
X136588752Y-72922629D01*
X136588752Y-72922627D01*
X136502680Y-72753703D01*
X136484686Y-72728936D01*
X136391241Y-72600321D01*
X136257179Y-72466259D01*
X136103796Y-72354819D01*
X135934868Y-72268746D01*
X135824639Y-72232930D01*
X135766965Y-72193493D01*
X135739767Y-72129135D01*
X135751682Y-72060288D01*
X135798926Y-72008813D01*
X135824638Y-71997070D01*
X135934868Y-71961254D01*
X136103796Y-71875181D01*
X136257179Y-71763741D01*
X136391241Y-71629679D01*
X136502681Y-71476296D01*
X136588754Y-71307368D01*
X136647342Y-71127055D01*
X136660369Y-71044805D01*
X136690298Y-70981671D01*
X136749609Y-70944739D01*
X136819472Y-70945737D01*
X136870523Y-70976522D01*
X137063181Y-71169180D01*
X137096666Y-71230503D01*
X137099500Y-71256861D01*
X137099500Y-81575636D01*
X137079815Y-81642675D01*
X137063181Y-81663318D01*
X136995682Y-81730816D01*
X136934358Y-81764300D01*
X136867047Y-81760176D01*
X136665592Y-81689684D01*
X136665594Y-81689684D01*
X136468446Y-81644687D01*
X136402732Y-81629688D01*
X136402728Y-81629687D01*
X136402719Y-81629686D01*
X136134813Y-81599500D01*
X136134809Y-81599500D01*
X135865191Y-81599500D01*
X135865186Y-81599500D01*
X135597280Y-81629686D01*
X135597268Y-81629688D01*
X135334405Y-81689684D01*
X135334397Y-81689687D01*
X135079917Y-81778734D01*
X134837005Y-81895714D01*
X134608712Y-82039161D01*
X134397915Y-82207265D01*
X134207265Y-82397915D01*
X134039161Y-82608712D01*
X133895714Y-82837005D01*
X133778734Y-83079917D01*
X133689687Y-83334397D01*
X133689684Y-83334405D01*
X133629688Y-83597268D01*
X133629686Y-83597280D01*
X133599500Y-83865186D01*
X133599500Y-84134813D01*
X133629686Y-84402719D01*
X133629688Y-84402731D01*
X133689684Y-84665594D01*
X133689687Y-84665602D01*
X133778734Y-84920082D01*
X133895714Y-85162994D01*
X133895716Y-85162997D01*
X134039162Y-85391289D01*
X134207266Y-85602085D01*
X134397915Y-85792734D01*
X134608711Y-85960838D01*
X134837003Y-86104284D01*
X135079921Y-86221267D01*
X135271049Y-86288145D01*
X135334397Y-86310312D01*
X135334405Y-86310315D01*
X135334408Y-86310315D01*
X135334409Y-86310316D01*
X135597268Y-86370312D01*
X135865187Y-86400499D01*
X135865188Y-86400500D01*
X135865191Y-86400500D01*
X136134812Y-86400500D01*
X136134812Y-86400499D01*
X136402732Y-86370312D01*
X136665591Y-86310316D01*
X136867049Y-86239822D01*
X136936826Y-86236260D01*
X136995683Y-86269183D01*
X137663181Y-86936680D01*
X137696666Y-86998003D01*
X137699500Y-87024361D01*
X137699500Y-114618496D01*
X137734103Y-114792458D01*
X137734105Y-114792466D01*
X137768046Y-114874406D01*
X137768046Y-114874407D01*
X137801984Y-114956342D01*
X137801985Y-114956344D01*
X137861063Y-115044760D01*
X137861064Y-115044761D01*
X137900534Y-115103834D01*
X145613181Y-122816481D01*
X145646666Y-122877804D01*
X145649500Y-122904162D01*
X145649500Y-123076638D01*
X145629815Y-123143677D01*
X145577011Y-123189432D01*
X145507853Y-123199376D01*
X145444297Y-123170351D01*
X145437819Y-123164319D01*
X132146535Y-109873035D01*
X132146530Y-109873031D01*
X132087461Y-109833564D01*
X132087460Y-109833563D01*
X131999044Y-109774485D01*
X131999042Y-109774484D01*
X131917107Y-109740546D01*
X131917106Y-109740546D01*
X131835166Y-109706605D01*
X131835158Y-109706603D01*
X131661196Y-109672000D01*
X131661192Y-109672000D01*
X131661191Y-109672000D01*
X125714499Y-109672000D01*
X125647460Y-109652315D01*
X125601705Y-109599511D01*
X125590499Y-109548000D01*
X125590499Y-109183129D01*
X125590498Y-109183123D01*
X125590497Y-109183116D01*
X125584091Y-109123517D01*
X125533796Y-108988669D01*
X125533795Y-108988668D01*
X125533793Y-108988664D01*
X125447547Y-108873455D01*
X125447544Y-108873452D01*
X125332335Y-108787206D01*
X125332328Y-108787202D01*
X125197482Y-108736908D01*
X125197483Y-108736908D01*
X125137883Y-108730501D01*
X125137881Y-108730500D01*
X125137873Y-108730500D01*
X125137864Y-108730500D01*
X122359129Y-108730500D01*
X122359123Y-108730501D01*
X122299516Y-108736908D01*
X122164671Y-108787202D01*
X122164664Y-108787206D01*
X122049455Y-108873452D01*
X122049452Y-108873455D01*
X121963206Y-108988664D01*
X121963202Y-108988671D01*
X121912908Y-109123517D01*
X121906501Y-109183116D01*
X121906501Y-109183123D01*
X121906500Y-109183135D01*
X121906500Y-109593869D01*
X121886815Y-109660908D01*
X121834011Y-109706663D01*
X121764853Y-109716607D01*
X121701297Y-109687582D01*
X121663523Y-109628804D01*
X121659280Y-109607752D01*
X121652542Y-109547951D01*
X121652541Y-109547946D01*
X121652540Y-109547937D01*
X121585046Y-109252228D01*
X121484868Y-108965935D01*
X121353265Y-108692659D01*
X121191892Y-108435836D01*
X121002779Y-108198696D01*
X120788304Y-107984221D01*
X120551164Y-107795108D01*
X120294341Y-107633735D01*
X120294338Y-107633733D01*
X120021068Y-107502133D01*
X119734783Y-107401957D01*
X119734771Y-107401953D01*
X119506556Y-107349864D01*
X119439063Y-107334460D01*
X119439060Y-107334459D01*
X119439048Y-107334457D01*
X119137663Y-107300500D01*
X119137657Y-107300500D01*
X118834343Y-107300500D01*
X118834336Y-107300500D01*
X118532951Y-107334457D01*
X118532937Y-107334460D01*
X118237228Y-107401953D01*
X118237216Y-107401957D01*
X117950931Y-107502133D01*
X117677661Y-107633733D01*
X117420837Y-107795107D01*
X117183696Y-107984220D01*
X116969220Y-108198696D01*
X116780107Y-108435837D01*
X116618733Y-108692661D01*
X116487133Y-108965931D01*
X116386957Y-109252216D01*
X116386953Y-109252228D01*
X116319460Y-109547937D01*
X116319457Y-109547951D01*
X116285500Y-109849336D01*
X116285500Y-110152663D01*
X116319457Y-110454048D01*
X116319460Y-110454062D01*
X116386953Y-110749771D01*
X116386957Y-110749783D01*
X116487133Y-111036068D01*
X116618733Y-111309338D01*
X116618735Y-111309341D01*
X116780108Y-111566164D01*
X116969221Y-111803304D01*
X117183696Y-112017779D01*
X117420836Y-112206892D01*
X117677659Y-112368265D01*
X117950935Y-112499868D01*
X118146646Y-112568350D01*
X118237216Y-112600042D01*
X118237228Y-112600046D01*
X118532937Y-112667540D01*
X118532946Y-112667541D01*
X118532951Y-112667542D01*
X118733874Y-112690180D01*
X118834337Y-112701499D01*
X118834340Y-112701500D01*
X118834343Y-112701500D01*
X119137660Y-112701500D01*
X119137661Y-112701499D01*
X119291694Y-112684144D01*
X119439048Y-112667542D01*
X119439051Y-112667541D01*
X119439063Y-112667540D01*
X119734772Y-112600046D01*
X120021065Y-112499868D01*
X120294341Y-112368265D01*
X120551164Y-112206892D01*
X120788304Y-112017779D01*
X121002779Y-111803304D01*
X121191892Y-111566164D01*
X121353265Y-111309341D01*
X121484868Y-111036065D01*
X121585046Y-110749772D01*
X121652540Y-110454063D01*
X121659280Y-110394245D01*
X121686346Y-110329830D01*
X121743940Y-110290275D01*
X121813777Y-110288136D01*
X121873684Y-110324094D01*
X121904640Y-110386732D01*
X121906500Y-110408127D01*
X121906500Y-111961870D01*
X121906501Y-111961876D01*
X121912908Y-112021483D01*
X121963202Y-112156328D01*
X121963206Y-112156335D01*
X122049452Y-112271544D01*
X122049455Y-112271547D01*
X122164664Y-112357793D01*
X122164671Y-112357797D01*
X122209618Y-112374561D01*
X122299517Y-112408091D01*
X122359127Y-112414500D01*
X122974000Y-112414499D01*
X123041039Y-112434183D01*
X123086794Y-112486987D01*
X123098000Y-112538499D01*
X123098000Y-129930691D01*
X123078315Y-129997730D01*
X123061681Y-130018372D01*
X120700931Y-132379121D01*
X120639608Y-132412606D01*
X120569916Y-132407622D01*
X120565798Y-132406001D01*
X120489748Y-132374500D01*
X120489738Y-132374497D01*
X120364071Y-132349500D01*
X120364069Y-132349500D01*
X81624499Y-132349500D01*
X81557460Y-132329815D01*
X81511705Y-132277011D01*
X81500499Y-132225500D01*
X81500499Y-131952129D01*
X81500498Y-131952123D01*
X81500497Y-131952116D01*
X81494091Y-131892517D01*
X81443796Y-131757669D01*
X81443795Y-131757668D01*
X81443793Y-131757664D01*
X81357547Y-131642455D01*
X81357544Y-131642452D01*
X81242335Y-131556206D01*
X81242328Y-131556202D01*
X81107482Y-131505908D01*
X81107483Y-131505908D01*
X81047883Y-131499501D01*
X81047881Y-131499500D01*
X81047873Y-131499500D01*
X81047864Y-131499500D01*
X77952129Y-131499500D01*
X77952123Y-131499501D01*
X77892516Y-131505908D01*
X77757671Y-131556202D01*
X77757664Y-131556206D01*
X77642455Y-131642452D01*
X77642452Y-131642455D01*
X77556206Y-131757664D01*
X77556202Y-131757671D01*
X77505908Y-131892517D01*
X77499501Y-131952116D01*
X77499501Y-131952123D01*
X77499500Y-131952135D01*
X77499500Y-134047870D01*
X77499501Y-134047876D01*
X77505908Y-134107483D01*
X77556202Y-134242328D01*
X77556206Y-134242335D01*
X77642452Y-134357544D01*
X77642455Y-134357547D01*
X77757664Y-134443793D01*
X77757671Y-134443797D01*
X77892517Y-134494091D01*
X77892516Y-134494091D01*
X77899444Y-134494835D01*
X77952127Y-134500500D01*
X81047872Y-134500499D01*
X81107483Y-134494091D01*
X81242331Y-134443796D01*
X81357546Y-134357546D01*
X81443796Y-134242331D01*
X81494091Y-134107483D01*
X81500500Y-134047873D01*
X81500500Y-133774500D01*
X81520185Y-133707461D01*
X81572989Y-133661706D01*
X81624500Y-133650500D01*
X110715192Y-133650500D01*
X110782231Y-133670185D01*
X110827986Y-133722989D01*
X110837930Y-133792147D01*
X110808905Y-133855703D01*
X110802873Y-133862181D01*
X106415710Y-138249342D01*
X106354387Y-138282827D01*
X106306245Y-138282315D01*
X106306055Y-138283516D01*
X106201111Y-138266894D01*
X106091287Y-138249500D01*
X105878713Y-138249500D01*
X105830042Y-138257208D01*
X105668760Y-138282753D01*
X105466585Y-138348444D01*
X105277179Y-138444951D01*
X105105215Y-138569889D01*
X104991673Y-138683431D01*
X104930350Y-138716915D01*
X104860658Y-138711931D01*
X104804725Y-138670059D01*
X104787810Y-138639082D01*
X104738797Y-138507671D01*
X104738793Y-138507664D01*
X104652547Y-138392455D01*
X104652544Y-138392452D01*
X104537335Y-138306206D01*
X104537328Y-138306202D01*
X104402482Y-138255908D01*
X104402483Y-138255908D01*
X104342883Y-138249501D01*
X104342881Y-138249500D01*
X104342873Y-138249500D01*
X104342864Y-138249500D01*
X102547129Y-138249500D01*
X102547123Y-138249501D01*
X102487516Y-138255908D01*
X102352671Y-138306202D01*
X102352664Y-138306206D01*
X102237455Y-138392452D01*
X102237452Y-138392455D01*
X102151206Y-138507664D01*
X102151202Y-138507671D01*
X102100908Y-138642517D01*
X102094501Y-138702116D01*
X102094500Y-138702135D01*
X102094500Y-140497870D01*
X102094501Y-140497876D01*
X102100908Y-140557483D01*
X102151202Y-140692328D01*
X102151206Y-140692335D01*
X102237452Y-140807544D01*
X102237455Y-140807547D01*
X102352664Y-140893793D01*
X102352671Y-140893797D01*
X102487517Y-140944091D01*
X102487516Y-140944091D01*
X102494444Y-140944835D01*
X102547127Y-140950500D01*
X104342872Y-140950499D01*
X104402483Y-140944091D01*
X104537331Y-140893796D01*
X104652546Y-140807546D01*
X104738796Y-140692331D01*
X104787810Y-140560916D01*
X104829681Y-140504984D01*
X104895145Y-140480566D01*
X104963418Y-140495417D01*
X104991673Y-140516569D01*
X105105213Y-140630109D01*
X105277179Y-140755048D01*
X105277181Y-140755049D01*
X105277184Y-140755051D01*
X105466588Y-140851557D01*
X105668757Y-140917246D01*
X105878713Y-140950500D01*
X105878714Y-140950500D01*
X106091286Y-140950500D01*
X106091287Y-140950500D01*
X106301243Y-140917246D01*
X106503412Y-140851557D01*
X106692816Y-140755051D01*
X106779138Y-140692335D01*
X106864786Y-140630109D01*
X106864788Y-140630106D01*
X106864792Y-140630104D01*
X107015104Y-140479792D01*
X107015106Y-140479788D01*
X107015109Y-140479786D01*
X107140048Y-140307820D01*
X107140047Y-140307820D01*
X107140051Y-140307816D01*
X107144514Y-140299054D01*
X107192488Y-140248259D01*
X107260308Y-140231463D01*
X107326444Y-140253999D01*
X107365486Y-140299056D01*
X107369951Y-140307820D01*
X107494890Y-140479786D01*
X107645213Y-140630109D01*
X107817179Y-140755048D01*
X107817181Y-140755049D01*
X107817184Y-140755051D01*
X108006588Y-140851557D01*
X108208757Y-140917246D01*
X108418713Y-140950500D01*
X108418714Y-140950500D01*
X108631286Y-140950500D01*
X108631287Y-140950500D01*
X108841243Y-140917246D01*
X108932679Y-140887535D01*
X109002517Y-140885541D01*
X109058676Y-140917786D01*
X120746163Y-152605273D01*
X120746166Y-152605275D01*
X120746168Y-152605277D01*
X120852710Y-152676465D01*
X120971093Y-152725501D01*
X120971097Y-152725501D01*
X120971098Y-152725502D01*
X121096765Y-152750500D01*
X121096768Y-152750500D01*
X130731839Y-152750500D01*
X130816383Y-152733682D01*
X130857512Y-152725501D01*
X130975895Y-152676465D01*
X131082437Y-152605277D01*
X149505277Y-134182436D01*
X149576465Y-134075894D01*
X149607694Y-134000500D01*
X149625501Y-133957511D01*
X149644464Y-133862181D01*
X149650500Y-133831838D01*
X149650500Y-49312526D01*
X149625502Y-49186858D01*
X149625500Y-49186852D01*
X149605189Y-49137819D01*
X149605187Y-49137814D01*
X149576468Y-49068476D01*
X149576462Y-49068466D01*
X149505278Y-48961930D01*
X149505272Y-48961923D01*
X145552212Y-45008864D01*
X145518727Y-44947541D01*
X145523711Y-44877849D01*
X145562578Y-44824239D01*
X145602085Y-44792734D01*
X145792734Y-44602085D01*
X145960838Y-44391289D01*
X146104284Y-44162997D01*
X146221267Y-43920079D01*
X146310316Y-43665591D01*
X146370312Y-43402732D01*
X146400500Y-43134809D01*
X146400500Y-42865191D01*
X146370312Y-42597268D01*
X146310316Y-42334409D01*
X146308319Y-42328703D01*
X146254648Y-42175319D01*
X146221267Y-42079921D01*
X146104284Y-41837003D01*
X145960838Y-41608711D01*
X145792734Y-41397915D01*
X145602085Y-41207266D01*
X145391289Y-41039162D01*
X145162997Y-40895716D01*
X145162994Y-40895714D01*
X144920082Y-40778734D01*
X144665602Y-40689687D01*
X144665594Y-40689684D01*
X144468446Y-40644687D01*
X144402732Y-40629688D01*
X144402728Y-40629687D01*
X144402719Y-40629686D01*
X144134813Y-40599500D01*
X144134809Y-40599500D01*
X143865191Y-40599500D01*
X143865186Y-40599500D01*
X143597280Y-40629686D01*
X143597268Y-40629688D01*
X143334405Y-40689684D01*
X143334397Y-40689687D01*
X143079917Y-40778734D01*
X142837005Y-40895714D01*
X142608712Y-41039161D01*
X142397915Y-41207265D01*
X142207265Y-41397915D01*
X142039161Y-41608712D01*
X141895714Y-41837005D01*
X141778734Y-42079917D01*
X141689687Y-42334397D01*
X141689684Y-42334405D01*
X141629688Y-42597268D01*
X141629686Y-42597280D01*
X141599500Y-42865186D01*
X141599500Y-43134813D01*
X141629686Y-43402719D01*
X141629688Y-43402731D01*
X141689684Y-43665594D01*
X141689687Y-43665602D01*
X141778734Y-43920082D01*
X141895714Y-44162994D01*
X142039163Y-44391291D01*
X142039164Y-44391293D01*
X142124410Y-44498188D01*
X142150819Y-44562874D01*
X142138062Y-44631570D01*
X142090192Y-44682463D01*
X142027463Y-44699500D01*
X138238307Y-44699500D01*
X138171268Y-44679815D01*
X138150626Y-44663181D01*
X136695730Y-43208284D01*
X136662245Y-43146961D01*
X136660938Y-43101208D01*
X136669985Y-43044086D01*
X136677000Y-42999800D01*
X136677000Y-42810199D01*
X136660523Y-42706171D01*
X136647342Y-42622945D01*
X136588754Y-42442632D01*
X136588752Y-42442629D01*
X136588752Y-42442627D01*
X136533610Y-42334405D01*
X136502681Y-42273704D01*
X136391241Y-42120321D01*
X136257179Y-41986259D01*
X136103796Y-41874819D01*
X135934868Y-41788746D01*
X135824639Y-41752930D01*
X135766965Y-41713493D01*
X135739767Y-41649135D01*
X135751682Y-41580288D01*
X135798926Y-41528813D01*
X135824638Y-41517070D01*
X135934868Y-41481254D01*
X136103796Y-41395181D01*
X136257179Y-41283741D01*
X136391241Y-41149679D01*
X136502681Y-40996296D01*
X136588754Y-40827368D01*
X136647342Y-40647055D01*
X136663818Y-40543022D01*
X136677000Y-40459800D01*
X136677000Y-40270199D01*
X136660523Y-40166171D01*
X136647342Y-40082945D01*
X136588754Y-39902632D01*
X136588752Y-39902629D01*
X136588752Y-39902627D01*
X136502680Y-39733703D01*
X136431201Y-39635321D01*
X136391241Y-39580321D01*
X136257179Y-39446259D01*
X136103796Y-39334819D01*
X135934868Y-39248746D01*
X135824639Y-39212930D01*
X135766965Y-39173493D01*
X135739767Y-39109135D01*
X135751682Y-39040288D01*
X135798926Y-38988813D01*
X135824638Y-38977070D01*
X135934868Y-38941254D01*
X136103796Y-38855181D01*
X136257179Y-38743741D01*
X136391241Y-38609679D01*
X136502681Y-38456296D01*
X136588754Y-38287368D01*
X136647342Y-38107055D01*
X136663818Y-38003022D01*
X136677000Y-37919800D01*
X136677000Y-37730199D01*
X136660523Y-37626171D01*
X136647342Y-37542945D01*
X136588754Y-37362632D01*
X136588752Y-37362629D01*
X136588752Y-37362627D01*
X136502680Y-37193703D01*
X136391241Y-37040321D01*
X136257179Y-36906259D01*
X136103796Y-36794819D01*
X135934868Y-36708746D01*
X135824639Y-36672930D01*
X135766965Y-36633493D01*
X135739767Y-36569135D01*
X135751682Y-36500288D01*
X135798926Y-36448813D01*
X135824638Y-36437070D01*
X135934868Y-36401254D01*
X136005656Y-36365186D01*
X141599500Y-36365186D01*
X141599500Y-36634813D01*
X141629686Y-36902719D01*
X141629688Y-36902731D01*
X141689684Y-37165594D01*
X141689687Y-37165602D01*
X141778734Y-37420082D01*
X141895714Y-37662994D01*
X141895716Y-37662997D01*
X142039162Y-37891289D01*
X142207266Y-38102085D01*
X142397915Y-38292734D01*
X142608711Y-38460838D01*
X142837003Y-38604284D01*
X143079921Y-38721267D01*
X143271049Y-38788145D01*
X143334397Y-38810312D01*
X143334405Y-38810315D01*
X143334408Y-38810315D01*
X143334409Y-38810316D01*
X143597268Y-38870312D01*
X143865187Y-38900499D01*
X143865188Y-38900500D01*
X143865191Y-38900500D01*
X144134812Y-38900500D01*
X144134812Y-38900499D01*
X144402732Y-38870312D01*
X144665591Y-38810316D01*
X144920079Y-38721267D01*
X145162997Y-38604284D01*
X145391289Y-38460838D01*
X145602085Y-38292734D01*
X145792734Y-38102085D01*
X145960838Y-37891289D01*
X146104284Y-37662997D01*
X146221267Y-37420079D01*
X146310316Y-37165591D01*
X146370312Y-36902732D01*
X146400500Y-36634809D01*
X146400500Y-36365191D01*
X146370312Y-36097268D01*
X146310316Y-35834409D01*
X146221267Y-35579921D01*
X146104284Y-35337003D01*
X145960838Y-35108711D01*
X145792734Y-34897915D01*
X145602085Y-34707266D01*
X145391289Y-34539162D01*
X145162997Y-34395716D01*
X145162994Y-34395714D01*
X144920082Y-34278734D01*
X144665602Y-34189687D01*
X144665594Y-34189684D01*
X144468446Y-34144687D01*
X144402732Y-34129688D01*
X144402728Y-34129687D01*
X144402719Y-34129686D01*
X144134813Y-34099500D01*
X144134809Y-34099500D01*
X143865191Y-34099500D01*
X143865186Y-34099500D01*
X143597280Y-34129686D01*
X143597268Y-34129688D01*
X143334405Y-34189684D01*
X143334397Y-34189687D01*
X143079917Y-34278734D01*
X142837005Y-34395714D01*
X142608712Y-34539161D01*
X142397915Y-34707265D01*
X142207265Y-34897915D01*
X142039161Y-35108712D01*
X141895714Y-35337005D01*
X141778734Y-35579917D01*
X141689687Y-35834397D01*
X141689684Y-35834405D01*
X141629688Y-36097268D01*
X141629686Y-36097280D01*
X141599500Y-36365186D01*
X136005656Y-36365186D01*
X136103796Y-36315181D01*
X136257179Y-36203741D01*
X136391241Y-36069679D01*
X136502681Y-35916296D01*
X136588754Y-35747368D01*
X136647342Y-35567055D01*
X136663818Y-35463022D01*
X136677000Y-35379800D01*
X136677000Y-35190199D01*
X136660523Y-35086171D01*
X136647342Y-35002945D01*
X136588754Y-34822632D01*
X136588752Y-34822629D01*
X136588752Y-34822627D01*
X136529972Y-34707266D01*
X136502681Y-34653704D01*
X136391241Y-34500321D01*
X136257179Y-34366259D01*
X136103796Y-34254819D01*
X135934868Y-34168746D01*
X135824639Y-34132930D01*
X135766965Y-34093493D01*
X135739767Y-34029135D01*
X135751682Y-33960288D01*
X135798926Y-33908813D01*
X135824638Y-33897070D01*
X135934868Y-33861254D01*
X136103796Y-33775181D01*
X136257179Y-33663741D01*
X136391241Y-33529679D01*
X136502681Y-33376296D01*
X136588754Y-33207368D01*
X136647342Y-33027055D01*
X136663818Y-32923022D01*
X136677000Y-32839800D01*
X136677000Y-32650199D01*
X136660523Y-32546171D01*
X136647342Y-32462945D01*
X136588754Y-32282632D01*
X136588752Y-32282629D01*
X136588752Y-32282627D01*
X136502680Y-32113703D01*
X136431201Y-32015321D01*
X136391241Y-31960321D01*
X136257179Y-31826259D01*
X136103796Y-31714819D01*
X136042812Y-31683746D01*
X135934872Y-31628747D01*
X135876405Y-31609750D01*
X135754555Y-31570158D01*
X135754551Y-31570157D01*
X135754550Y-31570157D01*
X135567300Y-31540500D01*
X135567296Y-31540500D01*
X135377704Y-31540500D01*
X135377700Y-31540500D01*
X135190449Y-31570157D01*
X135190446Y-31570157D01*
X135190445Y-31570158D01*
X135131982Y-31589153D01*
X135010127Y-31628747D01*
X134841203Y-31714819D01*
X134687819Y-31826260D01*
X134553760Y-31960319D01*
X134442319Y-32113703D01*
X134356247Y-32282627D01*
X134297657Y-32462949D01*
X134268000Y-32650199D01*
X134268000Y-32839800D01*
X134297657Y-33027050D01*
X134297658Y-33027055D01*
X134315529Y-33082055D01*
X134356247Y-33207372D01*
X134442319Y-33376296D01*
X134553759Y-33529679D01*
X134687821Y-33663741D01*
X134841204Y-33775181D01*
X134921015Y-33815846D01*
X135010127Y-33861252D01*
X135010129Y-33861252D01*
X135010132Y-33861254D01*
X135120360Y-33897069D01*
X135178034Y-33936507D01*
X135205232Y-34000866D01*
X135193317Y-34069712D01*
X135146073Y-34121188D01*
X135120361Y-34132929D01*
X135078338Y-34146583D01*
X135010127Y-34168747D01*
X134841203Y-34254819D01*
X134687819Y-34366260D01*
X134553760Y-34500319D01*
X134442319Y-34653703D01*
X134356247Y-34822627D01*
X134297657Y-35002949D01*
X134268000Y-35190199D01*
X134268000Y-35379800D01*
X134297657Y-35567050D01*
X134297658Y-35567055D01*
X134315529Y-35622055D01*
X134356247Y-35747372D01*
X134442319Y-35916296D01*
X134553759Y-36069679D01*
X134687821Y-36203741D01*
X134841204Y-36315181D01*
X134921015Y-36355846D01*
X135010127Y-36401252D01*
X135010129Y-36401252D01*
X135010132Y-36401254D01*
X135120360Y-36437069D01*
X135178034Y-36476507D01*
X135205232Y-36540866D01*
X135193317Y-36609712D01*
X135146073Y-36661188D01*
X135120361Y-36672929D01*
X135078338Y-36686583D01*
X135010127Y-36708747D01*
X134841203Y-36794819D01*
X134687819Y-36906260D01*
X134553760Y-37040319D01*
X134442319Y-37193703D01*
X134356247Y-37362627D01*
X134297657Y-37542949D01*
X134268000Y-37730199D01*
X134268000Y-37919800D01*
X134296871Y-38102085D01*
X134297658Y-38107055D01*
X134315529Y-38162055D01*
X134356247Y-38287372D01*
X134442319Y-38456296D01*
X134553759Y-38609679D01*
X134687821Y-38743741D01*
X134841204Y-38855181D01*
X134921015Y-38895846D01*
X135010127Y-38941252D01*
X135010129Y-38941252D01*
X135010132Y-38941254D01*
X135120360Y-38977069D01*
X135178034Y-39016507D01*
X135205232Y-39080866D01*
X135193317Y-39149712D01*
X135146073Y-39201188D01*
X135120361Y-39212929D01*
X135078338Y-39226583D01*
X135010127Y-39248747D01*
X134841203Y-39334819D01*
X134687819Y-39446260D01*
X134553760Y-39580319D01*
X134442319Y-39733703D01*
X134356247Y-39902627D01*
X134297657Y-40082949D01*
X134268000Y-40270199D01*
X134268000Y-40459800D01*
X134290126Y-40599500D01*
X134297658Y-40647055D01*
X134315529Y-40702055D01*
X134356247Y-40827372D01*
X134442319Y-40996296D01*
X134553759Y-41149679D01*
X134687821Y-41283741D01*
X134841204Y-41395181D01*
X134921015Y-41435846D01*
X135010127Y-41481252D01*
X135010129Y-41481252D01*
X135010132Y-41481254D01*
X135120360Y-41517069D01*
X135178034Y-41556507D01*
X135205232Y-41620866D01*
X135193317Y-41689712D01*
X135146073Y-41741188D01*
X135120361Y-41752929D01*
X135078338Y-41766583D01*
X135010127Y-41788747D01*
X134841203Y-41874819D01*
X134687819Y-41986260D01*
X134553760Y-42120319D01*
X134442319Y-42273703D01*
X134356247Y-42442627D01*
X134297657Y-42622949D01*
X134268000Y-42810199D01*
X134268000Y-42999800D01*
X134297657Y-43187050D01*
X134297658Y-43187055D01*
X134315529Y-43242055D01*
X134356247Y-43367372D01*
X134442319Y-43536296D01*
X134553759Y-43689679D01*
X134687821Y-43823741D01*
X134841204Y-43935181D01*
X134921015Y-43975846D01*
X135010127Y-44021252D01*
X135010129Y-44021252D01*
X135010132Y-44021254D01*
X135120360Y-44057069D01*
X135178034Y-44096507D01*
X135205232Y-44160866D01*
X135193317Y-44229712D01*
X135146073Y-44281188D01*
X135120361Y-44292929D01*
X135078338Y-44306583D01*
X135010127Y-44328747D01*
X134841203Y-44414819D01*
X134687819Y-44526260D01*
X134553760Y-44660319D01*
X134442319Y-44813703D01*
X134356247Y-44982627D01*
X134297657Y-45162949D01*
X134268000Y-45350199D01*
X134268000Y-45539800D01*
X134297657Y-45727050D01*
X134297658Y-45727055D01*
X134315529Y-45782055D01*
X134356247Y-45907372D01*
X134403699Y-46000500D01*
X134442319Y-46076296D01*
X134553759Y-46229679D01*
X134687821Y-46363741D01*
X134841204Y-46475181D01*
X134921015Y-46515846D01*
X135010127Y-46561252D01*
X135010129Y-46561252D01*
X135010132Y-46561254D01*
X135120360Y-46597069D01*
X135178034Y-46636507D01*
X135205232Y-46700866D01*
X135193317Y-46769712D01*
X135146073Y-46821188D01*
X135120361Y-46832929D01*
X135078338Y-46846583D01*
X135010127Y-46868747D01*
X134841203Y-46954819D01*
X134687819Y-47066260D01*
X134553760Y-47200319D01*
X134442319Y-47353703D01*
X134356247Y-47522627D01*
X134297657Y-47702949D01*
X134268000Y-47890199D01*
X134268000Y-48079800D01*
X134297657Y-48267050D01*
X134297658Y-48267055D01*
X134315529Y-48322055D01*
X134356247Y-48447372D01*
X134423180Y-48578734D01*
X134442319Y-48616296D01*
X134553759Y-48769679D01*
X134687821Y-48903741D01*
X134841204Y-49015181D01*
X134921015Y-49055846D01*
X135010127Y-49101252D01*
X135010129Y-49101252D01*
X135010132Y-49101254D01*
X135120360Y-49137069D01*
X135178034Y-49176507D01*
X135205232Y-49240866D01*
X135193317Y-49309712D01*
X135146073Y-49361188D01*
X135120361Y-49372929D01*
X135078338Y-49386583D01*
X135010127Y-49408747D01*
X134841203Y-49494819D01*
X134687819Y-49606260D01*
X134553760Y-49740319D01*
X134442319Y-49893703D01*
X134356247Y-50062627D01*
X134297657Y-50242949D01*
X134268000Y-50430199D01*
X134268000Y-50619800D01*
X134297657Y-50807049D01*
X134297658Y-50807055D01*
X134315529Y-50862055D01*
X134356247Y-50987372D01*
X134442319Y-51156296D01*
X134553759Y-51309679D01*
X134687821Y-51443741D01*
X134841204Y-51555181D01*
X134921015Y-51595846D01*
X135010127Y-51641252D01*
X135010129Y-51641252D01*
X135010132Y-51641254D01*
X135120360Y-51677069D01*
X135178034Y-51716507D01*
X135205232Y-51780866D01*
X135193317Y-51849712D01*
X135146073Y-51901188D01*
X135120361Y-51912929D01*
X135078338Y-51926583D01*
X135010127Y-51948747D01*
X134841203Y-52034819D01*
X134687819Y-52146260D01*
X134553760Y-52280319D01*
X134442319Y-52433703D01*
X134356247Y-52602627D01*
X134338375Y-52657632D01*
X134304557Y-52761714D01*
X134297657Y-52782949D01*
X134268000Y-52970199D01*
X134268000Y-53159800D01*
X134295896Y-53335930D01*
X134297658Y-53347055D01*
X134315529Y-53402055D01*
X134356247Y-53527372D01*
X134428638Y-53669445D01*
X134442319Y-53696296D01*
X134553759Y-53849679D01*
X134687821Y-53983741D01*
X134841204Y-54095181D01*
X134921015Y-54135846D01*
X135010127Y-54181252D01*
X135010129Y-54181252D01*
X135010132Y-54181254D01*
X135120360Y-54217069D01*
X135178034Y-54256507D01*
X135205232Y-54320866D01*
X135193317Y-54389712D01*
X135146073Y-54441188D01*
X135120361Y-54452929D01*
X135078338Y-54466583D01*
X135010127Y-54488747D01*
X134841203Y-54574819D01*
X134687819Y-54686260D01*
X134553760Y-54820319D01*
X134442319Y-54973703D01*
X134356247Y-55142627D01*
X134297657Y-55322949D01*
X134268000Y-55510199D01*
X134268000Y-55699795D01*
X134284061Y-55801206D01*
X134275105Y-55870500D01*
X134249268Y-55908284D01*
X111988681Y-78168872D01*
X111927358Y-78202357D01*
X111857666Y-78197373D01*
X111801733Y-78155501D01*
X111777316Y-78090037D01*
X111777000Y-78081191D01*
X111777000Y-66754928D01*
X111752002Y-66629261D01*
X111752001Y-66629260D01*
X111752001Y-66629256D01*
X111702965Y-66510873D01*
X111702962Y-66510868D01*
X111697906Y-66503301D01*
X111697904Y-66503299D01*
X111641308Y-66418596D01*
X111631777Y-66404331D01*
X111631775Y-66404329D01*
X111631773Y-66404326D01*
X111631772Y-66404325D01*
X111295730Y-66068284D01*
X111262245Y-66006961D01*
X111260938Y-65961208D01*
X111271995Y-65891399D01*
X111277000Y-65859800D01*
X111277000Y-65670199D01*
X111260523Y-65566171D01*
X111247342Y-65482945D01*
X111188754Y-65302632D01*
X111188752Y-65302629D01*
X111188752Y-65302627D01*
X111127198Y-65181822D01*
X111102681Y-65133704D01*
X110991241Y-64980321D01*
X110857179Y-64846259D01*
X110703796Y-64734819D01*
X110534868Y-64648746D01*
X110424639Y-64612930D01*
X110366965Y-64573493D01*
X110339767Y-64509135D01*
X110351682Y-64440288D01*
X110398926Y-64388813D01*
X110424638Y-64377070D01*
X110534868Y-64341254D01*
X110703796Y-64255181D01*
X110857179Y-64143741D01*
X110991241Y-64009679D01*
X111102681Y-63856296D01*
X111188754Y-63687368D01*
X111247342Y-63507055D01*
X111263818Y-63403022D01*
X111277000Y-63319800D01*
X111277000Y-63130199D01*
X111260523Y-63026171D01*
X111247342Y-62942945D01*
X111188754Y-62762632D01*
X111188752Y-62762629D01*
X111188752Y-62762627D01*
X111127198Y-62641822D01*
X111102681Y-62593704D01*
X110991241Y-62440321D01*
X110857179Y-62306259D01*
X110703796Y-62194819D01*
X110534868Y-62108746D01*
X110424639Y-62072930D01*
X110366965Y-62033493D01*
X110339767Y-61969135D01*
X110351682Y-61900288D01*
X110398926Y-61848813D01*
X110424638Y-61837070D01*
X110534868Y-61801254D01*
X110703796Y-61715181D01*
X110857179Y-61603741D01*
X110991241Y-61469679D01*
X111102681Y-61316296D01*
X111188754Y-61147368D01*
X111247342Y-60967055D01*
X111263818Y-60863022D01*
X111277000Y-60779800D01*
X111277000Y-60590199D01*
X111260523Y-60486171D01*
X111247342Y-60402945D01*
X111188754Y-60222632D01*
X111188752Y-60222629D01*
X111188752Y-60222627D01*
X111102680Y-60053703D01*
X111031201Y-59955321D01*
X110991241Y-59900321D01*
X110857179Y-59766259D01*
X110703796Y-59654819D01*
X110534868Y-59568746D01*
X110424639Y-59532930D01*
X110366965Y-59493493D01*
X110339767Y-59429135D01*
X110351682Y-59360288D01*
X110398926Y-59308813D01*
X110424638Y-59297070D01*
X110534868Y-59261254D01*
X110703796Y-59175181D01*
X110857179Y-59063741D01*
X110991241Y-58929679D01*
X111102681Y-58776296D01*
X111188754Y-58607368D01*
X111247342Y-58427055D01*
X111263818Y-58323022D01*
X111277000Y-58239800D01*
X111277000Y-58050199D01*
X111259377Y-57938936D01*
X111247342Y-57862945D01*
X111188754Y-57682632D01*
X111188752Y-57682629D01*
X111188752Y-57682627D01*
X111102680Y-57513703D01*
X111084686Y-57488936D01*
X110991241Y-57360321D01*
X110857179Y-57226259D01*
X110703796Y-57114819D01*
X110534868Y-57028746D01*
X110424639Y-56992930D01*
X110366965Y-56953493D01*
X110339767Y-56889135D01*
X110351682Y-56820288D01*
X110398926Y-56768813D01*
X110424638Y-56757070D01*
X110534868Y-56721254D01*
X110703796Y-56635181D01*
X110857179Y-56523741D01*
X110991241Y-56389679D01*
X111102681Y-56236296D01*
X111188754Y-56067368D01*
X111247342Y-55887055D01*
X111263818Y-55783022D01*
X111277000Y-55699800D01*
X111277000Y-55510199D01*
X111256897Y-55383273D01*
X111247342Y-55322945D01*
X111188754Y-55142632D01*
X111188752Y-55142629D01*
X111188752Y-55142627D01*
X111123849Y-55015249D01*
X111102681Y-54973704D01*
X110991241Y-54820321D01*
X110857179Y-54686259D01*
X110703796Y-54574819D01*
X110534868Y-54488746D01*
X110424639Y-54452930D01*
X110366965Y-54413493D01*
X110339767Y-54349135D01*
X110351682Y-54280288D01*
X110398926Y-54228813D01*
X110424638Y-54217070D01*
X110534868Y-54181254D01*
X110703796Y-54095181D01*
X110857179Y-53983741D01*
X110991241Y-53849679D01*
X111102681Y-53696296D01*
X111188754Y-53527368D01*
X111247342Y-53347055D01*
X111267858Y-53217519D01*
X111277000Y-53159800D01*
X111277000Y-52970199D01*
X111256896Y-52843271D01*
X111247342Y-52782945D01*
X111188754Y-52602632D01*
X111188752Y-52602629D01*
X111188752Y-52602627D01*
X111106843Y-52441873D01*
X111102681Y-52433704D01*
X110991241Y-52280321D01*
X110857179Y-52146259D01*
X110703796Y-52034819D01*
X110534868Y-51948746D01*
X110424639Y-51912930D01*
X110366965Y-51873493D01*
X110339767Y-51809135D01*
X110351682Y-51740288D01*
X110398926Y-51688813D01*
X110424638Y-51677070D01*
X110534868Y-51641254D01*
X110703796Y-51555181D01*
X110857179Y-51443741D01*
X110991241Y-51309679D01*
X111102681Y-51156296D01*
X111188754Y-50987368D01*
X111247342Y-50807055D01*
X111263818Y-50703022D01*
X111277000Y-50619800D01*
X111277000Y-50430199D01*
X111260523Y-50326171D01*
X111247342Y-50242945D01*
X111188754Y-50062632D01*
X111188752Y-50062629D01*
X111188752Y-50062627D01*
X111102680Y-49893703D01*
X111031201Y-49795321D01*
X110991241Y-49740321D01*
X110857179Y-49606259D01*
X110703796Y-49494819D01*
X110534868Y-49408746D01*
X110424639Y-49372930D01*
X110366965Y-49333493D01*
X110339767Y-49269135D01*
X110351682Y-49200288D01*
X110398926Y-49148813D01*
X110424638Y-49137070D01*
X110534868Y-49101254D01*
X110703796Y-49015181D01*
X110857179Y-48903741D01*
X110991241Y-48769679D01*
X111102681Y-48616296D01*
X111188754Y-48447368D01*
X111247342Y-48267055D01*
X111263818Y-48163022D01*
X111277000Y-48079800D01*
X111277000Y-47890199D01*
X111260523Y-47786171D01*
X111247342Y-47702945D01*
X111188754Y-47522632D01*
X111188752Y-47522629D01*
X111188752Y-47522627D01*
X111102680Y-47353703D01*
X111031201Y-47255321D01*
X110991241Y-47200321D01*
X110857179Y-47066259D01*
X110703796Y-46954819D01*
X110534868Y-46868746D01*
X110424639Y-46832930D01*
X110366965Y-46793493D01*
X110339767Y-46729135D01*
X110351682Y-46660288D01*
X110398926Y-46608813D01*
X110424638Y-46597070D01*
X110534868Y-46561254D01*
X110703796Y-46475181D01*
X110857179Y-46363741D01*
X110991241Y-46229679D01*
X111102681Y-46076296D01*
X111188754Y-45907368D01*
X111247342Y-45727055D01*
X111263818Y-45623022D01*
X111277000Y-45539800D01*
X111277000Y-45350199D01*
X111256896Y-45223271D01*
X111247342Y-45162945D01*
X111188754Y-44982632D01*
X111188752Y-44982629D01*
X111188752Y-44982627D01*
X111102680Y-44813703D01*
X111031201Y-44715321D01*
X110991241Y-44660321D01*
X110857179Y-44526259D01*
X110703796Y-44414819D01*
X110534868Y-44328746D01*
X110424639Y-44292930D01*
X110366965Y-44253493D01*
X110339767Y-44189135D01*
X110351682Y-44120288D01*
X110398926Y-44068813D01*
X110424638Y-44057070D01*
X110534868Y-44021254D01*
X110703796Y-43935181D01*
X110857179Y-43823741D01*
X110991241Y-43689679D01*
X111102681Y-43536296D01*
X111188754Y-43367368D01*
X111247342Y-43187055D01*
X111263818Y-43083022D01*
X111277000Y-42999800D01*
X111277000Y-42810199D01*
X111260523Y-42706171D01*
X111247342Y-42622945D01*
X111188754Y-42442632D01*
X111188752Y-42442629D01*
X111188752Y-42442627D01*
X111133610Y-42334405D01*
X111102681Y-42273704D01*
X110991241Y-42120321D01*
X110857179Y-41986259D01*
X110703796Y-41874819D01*
X110534868Y-41788746D01*
X110424639Y-41752930D01*
X110366965Y-41713493D01*
X110339767Y-41649135D01*
X110351682Y-41580288D01*
X110398926Y-41528813D01*
X110424638Y-41517070D01*
X110534868Y-41481254D01*
X110703796Y-41395181D01*
X110857179Y-41283741D01*
X110991241Y-41149679D01*
X111102681Y-40996296D01*
X111188754Y-40827368D01*
X111247342Y-40647055D01*
X111263818Y-40543022D01*
X111277000Y-40459800D01*
X111277000Y-40270199D01*
X111260523Y-40166171D01*
X111247342Y-40082945D01*
X111188754Y-39902632D01*
X111188752Y-39902629D01*
X111188752Y-39902627D01*
X111102680Y-39733703D01*
X111031201Y-39635321D01*
X110991241Y-39580321D01*
X110857179Y-39446259D01*
X110703796Y-39334819D01*
X110534868Y-39248746D01*
X110424639Y-39212930D01*
X110366965Y-39173493D01*
X110339767Y-39109135D01*
X110351682Y-39040288D01*
X110398926Y-38988813D01*
X110424638Y-38977070D01*
X110534868Y-38941254D01*
X110703796Y-38855181D01*
X110857179Y-38743741D01*
X110991241Y-38609679D01*
X111102681Y-38456296D01*
X111188754Y-38287368D01*
X111247342Y-38107055D01*
X111263818Y-38003022D01*
X111277000Y-37919800D01*
X111277000Y-37730199D01*
X111260523Y-37626171D01*
X111247342Y-37542945D01*
X111188754Y-37362632D01*
X111188752Y-37362629D01*
X111188752Y-37362627D01*
X111102680Y-37193703D01*
X110991241Y-37040321D01*
X110857179Y-36906259D01*
X110703796Y-36794819D01*
X110534868Y-36708746D01*
X110424639Y-36672930D01*
X110366965Y-36633493D01*
X110339767Y-36569135D01*
X110351682Y-36500288D01*
X110398926Y-36448813D01*
X110424638Y-36437070D01*
X110534868Y-36401254D01*
X110703796Y-36315181D01*
X110857179Y-36203741D01*
X110991241Y-36069679D01*
X111102681Y-35916296D01*
X111188754Y-35747368D01*
X111247342Y-35567055D01*
X111263818Y-35463022D01*
X111277000Y-35379800D01*
X111277000Y-35190199D01*
X111260523Y-35086171D01*
X111247342Y-35002945D01*
X111188754Y-34822632D01*
X111188752Y-34822629D01*
X111188752Y-34822627D01*
X111129972Y-34707266D01*
X111102681Y-34653704D01*
X110991241Y-34500321D01*
X110857179Y-34366259D01*
X110703796Y-34254819D01*
X110534868Y-34168746D01*
X110424639Y-34132930D01*
X110366965Y-34093493D01*
X110339767Y-34029135D01*
X110351682Y-33960288D01*
X110398926Y-33908813D01*
X110424638Y-33897070D01*
X110534868Y-33861254D01*
X110703796Y-33775181D01*
X110857179Y-33663741D01*
X110991241Y-33529679D01*
X111102681Y-33376296D01*
X111188754Y-33207368D01*
X111247342Y-33027055D01*
X111263818Y-32923022D01*
X111277000Y-32839800D01*
X111277000Y-32650199D01*
X111260523Y-32546171D01*
X111247342Y-32462945D01*
X111188754Y-32282632D01*
X111188752Y-32282629D01*
X111188752Y-32282627D01*
X111102680Y-32113703D01*
X111031201Y-32015321D01*
X110991241Y-31960321D01*
X110857179Y-31826259D01*
X110703796Y-31714819D01*
X110642812Y-31683746D01*
X110534872Y-31628747D01*
X110476405Y-31609750D01*
X110354555Y-31570158D01*
X110354551Y-31570157D01*
X110354550Y-31570157D01*
X110167300Y-31540500D01*
X110167296Y-31540500D01*
X109977704Y-31540500D01*
X109977700Y-31540500D01*
X109790449Y-31570157D01*
X109790446Y-31570157D01*
X109790445Y-31570158D01*
X109731982Y-31589153D01*
X109610127Y-31628747D01*
X109441203Y-31714819D01*
X109287819Y-31826260D01*
X109153760Y-31960319D01*
X109042319Y-32113703D01*
X108956247Y-32282627D01*
X108897657Y-32462949D01*
X108868000Y-32650199D01*
X108868000Y-32839800D01*
X108897657Y-33027050D01*
X108897658Y-33027055D01*
X108915529Y-33082055D01*
X108956247Y-33207372D01*
X109042319Y-33376296D01*
X109153759Y-33529679D01*
X109287821Y-33663741D01*
X109441204Y-33775181D01*
X109521015Y-33815846D01*
X109610127Y-33861252D01*
X109610129Y-33861252D01*
X109610132Y-33861254D01*
X109720360Y-33897069D01*
X109778034Y-33936507D01*
X109805232Y-34000866D01*
X109793317Y-34069712D01*
X109746073Y-34121188D01*
X109720361Y-34132929D01*
X109678338Y-34146583D01*
X109610127Y-34168747D01*
X109441203Y-34254819D01*
X109287819Y-34366260D01*
X109153760Y-34500319D01*
X109042319Y-34653703D01*
X108956247Y-34822627D01*
X108897657Y-35002949D01*
X108868000Y-35190199D01*
X108868000Y-35379800D01*
X108897657Y-35567050D01*
X108897658Y-35567055D01*
X108915529Y-35622055D01*
X108956247Y-35747372D01*
X109042319Y-35916296D01*
X109153759Y-36069679D01*
X109287821Y-36203741D01*
X109441204Y-36315181D01*
X109521015Y-36355846D01*
X109610127Y-36401252D01*
X109610129Y-36401252D01*
X109610132Y-36401254D01*
X109720360Y-36437069D01*
X109778034Y-36476507D01*
X109805232Y-36540866D01*
X109793317Y-36609712D01*
X109746073Y-36661188D01*
X109720361Y-36672929D01*
X109678338Y-36686583D01*
X109610127Y-36708747D01*
X109441203Y-36794819D01*
X109287819Y-36906260D01*
X109153760Y-37040319D01*
X109042319Y-37193703D01*
X108956247Y-37362627D01*
X108897657Y-37542949D01*
X108868000Y-37730199D01*
X108868000Y-37919800D01*
X108896871Y-38102085D01*
X108897658Y-38107055D01*
X108915529Y-38162055D01*
X108956247Y-38287372D01*
X109042319Y-38456296D01*
X109153759Y-38609679D01*
X109287821Y-38743741D01*
X109441204Y-38855181D01*
X109521015Y-38895846D01*
X109610127Y-38941252D01*
X109610129Y-38941252D01*
X109610132Y-38941254D01*
X109720360Y-38977069D01*
X109778034Y-39016507D01*
X109805232Y-39080866D01*
X109793317Y-39149712D01*
X109746073Y-39201188D01*
X109720361Y-39212929D01*
X109678338Y-39226583D01*
X109610127Y-39248747D01*
X109441203Y-39334819D01*
X109287819Y-39446260D01*
X109153760Y-39580319D01*
X109042319Y-39733703D01*
X108956247Y-39902627D01*
X108897657Y-40082949D01*
X108868000Y-40270199D01*
X108868000Y-40459800D01*
X108890126Y-40599500D01*
X108897658Y-40647055D01*
X108915529Y-40702055D01*
X108956247Y-40827372D01*
X109042319Y-40996296D01*
X109153759Y-41149679D01*
X109287821Y-41283741D01*
X109441204Y-41395181D01*
X109521015Y-41435846D01*
X109610127Y-41481252D01*
X109610129Y-41481252D01*
X109610132Y-41481254D01*
X109720360Y-41517069D01*
X109778034Y-41556507D01*
X109805232Y-41620866D01*
X109793317Y-41689712D01*
X109746073Y-41741188D01*
X109720361Y-41752929D01*
X109678338Y-41766583D01*
X109610127Y-41788747D01*
X109441203Y-41874819D01*
X109287819Y-41986260D01*
X109153760Y-42120319D01*
X109042319Y-42273703D01*
X108956247Y-42442627D01*
X108897657Y-42622949D01*
X108868000Y-42810199D01*
X108868000Y-42999800D01*
X108897657Y-43187050D01*
X108897658Y-43187055D01*
X108915529Y-43242055D01*
X108956247Y-43367372D01*
X109042319Y-43536296D01*
X109153759Y-43689679D01*
X109287821Y-43823741D01*
X109441204Y-43935181D01*
X109521015Y-43975846D01*
X109610127Y-44021252D01*
X109610129Y-44021252D01*
X109610132Y-44021254D01*
X109720360Y-44057069D01*
X109778034Y-44096507D01*
X109805232Y-44160866D01*
X109793317Y-44229712D01*
X109746073Y-44281188D01*
X109720361Y-44292929D01*
X109678338Y-44306583D01*
X109610127Y-44328747D01*
X109441203Y-44414819D01*
X109287819Y-44526260D01*
X109153760Y-44660319D01*
X109042319Y-44813703D01*
X108956247Y-44982627D01*
X108897657Y-45162949D01*
X108868000Y-45350199D01*
X108868000Y-45539800D01*
X108897657Y-45727050D01*
X108897658Y-45727055D01*
X108915529Y-45782055D01*
X108956247Y-45907372D01*
X109003699Y-46000500D01*
X109042319Y-46076296D01*
X109153759Y-46229679D01*
X109287821Y-46363741D01*
X109441204Y-46475181D01*
X109521015Y-46515846D01*
X109610127Y-46561252D01*
X109610129Y-46561252D01*
X109610132Y-46561254D01*
X109720360Y-46597069D01*
X109778034Y-46636507D01*
X109805232Y-46700866D01*
X109793317Y-46769712D01*
X109746073Y-46821188D01*
X109720361Y-46832929D01*
X109678338Y-46846583D01*
X109610127Y-46868747D01*
X109441203Y-46954819D01*
X109287819Y-47066260D01*
X109153760Y-47200319D01*
X109042319Y-47353703D01*
X108956247Y-47522627D01*
X108897657Y-47702949D01*
X108868000Y-47890199D01*
X108868000Y-48079800D01*
X108897657Y-48267050D01*
X108897658Y-48267055D01*
X108915529Y-48322055D01*
X108956247Y-48447372D01*
X109023180Y-48578734D01*
X109042319Y-48616296D01*
X109153759Y-48769679D01*
X109287821Y-48903741D01*
X109441204Y-49015181D01*
X109521015Y-49055846D01*
X109610127Y-49101252D01*
X109610129Y-49101252D01*
X109610132Y-49101254D01*
X109720360Y-49137069D01*
X109778034Y-49176507D01*
X109805232Y-49240866D01*
X109793317Y-49309712D01*
X109746073Y-49361188D01*
X109720361Y-49372929D01*
X109678338Y-49386583D01*
X109610127Y-49408747D01*
X109441203Y-49494819D01*
X109287819Y-49606260D01*
X109153760Y-49740319D01*
X109042319Y-49893703D01*
X108956247Y-50062627D01*
X108897657Y-50242949D01*
X108868000Y-50430199D01*
X108868000Y-50619800D01*
X108884061Y-50721204D01*
X108897658Y-50807055D01*
X108906846Y-50835332D01*
X108908841Y-50905171D01*
X108872761Y-50965004D01*
X108810060Y-50995833D01*
X108764724Y-50995266D01*
X108705572Y-50983500D01*
X108705569Y-50983500D01*
X105200792Y-50983500D01*
X105133753Y-50963815D01*
X105087998Y-50911011D01*
X105078054Y-50841853D01*
X105078319Y-50840102D01*
X105104500Y-50674800D01*
X105104500Y-50485199D01*
X105088023Y-50381171D01*
X105074842Y-50297945D01*
X105016254Y-50117632D01*
X105016252Y-50117629D01*
X105016252Y-50117627D01*
X104930180Y-49948703D01*
X104880204Y-49879917D01*
X104818741Y-49795321D01*
X104684679Y-49661259D01*
X104531296Y-49549819D01*
X104362368Y-49463746D01*
X104252139Y-49427930D01*
X104194465Y-49388493D01*
X104167267Y-49324135D01*
X104179182Y-49255288D01*
X104226426Y-49203813D01*
X104252138Y-49192070D01*
X104362368Y-49156254D01*
X104531296Y-49070181D01*
X104684679Y-48958741D01*
X104818741Y-48824679D01*
X104930181Y-48671296D01*
X105016254Y-48502368D01*
X105074842Y-48322055D01*
X105091318Y-48218022D01*
X105104500Y-48134800D01*
X105104500Y-47945199D01*
X105088023Y-47841171D01*
X105074842Y-47757945D01*
X105016254Y-47577632D01*
X105016252Y-47577629D01*
X105016252Y-47577627D01*
X104930180Y-47408703D01*
X104890220Y-47353703D01*
X104818741Y-47255321D01*
X104684679Y-47121259D01*
X104531296Y-47009819D01*
X104362368Y-46923746D01*
X104252139Y-46887930D01*
X104194465Y-46848493D01*
X104167267Y-46784135D01*
X104179182Y-46715288D01*
X104226426Y-46663813D01*
X104252138Y-46652070D01*
X104362368Y-46616254D01*
X104531296Y-46530181D01*
X104684679Y-46418741D01*
X104818741Y-46284679D01*
X104930181Y-46131296D01*
X105016254Y-45962368D01*
X105074842Y-45782055D01*
X105091318Y-45678022D01*
X105104500Y-45594800D01*
X105104500Y-45405199D01*
X105084151Y-45276724D01*
X105074842Y-45217945D01*
X105016254Y-45037632D01*
X105016252Y-45037629D01*
X105016252Y-45037627D01*
X104945188Y-44898157D01*
X104930181Y-44868704D01*
X104818741Y-44715321D01*
X104684679Y-44581259D01*
X104531296Y-44469819D01*
X104362368Y-44383746D01*
X104252139Y-44347930D01*
X104194465Y-44308493D01*
X104167267Y-44244135D01*
X104179182Y-44175288D01*
X104226426Y-44123813D01*
X104252138Y-44112070D01*
X104362368Y-44076254D01*
X104531296Y-43990181D01*
X104684679Y-43878741D01*
X104818741Y-43744679D01*
X104930181Y-43591296D01*
X105016254Y-43422368D01*
X105074842Y-43242055D01*
X105097150Y-43101204D01*
X105104500Y-43054800D01*
X105104500Y-42865199D01*
X105088023Y-42761171D01*
X105074842Y-42677945D01*
X105016254Y-42497632D01*
X105016252Y-42497629D01*
X105016252Y-42497627D01*
X104970846Y-42408515D01*
X104930181Y-42328704D01*
X104818741Y-42175321D01*
X104684679Y-42041259D01*
X104531296Y-41929819D01*
X104362368Y-41843746D01*
X104252139Y-41807930D01*
X104194465Y-41768493D01*
X104167267Y-41704135D01*
X104179182Y-41635288D01*
X104226426Y-41583813D01*
X104252138Y-41572070D01*
X104362368Y-41536254D01*
X104531296Y-41450181D01*
X104684679Y-41338741D01*
X104818741Y-41204679D01*
X104930181Y-41051296D01*
X105016254Y-40882368D01*
X105074842Y-40702055D01*
X105091318Y-40598022D01*
X105104500Y-40514800D01*
X105104500Y-40325199D01*
X105088023Y-40221171D01*
X105074842Y-40137945D01*
X105016254Y-39957632D01*
X105016252Y-39957629D01*
X105016252Y-39957627D01*
X104930180Y-39788703D01*
X104890220Y-39733703D01*
X104818741Y-39635321D01*
X104684679Y-39501259D01*
X104531296Y-39389819D01*
X104362368Y-39303746D01*
X104252139Y-39267930D01*
X104194465Y-39228493D01*
X104167267Y-39164135D01*
X104179182Y-39095288D01*
X104226426Y-39043813D01*
X104252138Y-39032070D01*
X104362368Y-38996254D01*
X104531296Y-38910181D01*
X104684679Y-38798741D01*
X104818741Y-38664679D01*
X104930181Y-38511296D01*
X105016254Y-38342368D01*
X105074842Y-38162055D01*
X105091318Y-38058022D01*
X105104500Y-37974800D01*
X105104500Y-37785199D01*
X105085144Y-37662994D01*
X105074842Y-37597945D01*
X105016254Y-37417632D01*
X105016252Y-37417629D01*
X105016252Y-37417627D01*
X104930180Y-37248703D01*
X104869803Y-37165602D01*
X104818741Y-37095321D01*
X104684679Y-36961259D01*
X104531296Y-36849819D01*
X104362368Y-36763746D01*
X104252139Y-36727930D01*
X104194465Y-36688493D01*
X104167267Y-36624135D01*
X104179182Y-36555288D01*
X104226426Y-36503813D01*
X104252138Y-36492070D01*
X104362368Y-36456254D01*
X104531296Y-36370181D01*
X104684679Y-36258741D01*
X104818741Y-36124679D01*
X104930181Y-35971296D01*
X105016254Y-35802368D01*
X105074842Y-35622055D01*
X105091318Y-35518022D01*
X105104500Y-35434800D01*
X105104500Y-35245199D01*
X105082882Y-35108711D01*
X105074842Y-35057945D01*
X105016254Y-34877632D01*
X105016252Y-34877629D01*
X105016252Y-34877627D01*
X104930180Y-34708703D01*
X104890220Y-34653703D01*
X104818741Y-34555321D01*
X104684679Y-34421259D01*
X104531296Y-34309819D01*
X104362368Y-34223746D01*
X104252139Y-34187930D01*
X104194465Y-34148493D01*
X104167267Y-34084135D01*
X104179182Y-34015288D01*
X104226426Y-33963813D01*
X104252138Y-33952070D01*
X104362368Y-33916254D01*
X104531296Y-33830181D01*
X104684679Y-33718741D01*
X104818741Y-33584679D01*
X104930181Y-33431296D01*
X105016254Y-33262368D01*
X105074842Y-33082055D01*
X105091318Y-32978022D01*
X105104500Y-32894800D01*
X105104500Y-32705199D01*
X105088023Y-32601171D01*
X105074842Y-32517945D01*
X105016254Y-32337632D01*
X105016252Y-32337629D01*
X105016252Y-32337627D01*
X104930180Y-32168703D01*
X104890220Y-32113703D01*
X104818741Y-32015321D01*
X104684679Y-31881259D01*
X104531296Y-31769819D01*
X104362372Y-31683747D01*
X104303905Y-31664750D01*
X104182055Y-31625158D01*
X104182051Y-31625157D01*
X104182050Y-31625157D01*
X103994800Y-31595500D01*
X103994796Y-31595500D01*
X103805204Y-31595500D01*
X103805200Y-31595500D01*
X103617949Y-31625157D01*
X103617946Y-31625157D01*
X103617945Y-31625158D01*
X103559482Y-31644153D01*
X103437627Y-31683747D01*
X103268703Y-31769819D01*
X103115319Y-31881260D01*
X102981260Y-32015319D01*
X102869819Y-32168703D01*
X102783747Y-32337627D01*
X102725157Y-32517949D01*
X102695500Y-32705199D01*
X102695500Y-32894800D01*
X102716446Y-33027050D01*
X102725158Y-33082055D01*
X102764750Y-33203905D01*
X102783747Y-33262372D01*
X102841795Y-33376296D01*
X102869819Y-33431296D01*
X102981259Y-33584679D01*
X103115321Y-33718741D01*
X103268704Y-33830181D01*
X103348515Y-33870846D01*
X103437627Y-33916252D01*
X103437629Y-33916252D01*
X103437632Y-33916254D01*
X103547860Y-33952069D01*
X103605534Y-33991507D01*
X103632732Y-34055866D01*
X103620817Y-34124712D01*
X103573573Y-34176188D01*
X103547861Y-34187929D01*
X103505838Y-34201583D01*
X103437627Y-34223747D01*
X103268703Y-34309819D01*
X103115319Y-34421260D01*
X102981260Y-34555319D01*
X102869819Y-34708703D01*
X102783747Y-34877627D01*
X102725157Y-35057949D01*
X102695500Y-35245199D01*
X102695500Y-35434800D01*
X102716446Y-35567050D01*
X102725158Y-35622055D01*
X102764750Y-35743905D01*
X102783747Y-35802372D01*
X102841795Y-35916296D01*
X102869819Y-35971296D01*
X102981259Y-36124679D01*
X103115321Y-36258741D01*
X103268704Y-36370181D01*
X103348515Y-36410846D01*
X103437627Y-36456252D01*
X103437629Y-36456252D01*
X103437632Y-36456254D01*
X103547860Y-36492069D01*
X103605534Y-36531507D01*
X103632732Y-36595866D01*
X103620817Y-36664712D01*
X103573573Y-36716188D01*
X103547861Y-36727929D01*
X103505838Y-36741583D01*
X103437627Y-36763747D01*
X103268703Y-36849819D01*
X103115319Y-36961260D01*
X102981260Y-37095319D01*
X102869819Y-37248703D01*
X102783747Y-37417627D01*
X102725157Y-37597949D01*
X102695500Y-37785199D01*
X102695500Y-37974800D01*
X102715660Y-38102085D01*
X102725158Y-38162055D01*
X102764750Y-38283905D01*
X102783747Y-38342372D01*
X102841795Y-38456296D01*
X102869819Y-38511296D01*
X102981259Y-38664679D01*
X103115321Y-38798741D01*
X103268704Y-38910181D01*
X103348515Y-38950846D01*
X103437627Y-38996252D01*
X103437629Y-38996252D01*
X103437632Y-38996254D01*
X103547860Y-39032069D01*
X103605534Y-39071507D01*
X103632732Y-39135866D01*
X103620817Y-39204712D01*
X103573573Y-39256188D01*
X103547861Y-39267929D01*
X103505838Y-39281583D01*
X103437627Y-39303747D01*
X103268703Y-39389819D01*
X103115319Y-39501260D01*
X102981260Y-39635319D01*
X102869819Y-39788703D01*
X102783747Y-39957627D01*
X102725157Y-40137949D01*
X102695500Y-40325199D01*
X102695500Y-40514800D01*
X102723199Y-40689687D01*
X102725158Y-40702055D01*
X102750073Y-40778733D01*
X102783747Y-40882372D01*
X102841795Y-40996296D01*
X102869819Y-41051296D01*
X102981259Y-41204679D01*
X103115321Y-41338741D01*
X103268704Y-41450181D01*
X103348515Y-41490846D01*
X103437627Y-41536252D01*
X103437629Y-41536252D01*
X103437632Y-41536254D01*
X103547860Y-41572069D01*
X103605534Y-41611507D01*
X103632732Y-41675866D01*
X103620817Y-41744712D01*
X103573573Y-41796188D01*
X103547861Y-41807929D01*
X103505838Y-41821583D01*
X103437627Y-41843747D01*
X103268703Y-41929819D01*
X103115319Y-42041260D01*
X102981260Y-42175319D01*
X102869819Y-42328703D01*
X102783747Y-42497627D01*
X102725157Y-42677949D01*
X102695500Y-42865199D01*
X102695500Y-43054800D01*
X102716446Y-43187050D01*
X102725158Y-43242055D01*
X102764750Y-43363905D01*
X102783747Y-43422372D01*
X102841795Y-43536296D01*
X102869819Y-43591296D01*
X102981259Y-43744679D01*
X103115321Y-43878741D01*
X103268704Y-43990181D01*
X103348515Y-44030846D01*
X103437627Y-44076252D01*
X103437629Y-44076252D01*
X103437632Y-44076254D01*
X103547860Y-44112069D01*
X103605534Y-44151507D01*
X103632732Y-44215866D01*
X103620817Y-44284712D01*
X103573573Y-44336188D01*
X103547861Y-44347929D01*
X103505838Y-44361583D01*
X103437627Y-44383747D01*
X103268703Y-44469819D01*
X103115319Y-44581260D01*
X102981260Y-44715319D01*
X102869819Y-44868703D01*
X102783747Y-45037627D01*
X102725157Y-45217949D01*
X102695500Y-45405199D01*
X102695500Y-45594800D01*
X102716446Y-45727050D01*
X102725158Y-45782055D01*
X102748950Y-45855277D01*
X102783747Y-45962372D01*
X102841795Y-46076296D01*
X102869819Y-46131296D01*
X102981259Y-46284679D01*
X103115321Y-46418741D01*
X103268704Y-46530181D01*
X103348515Y-46570846D01*
X103437627Y-46616252D01*
X103437629Y-46616252D01*
X103437632Y-46616254D01*
X103547860Y-46652069D01*
X103605534Y-46691507D01*
X103632732Y-46755866D01*
X103620817Y-46824712D01*
X103573573Y-46876188D01*
X103547861Y-46887929D01*
X103505838Y-46901583D01*
X103437627Y-46923747D01*
X103268703Y-47009819D01*
X103115319Y-47121260D01*
X102981260Y-47255319D01*
X102869819Y-47408703D01*
X102783747Y-47577627D01*
X102725157Y-47757949D01*
X102695500Y-47945199D01*
X102695500Y-48134800D01*
X102716446Y-48267050D01*
X102725158Y-48322055D01*
X102750322Y-48399500D01*
X102783747Y-48502372D01*
X102822656Y-48578734D01*
X102869819Y-48671296D01*
X102981259Y-48824679D01*
X103115321Y-48958741D01*
X103268704Y-49070181D01*
X103348515Y-49110846D01*
X103437627Y-49156252D01*
X103437629Y-49156252D01*
X103437632Y-49156254D01*
X103547860Y-49192069D01*
X103605534Y-49231507D01*
X103632732Y-49295866D01*
X103620817Y-49364712D01*
X103573573Y-49416188D01*
X103547861Y-49427929D01*
X103505838Y-49441583D01*
X103437627Y-49463747D01*
X103268703Y-49549819D01*
X103115319Y-49661260D01*
X102981260Y-49795319D01*
X102869819Y-49948703D01*
X102783747Y-50117627D01*
X102725157Y-50297949D01*
X102695500Y-50485199D01*
X102695500Y-50674800D01*
X102721681Y-50840102D01*
X102712726Y-50909396D01*
X102667730Y-50962848D01*
X102600979Y-50983487D01*
X102599208Y-50983500D01*
X79800792Y-50983500D01*
X79733753Y-50963815D01*
X79687998Y-50911011D01*
X79678054Y-50841853D01*
X79678319Y-50840102D01*
X79704500Y-50674800D01*
X79704500Y-50485199D01*
X79688023Y-50381171D01*
X79674842Y-50297945D01*
X79616254Y-50117632D01*
X79616252Y-50117629D01*
X79616252Y-50117627D01*
X79530180Y-49948703D01*
X79480204Y-49879917D01*
X79418741Y-49795321D01*
X79284679Y-49661259D01*
X79131296Y-49549819D01*
X78962368Y-49463746D01*
X78852139Y-49427930D01*
X78794465Y-49388493D01*
X78767267Y-49324135D01*
X78779182Y-49255288D01*
X78826426Y-49203813D01*
X78852138Y-49192070D01*
X78962368Y-49156254D01*
X79131296Y-49070181D01*
X79284679Y-48958741D01*
X79418741Y-48824679D01*
X79530181Y-48671296D01*
X79616254Y-48502368D01*
X79674842Y-48322055D01*
X79691318Y-48218022D01*
X79704500Y-48134800D01*
X79704500Y-47945199D01*
X79688023Y-47841171D01*
X79674842Y-47757945D01*
X79616254Y-47577632D01*
X79616252Y-47577629D01*
X79616252Y-47577627D01*
X79530180Y-47408703D01*
X79490220Y-47353703D01*
X79418741Y-47255321D01*
X79284679Y-47121259D01*
X79131296Y-47009819D01*
X78962368Y-46923746D01*
X78852139Y-46887930D01*
X78794465Y-46848493D01*
X78767267Y-46784135D01*
X78779182Y-46715288D01*
X78826426Y-46663813D01*
X78852138Y-46652070D01*
X78962368Y-46616254D01*
X79131296Y-46530181D01*
X79284679Y-46418741D01*
X79418741Y-46284679D01*
X79530181Y-46131296D01*
X79616254Y-45962368D01*
X79674842Y-45782055D01*
X79691318Y-45678022D01*
X79704500Y-45594800D01*
X79704500Y-45405199D01*
X79684151Y-45276724D01*
X79674842Y-45217945D01*
X79616254Y-45037632D01*
X79616252Y-45037629D01*
X79616252Y-45037627D01*
X79545188Y-44898157D01*
X79530181Y-44868704D01*
X79418741Y-44715321D01*
X79284679Y-44581259D01*
X79131296Y-44469819D01*
X78962368Y-44383746D01*
X78852139Y-44347930D01*
X78794465Y-44308493D01*
X78767267Y-44244135D01*
X78779182Y-44175288D01*
X78826426Y-44123813D01*
X78852138Y-44112070D01*
X78962368Y-44076254D01*
X79131296Y-43990181D01*
X79284679Y-43878741D01*
X79418741Y-43744679D01*
X79530181Y-43591296D01*
X79616254Y-43422368D01*
X79674842Y-43242055D01*
X79697150Y-43101204D01*
X79704500Y-43054800D01*
X79704500Y-42865199D01*
X79688023Y-42761171D01*
X79674842Y-42677945D01*
X79616254Y-42497632D01*
X79616252Y-42497629D01*
X79616252Y-42497627D01*
X79570846Y-42408515D01*
X79530181Y-42328704D01*
X79418741Y-42175321D01*
X79284679Y-42041259D01*
X79131296Y-41929819D01*
X78962368Y-41843746D01*
X78852139Y-41807930D01*
X78794465Y-41768493D01*
X78767267Y-41704135D01*
X78779182Y-41635288D01*
X78826426Y-41583813D01*
X78852138Y-41572070D01*
X78962368Y-41536254D01*
X79131296Y-41450181D01*
X79284679Y-41338741D01*
X79418741Y-41204679D01*
X79530181Y-41051296D01*
X79616254Y-40882368D01*
X79674842Y-40702055D01*
X79691318Y-40598022D01*
X79704500Y-40514800D01*
X79704500Y-40325199D01*
X79688023Y-40221171D01*
X79674842Y-40137945D01*
X79616254Y-39957632D01*
X79616252Y-39957629D01*
X79616252Y-39957627D01*
X79530180Y-39788703D01*
X79490220Y-39733703D01*
X79418741Y-39635321D01*
X79284679Y-39501259D01*
X79131296Y-39389819D01*
X78962368Y-39303746D01*
X78852139Y-39267930D01*
X78794465Y-39228493D01*
X78767267Y-39164135D01*
X78779182Y-39095288D01*
X78826426Y-39043813D01*
X78852138Y-39032070D01*
X78962368Y-38996254D01*
X79131296Y-38910181D01*
X79284679Y-38798741D01*
X79418741Y-38664679D01*
X79530181Y-38511296D01*
X79616254Y-38342368D01*
X79674842Y-38162055D01*
X79691318Y-38058022D01*
X79704500Y-37974800D01*
X79704500Y-37785199D01*
X79685144Y-37662994D01*
X79674842Y-37597945D01*
X79616254Y-37417632D01*
X79616252Y-37417629D01*
X79616252Y-37417627D01*
X79530180Y-37248703D01*
X79469803Y-37165602D01*
X79418741Y-37095321D01*
X79284679Y-36961259D01*
X79131296Y-36849819D01*
X78962368Y-36763746D01*
X78852139Y-36727930D01*
X78794465Y-36688493D01*
X78767267Y-36624135D01*
X78779182Y-36555288D01*
X78826426Y-36503813D01*
X78852138Y-36492070D01*
X78962368Y-36456254D01*
X79131296Y-36370181D01*
X79284679Y-36258741D01*
X79418741Y-36124679D01*
X79530181Y-35971296D01*
X79616254Y-35802368D01*
X79674842Y-35622055D01*
X79691318Y-35518022D01*
X79704500Y-35434800D01*
X79704500Y-35245199D01*
X79682882Y-35108711D01*
X79674842Y-35057945D01*
X79616254Y-34877632D01*
X79616252Y-34877629D01*
X79616252Y-34877627D01*
X79530180Y-34708703D01*
X79490220Y-34653703D01*
X79418741Y-34555321D01*
X79284679Y-34421259D01*
X79131296Y-34309819D01*
X78962368Y-34223746D01*
X78852139Y-34187930D01*
X78794465Y-34148493D01*
X78767267Y-34084135D01*
X78779182Y-34015288D01*
X78826426Y-33963813D01*
X78852138Y-33952070D01*
X78962368Y-33916254D01*
X79131296Y-33830181D01*
X79284679Y-33718741D01*
X79418741Y-33584679D01*
X79530181Y-33431296D01*
X79616254Y-33262368D01*
X79674842Y-33082055D01*
X79691318Y-32978022D01*
X79704500Y-32894800D01*
X79704500Y-32705199D01*
X79688023Y-32601171D01*
X79674842Y-32517945D01*
X79616254Y-32337632D01*
X79616252Y-32337629D01*
X79616252Y-32337627D01*
X79530180Y-32168703D01*
X79490220Y-32113703D01*
X79418741Y-32015321D01*
X79284679Y-31881259D01*
X79131296Y-31769819D01*
X78962372Y-31683747D01*
X78903905Y-31664750D01*
X78782055Y-31625158D01*
X78782051Y-31625157D01*
X78782050Y-31625157D01*
X78594800Y-31595500D01*
X78594796Y-31595500D01*
X78405204Y-31595500D01*
X78405200Y-31595500D01*
X78217949Y-31625157D01*
X78217946Y-31625157D01*
X78217945Y-31625158D01*
X78159482Y-31644153D01*
X78037627Y-31683747D01*
X77868703Y-31769819D01*
X77715319Y-31881260D01*
X77581260Y-32015319D01*
X77469819Y-32168703D01*
X77383747Y-32337627D01*
X77325157Y-32517949D01*
X77295500Y-32705199D01*
X77295500Y-32894800D01*
X77316446Y-33027050D01*
X77325158Y-33082055D01*
X77364750Y-33203905D01*
X77383747Y-33262372D01*
X77441795Y-33376296D01*
X77469819Y-33431296D01*
X77581259Y-33584679D01*
X77715321Y-33718741D01*
X77868704Y-33830181D01*
X77948515Y-33870846D01*
X78037627Y-33916252D01*
X78037629Y-33916252D01*
X78037632Y-33916254D01*
X78147860Y-33952069D01*
X78205534Y-33991507D01*
X78232732Y-34055866D01*
X78220817Y-34124712D01*
X78173573Y-34176188D01*
X78147861Y-34187929D01*
X78105838Y-34201583D01*
X78037627Y-34223747D01*
X77868703Y-34309819D01*
X77715319Y-34421260D01*
X77581260Y-34555319D01*
X77469819Y-34708703D01*
X77383747Y-34877627D01*
X77325157Y-35057949D01*
X77295500Y-35245199D01*
X77295500Y-35434800D01*
X77316446Y-35567050D01*
X77325158Y-35622055D01*
X77364750Y-35743905D01*
X77383747Y-35802372D01*
X77441795Y-35916296D01*
X77469819Y-35971296D01*
X77581259Y-36124679D01*
X77715321Y-36258741D01*
X77868704Y-36370181D01*
X77948515Y-36410846D01*
X78037627Y-36456252D01*
X78037629Y-36456252D01*
X78037632Y-36456254D01*
X78147860Y-36492069D01*
X78205534Y-36531507D01*
X78232732Y-36595866D01*
X78220817Y-36664712D01*
X78173573Y-36716188D01*
X78147861Y-36727929D01*
X78105838Y-36741583D01*
X78037627Y-36763747D01*
X77868703Y-36849819D01*
X77715319Y-36961260D01*
X77581260Y-37095319D01*
X77469819Y-37248703D01*
X77383747Y-37417627D01*
X77325157Y-37597949D01*
X77295500Y-37785199D01*
X77295500Y-37974800D01*
X77315660Y-38102085D01*
X77325158Y-38162055D01*
X77364750Y-38283905D01*
X77383747Y-38342372D01*
X77441795Y-38456296D01*
X77469819Y-38511296D01*
X77581259Y-38664679D01*
X77715321Y-38798741D01*
X77868704Y-38910181D01*
X77948515Y-38950846D01*
X78037627Y-38996252D01*
X78037629Y-38996252D01*
X78037632Y-38996254D01*
X78147860Y-39032069D01*
X78205534Y-39071507D01*
X78232732Y-39135866D01*
X78220817Y-39204712D01*
X78173573Y-39256188D01*
X78147861Y-39267929D01*
X78105838Y-39281583D01*
X78037627Y-39303747D01*
X77868703Y-39389819D01*
X77715319Y-39501260D01*
X77581260Y-39635319D01*
X77469819Y-39788703D01*
X77383747Y-39957627D01*
X77325157Y-40137949D01*
X77295500Y-40325199D01*
X77295500Y-40514800D01*
X77323199Y-40689687D01*
X77325158Y-40702055D01*
X77350073Y-40778733D01*
X77383747Y-40882372D01*
X77441795Y-40996296D01*
X77469819Y-41051296D01*
X77581259Y-41204679D01*
X77715321Y-41338741D01*
X77868704Y-41450181D01*
X77948515Y-41490846D01*
X78037627Y-41536252D01*
X78037629Y-41536252D01*
X78037632Y-41536254D01*
X78147860Y-41572069D01*
X78205534Y-41611507D01*
X78232732Y-41675866D01*
X78220817Y-41744712D01*
X78173573Y-41796188D01*
X78147861Y-41807929D01*
X78105838Y-41821583D01*
X78037627Y-41843747D01*
X77868703Y-41929819D01*
X77715319Y-42041260D01*
X77581260Y-42175319D01*
X77469819Y-42328703D01*
X77383747Y-42497627D01*
X77325157Y-42677949D01*
X77295500Y-42865199D01*
X77295500Y-43054800D01*
X77316446Y-43187050D01*
X77325158Y-43242055D01*
X77364750Y-43363905D01*
X77383747Y-43422372D01*
X77441795Y-43536296D01*
X77469819Y-43591296D01*
X77581259Y-43744679D01*
X77715321Y-43878741D01*
X77868704Y-43990181D01*
X77948515Y-44030846D01*
X78037627Y-44076252D01*
X78037629Y-44076252D01*
X78037632Y-44076254D01*
X78147860Y-44112069D01*
X78205534Y-44151507D01*
X78232732Y-44215866D01*
X78220817Y-44284712D01*
X78173573Y-44336188D01*
X78147861Y-44347929D01*
X78105838Y-44361583D01*
X78037627Y-44383747D01*
X77868703Y-44469819D01*
X77715319Y-44581260D01*
X77581260Y-44715319D01*
X77469819Y-44868703D01*
X77383747Y-45037627D01*
X77325157Y-45217949D01*
X77295500Y-45405199D01*
X77295500Y-45594800D01*
X77316446Y-45727050D01*
X77325158Y-45782055D01*
X77348950Y-45855277D01*
X77383747Y-45962372D01*
X77441795Y-46076296D01*
X77469819Y-46131296D01*
X77581259Y-46284679D01*
X77715321Y-46418741D01*
X77868704Y-46530181D01*
X77948515Y-46570846D01*
X78037627Y-46616252D01*
X78037629Y-46616252D01*
X78037632Y-46616254D01*
X78147860Y-46652069D01*
X78205534Y-46691507D01*
X78232732Y-46755866D01*
X78220817Y-46824712D01*
X78173573Y-46876188D01*
X78147861Y-46887929D01*
X78105838Y-46901583D01*
X78037627Y-46923747D01*
X77868703Y-47009819D01*
X77715319Y-47121260D01*
X77581260Y-47255319D01*
X77469819Y-47408703D01*
X77383747Y-47577627D01*
X77325157Y-47757949D01*
X77295500Y-47945199D01*
X77295500Y-48134800D01*
X77316446Y-48267050D01*
X77325158Y-48322055D01*
X77350322Y-48399500D01*
X77383747Y-48502372D01*
X77422656Y-48578734D01*
X77469819Y-48671296D01*
X77581259Y-48824679D01*
X77715321Y-48958741D01*
X77868704Y-49070181D01*
X77948515Y-49110846D01*
X78037627Y-49156252D01*
X78037629Y-49156252D01*
X78037632Y-49156254D01*
X78147860Y-49192069D01*
X78205534Y-49231507D01*
X78232732Y-49295866D01*
X78220817Y-49364712D01*
X78173573Y-49416188D01*
X78147861Y-49427929D01*
X78105838Y-49441583D01*
X78037627Y-49463747D01*
X77868703Y-49549819D01*
X77715319Y-49661260D01*
X77581260Y-49795319D01*
X77469819Y-49948703D01*
X77383747Y-50117627D01*
X77325157Y-50297949D01*
X77295500Y-50485199D01*
X77295500Y-50674800D01*
X77316446Y-50807049D01*
X77325158Y-50862055D01*
X77341065Y-50911011D01*
X77383747Y-51042372D01*
X77441795Y-51156296D01*
X77469819Y-51211296D01*
X77575446Y-51356679D01*
X77598926Y-51422483D01*
X77583101Y-51490537D01*
X77562809Y-51517244D01*
X76094728Y-52985324D01*
X76094727Y-52985325D01*
X76023535Y-53091873D01*
X75974500Y-53210254D01*
X75974498Y-53210260D01*
X75949501Y-53335927D01*
X75050500Y-53335927D01*
X75050500Y-29584500D01*
X75070185Y-29517461D01*
X75122989Y-29471706D01*
X75174500Y-29460500D01*
X150125500Y-29460500D01*
X150192539Y-29480185D01*
G37*
%TD.AperFunction*%
%TD*%
M02*
