%TF.GenerationSoftware,KiCad,Pcbnew,10.0.5*%
%TF.CreationDate,2026-08-15T13:35:57+05:30*%
%TF.ProjectId,MIO-Blind BOT,4d494f2d-426c-4696-9e64-20424f542e6b,rev?*%
%TF.SameCoordinates,Original*%
%TF.FileFunction,Copper,L2,Bot*%
%TF.FilePolarity,Positive*%
%FSLAX46Y46*%
G04 Gerber Fmt 4.6, Leading zero omitted, Abs format (unit mm)*
G04 Created by KiCad (PCBNEW 10.0.5) date 2026-08-15 13:35:57*
%MOMM*%
%LPD*%
G01*
G04 APERTURE LIST*
%TA.AperFunction,ComponentPad*%
%ADD10R,2.683000X2.683000*%
%TD*%
%TA.AperFunction,ComponentPad*%
%ADD11C,4.400000*%
%TD*%
%TA.AperFunction,ComponentPad*%
%ADD12C,1.408000*%
%TD*%
%TA.AperFunction,ComponentPad*%
%ADD13C,3.800000*%
%TD*%
%TA.AperFunction,ComponentPad*%
%ADD14C,1.600000*%
%TD*%
%TA.AperFunction,ComponentPad*%
%ADD15R,3.000000X2.000000*%
%TD*%
%TA.AperFunction,ComponentPad*%
%ADD16R,1.700000X1.700000*%
%TD*%
%TA.AperFunction,ComponentPad*%
%ADD17C,1.700000*%
%TD*%
%TA.AperFunction,ComponentPad*%
%ADD18R,2.250000X2.250000*%
%TD*%
%TA.AperFunction,ComponentPad*%
%ADD19C,2.250000*%
%TD*%
%TA.AperFunction,ComponentPad*%
%ADD20R,1.350000X1.350000*%
%TD*%
%TA.AperFunction,ViaPad*%
%ADD21C,0.800000*%
%TD*%
%TA.AperFunction,Conductor*%
%ADD22C,0.300000*%
%TD*%
%TA.AperFunction,Conductor*%
%ADD23C,0.800000*%
%TD*%
%TA.AperFunction,Conductor*%
%ADD24C,0.250000*%
%TD*%
G04 APERTURE END LIST*
D10*
%TO.P,U12,1,IN+_1*%
%TO.N,/VCC_SYS*%
X123748500Y-110572500D03*
%TO.P,U12,2,IN-_2*%
%TO.N,/GND*%
X123748500Y-93427500D03*
%TO.P,U12,3,OUT-_3*%
X84251500Y-93427500D03*
%TO.P,U12,4,OUT+_4*%
%TO.N,/+3V3_PWR*%
X84251500Y-110572500D03*
D11*
%TO.P,U12,MH1*%
%TO.N,N/C*%
X89014000Y-93999000D03*
%TO.P,U12,MH2*%
X118986000Y-110001000D03*
%TD*%
D12*
%TO.P,CORE,VP,VP_VP*%
%TO.N,unconnected-(CORE1-PadVP)*%
X135472500Y-73385000D03*
%TO.P,CORE,VN,VN_VN*%
%TO.N,unconnected-(CORE1-PadVN)*%
X135472500Y-70845000D03*
%TO.P,CORE,VIN,VIN_VIN*%
%TO.N,unconnected-(CORE1-PadVIN)*%
X135472500Y-32745000D03*
%TO.P,CORE,TX,TX_TX*%
%TO.N,unconnected-(CORE1-PadTX)*%
X110072500Y-70845000D03*
%TO.P,CORE,SD3*%
%TO.N,N/C*%
X135472500Y-37825000D03*
%TO.P,CORE,SD2*%
X135472500Y-40365000D03*
%TO.P,CORE,SD1*%
X110072500Y-37825000D03*
%TO.P,CORE,SD0*%
X110072500Y-35285000D03*
%TO.P,CORE,RX,RX_RX*%
%TO.N,unconnected-(CORE1-PadRX)*%
X110072500Y-68305000D03*
%TO.P,CORE,GND,GND_GND*%
%TO.N,unconnected-(CORE1-PadGND)_1*%
X135472500Y-45445000D03*
%TO.N,unconnected-(CORE1-PadGND)*%
X110072500Y-78465000D03*
%TO.N,unconnected-(CORE1-PadGND)_2*%
X110072500Y-63225000D03*
%TO.P,CORE,EN,EN_EN*%
%TO.N,unconnected-(CORE1-PadEN)*%
X135472500Y-75925000D03*
%TO.P,CORE,D35,D35_D35*%
%TO.N,unconnected-(CORE1-PadD35)*%
X135472500Y-65765000D03*
%TO.P,CORE,D34,D34_D34*%
%TO.N,/+3V3_PWR*%
X135472500Y-68305000D03*
%TO.P,CORE,D33,D33_D33*%
%TO.N,Net-(CM1-Pad1)*%
X135472500Y-60685000D03*
%TO.P,CORE,D32,D32_D32*%
%TO.N,Net-(CM2-Pad1)*%
X135472500Y-63225000D03*
%TO.P,CORE,D27,D27_D27*%
%TO.N,/TFT_CS*%
X135472500Y-53065000D03*
%TO.P,CORE,D26,D26_D26*%
%TO.N,/TFT_DC*%
X135472500Y-55605000D03*
%TO.P,CORE,D25,D25_D25*%
%TO.N,/TFT_RST*%
X135472500Y-58145000D03*
%TO.P,CORE,D23,D23_D23*%
%TO.N,Net-(INFERENCE1-SDA{slash}D21)*%
X110072500Y-75925000D03*
%TO.P,CORE,D22,SCL/D22_D22*%
%TO.N,/I2C_SCL*%
X110072500Y-73385000D03*
%TO.P,CORE,D21,SDA/D21_D21*%
%TO.N,/SD_CS*%
X110072500Y-65765000D03*
%TO.P,CORE,D19,D19_D19*%
%TO.N,/I2S_SDA*%
X110072500Y-60685000D03*
%TO.P,CORE,D18,D18_D18*%
%TO.N,Net-(CORE1-PadD18)*%
X110072500Y-58145000D03*
%TO.P,CORE,D17,TX2/D17_D17*%
%TO.N,Net-(CORE1-TX2{slash}D17)*%
X110072500Y-53065000D03*
%TO.P,CORE,D16,RX2/D16_D16*%
%TO.N,Net-(CORE1-RX2{slash}D16)*%
X110072500Y-50525000D03*
%TO.P,CORE,D15,D15_D15*%
%TO.N,unconnected-(CORE1-PadD15)*%
X110072500Y-40365000D03*
%TO.P,CORE,D14,D14_D14*%
%TO.N,/SD_SCK*%
X135472500Y-50525000D03*
%TO.P,CORE,D13,D13_D13*%
%TO.N,/SD_MOSI*%
X135472500Y-42905000D03*
%TO.P,CORE,D12,D12_D12*%
%TO.N,unconnected-(CORE1-PadD12)*%
X135472500Y-47985000D03*
%TO.P,CORE,D5,D5_D5*%
%TO.N,Net-(CORE1-PadD5)*%
X110072500Y-55605000D03*
%TO.P,CORE,D4,D4_D4*%
%TO.N,Net-(CORE1-PadD4)*%
X110072500Y-47985000D03*
%TO.P,CORE,D2,D2_D2*%
%TO.N,unconnected-(CORE1-PadD2)*%
X110072500Y-42905000D03*
%TO.P,CORE,D0,D0_D0*%
%TO.N,unconnected-(CORE1-PadD0)*%
X110072500Y-45445000D03*
%TO.P,CORE,CMD*%
%TO.N,N/C*%
X135472500Y-35285000D03*
%TO.P,CORE,CLK*%
X110072500Y-32745000D03*
%TO.P,CORE,3V3,3V3_3V3*%
%TO.N,/+3V3_PWR*%
X135472500Y-78465000D03*
%TD*%
%TO.P,INFERENCE,3V3,3V3_3V3*%
%TO.N,/+3V3_PWR*%
X103900000Y-78520000D03*
%TO.P,INFERENCE,CLK*%
%TO.N,N/C*%
X78500000Y-32800000D03*
%TO.P,INFERENCE,CMD*%
X103900000Y-35340000D03*
%TO.P,INFERENCE,D0,D0_D0*%
%TO.N,unconnected-(INFERENCE1-PadD0)*%
X78500000Y-45500000D03*
%TO.P,INFERENCE,D2,D2_D2*%
%TO.N,unconnected-(INFERENCE1-PadD2)*%
X78500000Y-42960000D03*
%TO.P,INFERENCE,D4,D4_D4*%
%TO.N,Net-(CORE1-PadD4)*%
X78500000Y-48040000D03*
%TO.P,INFERENCE,D5,D5_D5*%
%TO.N,Net-(CORE1-PadD5)*%
X78500000Y-55660000D03*
%TO.P,INFERENCE,D12,D12_D12*%
%TO.N,unconnected-(INFERENCE1-PadD12)*%
X103900000Y-48040000D03*
%TO.P,INFERENCE,D13,D13_D13*%
%TO.N,unconnected-(INFERENCE1-PadD13)*%
X103900000Y-42960000D03*
%TO.P,INFERENCE,D14,D14_D14*%
%TO.N,unconnected-(INFERENCE1-PadD14)*%
X103900000Y-50580000D03*
%TO.P,INFERENCE,D15,D15_D15*%
%TO.N,unconnected-(INFERENCE1-PadD15)*%
X78500000Y-40420000D03*
%TO.P,INFERENCE,D16,RX2/D16_D16*%
%TO.N,unconnected-(INFERENCE1-RX2{slash}D16-PadD16)*%
X78500000Y-50580000D03*
%TO.P,INFERENCE,D17,TX2/D17_D17*%
%TO.N,Net-(CORE1-RX2{slash}D16)*%
X78500000Y-53120000D03*
%TO.P,INFERENCE,D18,D18_D18*%
%TO.N,unconnected-(INFERENCE1-PadD18)*%
X78500000Y-58200000D03*
%TO.P,INFERENCE,D19,D19_D19*%
%TO.N,Net-(CORE1-PadD18)*%
X78500000Y-60740000D03*
%TO.P,INFERENCE,D21,SDA/D21_D21*%
%TO.N,Net-(INFERENCE1-SDA{slash}D21)*%
X78500000Y-65820000D03*
%TO.P,INFERENCE,D22,SCL/D22_D22*%
%TO.N,unconnected-(INFERENCE1-SCL{slash}D22-PadD22)*%
X78500000Y-73440000D03*
%TO.P,INFERENCE,D23,D23_D23*%
%TO.N,unconnected-(INFERENCE1-PadD23)*%
X78500000Y-75980000D03*
%TO.P,INFERENCE,D25,D25_D25*%
%TO.N,unconnected-(INFERENCE1-PadD25)*%
X103900000Y-58200000D03*
%TO.P,INFERENCE,D26,D26_D26*%
%TO.N,unconnected-(INFERENCE1-PadD26)*%
X103900000Y-55660000D03*
%TO.P,INFERENCE,D27,D27_D27*%
%TO.N,unconnected-(INFERENCE1-PadD27)*%
X103900000Y-53120000D03*
%TO.P,INFERENCE,D32,D32_D32*%
%TO.N,unconnected-(INFERENCE1-PadD32)*%
X103900000Y-63280000D03*
%TO.P,INFERENCE,D33,D33_D33*%
%TO.N,unconnected-(INFERENCE1-PadD33)*%
X103900000Y-60740000D03*
%TO.P,INFERENCE,D34,D34_D34*%
%TO.N,unconnected-(INFERENCE1-PadD34)*%
X103900000Y-68360000D03*
%TO.P,INFERENCE,D35,D35_D35*%
%TO.N,unconnected-(INFERENCE1-PadD35)*%
X103900000Y-65820000D03*
%TO.P,INFERENCE,EN,EN_EN*%
%TO.N,unconnected-(INFERENCE1-PadEN)*%
X103900000Y-75980000D03*
%TO.P,INFERENCE,GND,GND_GND*%
%TO.N,unconnected-(INFERENCE1-PadGND)_2*%
X78500000Y-63280000D03*
%TO.N,unconnected-(INFERENCE1-PadGND)_1*%
X78500000Y-78520000D03*
%TO.N,unconnected-(INFERENCE1-PadGND)*%
X103900000Y-45500000D03*
%TO.P,INFERENCE,RX,RX_RX*%
%TO.N,unconnected-(INFERENCE1-PadRX)*%
X78500000Y-68360000D03*
%TO.P,INFERENCE,SD0*%
%TO.N,N/C*%
X78500000Y-35340000D03*
%TO.P,INFERENCE,SD1*%
X78500000Y-37880000D03*
%TO.P,INFERENCE,SD2*%
X103900000Y-40420000D03*
%TO.P,INFERENCE,SD3*%
X103900000Y-37880000D03*
%TO.P,INFERENCE,TX,TX_TX*%
%TO.N,unconnected-(INFERENCE1-PadTX)*%
X78500000Y-70900000D03*
%TO.P,INFERENCE,VIN,VIN_VIN*%
%TO.N,unconnected-(INFERENCE1-PadVIN)*%
X103900000Y-32800000D03*
%TO.P,INFERENCE,VN,VN_VN*%
%TO.N,unconnected-(INFERENCE1-PadVN)*%
X103900000Y-70900000D03*
%TO.P,INFERENCE,VP,VP_VP*%
%TO.N,unconnected-(INFERENCE1-PadVP)*%
X103900000Y-73440000D03*
%TD*%
D13*
%TO.P,5VCC,1,1_1*%
%TO.N,/+5V_PWR*%
X144000000Y-50800000D03*
%TD*%
%TO.P,UOT,1,1_1*%
%TO.N,Net-(CM1-Pad1)*%
X144000000Y-75000000D03*
%TD*%
%TO.P,5GND,1,1_1*%
%TO.N,Net-(U5-Out-)*%
X144000000Y-56800000D03*
%TD*%
%TO.P,UOR,1,1_1*%
%TO.N,Net-(CM2-Pad1)*%
X144000000Y-67000000D03*
%TD*%
%TO.P,MVCC,1,1_1*%
%TO.N,/VBAT-*%
X144000000Y-36500000D03*
%TD*%
D14*
%TO.P,10kohmR,1,1_1*%
%TO.N,/+3V3_PWR*%
X123008000Y-150350000D03*
%TO.P,10kohmR,2,2_2*%
%TO.N,/SD_MISO*%
X123008000Y-137650000D03*
%TD*%
D13*
%TO.P,PG,1,1_1*%
%TO.N,/GND*%
X78754000Y-98000000D03*
%TD*%
D15*
%TO.P,BMS 2S 20A,1,B1+_1*%
%TO.N,/VBAT-*%
X79500000Y-118000000D03*
%TO.P,BMS 2S 20A,2,P+_2*%
%TO.N,/VCC_SYS*%
X79500000Y-133000000D03*
%TO.P,BMS 2S 20A,3,P-_3*%
%TO.N,/PWR_SW_IN*%
X117500000Y-128000000D03*
%TO.P,BMS 2S 20A,4,B1-_4*%
%TO.N,/VBAT+*%
X117500000Y-123000000D03*
%TD*%
D16*
%TO.P,MPU6050-IMU,1,INT_1*%
%TO.N,unconnected-(P1-INT-Pad1)*%
X78420000Y-139600000D03*
D17*
%TO.P,MPU6050-IMU,2,AD0_2*%
%TO.N,/GND*%
X80960000Y-139600000D03*
%TO.P,MPU6050-IMU,3,XCL_3*%
%TO.N,unconnected-(P1-XCL-Pad3)*%
X83500000Y-139600000D03*
%TO.P,MPU6050-IMU,4,XDA_4*%
%TO.N,unconnected-(P1-XDA-Pad4)*%
X86040000Y-139600000D03*
%TO.P,MPU6050-IMU,5,SDA_5*%
%TO.N,/I2S_SDA*%
X88580000Y-139600000D03*
%TO.P,MPU6050-IMU,6,SCL_6*%
%TO.N,/I2C_SCL*%
X91120000Y-139600000D03*
%TO.P,MPU6050-IMU,7,GND_7*%
%TO.N,/GND*%
X93660000Y-139600000D03*
%TO.P,MPU6050-IMU,8,VCC-3.3V_8*%
%TO.N,/+3V3_PWR*%
X96200000Y-139600000D03*
%TD*%
D13*
%TO.P,PS,1,1_1*%
%TO.N,Net-(CORE1-TX2{slash}D17)*%
X78754000Y-90500000D03*
%TD*%
D18*
%TO.P,PowerS,1,1_1*%
%TO.N,/GND*%
X79000000Y-111000000D03*
D19*
%TO.P,PowerS,2,2_2*%
%TO.N,/PWR_SW_IN*%
X79000000Y-104500000D03*
%TD*%
D13*
%TO.P,MGND,1,1_1*%
%TO.N,/VBAT+*%
X144000000Y-43000000D03*
%TD*%
D16*
%TO.P,SD-Card Adapter (SPI),1,CS_1*%
%TO.N,/SD_CS*%
X103445000Y-139600000D03*
D17*
%TO.P,SD-Card Adapter (SPI),2,SCK_2*%
%TO.N,/SD_SCK*%
X105985000Y-139600000D03*
%TO.P,SD-Card Adapter (SPI),3,MOSI_3*%
%TO.N,/SD_MOSI*%
X108525000Y-139600000D03*
%TO.P,SD-Card Adapter (SPI),4,MISO_4*%
%TO.N,/SD_MISO*%
X111065000Y-139600000D03*
%TO.P,SD-Card Adapter (SPI),5,VCC_5*%
%TO.N,/+3V3_PWR*%
X113605000Y-139600000D03*
%TO.P,SD-Card Adapter (SPI),6,GND_6*%
%TO.N,/GND*%
X116145000Y-139600000D03*
%TD*%
D16*
%TO.P,TFT-SPI (1.8),1,VCC_1*%
%TO.N,/+3V3_PWR*%
X129000000Y-149240000D03*
D17*
%TO.P,TFT-SPI (1.8),2,GND_2*%
%TO.N,/GND*%
X129000000Y-146700000D03*
%TO.P,TFT-SPI (1.8),3,CS_3*%
%TO.N,/TFT_CS*%
X129000000Y-144160000D03*
%TO.P,TFT-SPI (1.8),4,RST_4*%
%TO.N,/TFT_RST*%
X129000000Y-141620000D03*
%TO.P,TFT-SPI (1.8),5,A0_5*%
%TO.N,/TFT_DC*%
X129000000Y-139080000D03*
%TO.P,TFT-SPI (1.8),6,SDA_6*%
%TO.N,/SD_MOSI*%
X129000000Y-136540000D03*
%TO.P,TFT-SPI (1.8),7,SCK_7*%
%TO.N,/SD_SCK*%
X129000000Y-134000000D03*
%TO.P,TFT-SPI (1.8),8,LED_8*%
%TO.N,/+3V3_PWR*%
X129000000Y-131460000D03*
%TD*%
D13*
%TO.P,GND,1,1_1*%
%TO.N,/GND*%
X144000000Y-83500000D03*
%TD*%
%TO.P,3GND,1,1_1*%
%TO.N,/GND*%
X136000000Y-92000000D03*
%TD*%
%TO.P,3VCC,1,1_1*%
%TO.N,/+3V3_PWR*%
X136000000Y-84000000D03*
%TD*%
D20*
%TO.P,CA-1235 (5V),1,Out-_1*%
%TO.N,Net-(U5-Out-)*%
X145000000Y-99500000D03*
%TO.P,CA-1235 (5V),2,Out+_2*%
%TO.N,/+5V_PWR*%
X130000000Y-99500000D03*
%TO.P,CA-1235 (5V),3,In+_3*%
%TO.N,/VCC_SYS*%
X145000000Y-124500000D03*
%TO.P,CA-1235 (5V),4,In-_4*%
%TO.N,/GND*%
X130000000Y-124500000D03*
%TD*%
D13*
%TO.P,VCC,1,1_1*%
%TO.N,/+3V3_PWR*%
X144000000Y-91500000D03*
%TD*%
D21*
%TO.N,/GND*%
X126000000Y-128000000D03*
%TO.N,/VBAT+*%
X120650000Y-76200000D03*
%TO.N,/SD_CS*%
X85000000Y-106000000D03*
%TO.N,/TFT_CS*%
X131160000Y-144160000D03*
X134000000Y-147000000D03*
%TO.N,/TFT_RST*%
X132000000Y-142000000D03*
%TO.N,/TFT_DC*%
X112000000Y-118000000D03*
%TD*%
%TO.N,/+5V_PWR*%
D22*
X149000000Y-54000000D02*
X144000000Y-49000000D01*
X130000000Y-100000000D02*
X131300000Y-101300000D01*
X131300000Y-141497918D02*
X131150000Y-141647918D01*
X131150000Y-142352082D02*
X131647918Y-142850000D01*
X131300000Y-101300000D02*
X131300000Y-141497918D01*
X131150000Y-141647918D02*
X131150000Y-142352082D01*
X141150000Y-142850000D02*
X149000000Y-135000000D01*
X131647918Y-142850000D02*
X141150000Y-142850000D01*
X149000000Y-135000000D02*
X149000000Y-54000000D01*
%TO.N,/GND*%
D23*
X123748500Y-102748500D02*
X123748500Y-93427500D01*
X123245000Y-146700000D02*
X129000000Y-146700000D01*
D22*
X116145000Y-137855000D02*
X126000000Y-128000000D01*
D23*
X93660000Y-139600000D02*
X99060000Y-145000000D01*
X136000000Y-91500000D02*
X144000000Y-83500000D01*
D22*
X116145000Y-139600000D02*
X116145000Y-137855000D01*
D23*
X130000000Y-124000000D02*
X130000000Y-109000000D01*
X136000000Y-92000000D02*
X136000000Y-91500000D01*
X99060000Y-145000000D02*
X110745000Y-145000000D01*
X110745000Y-145000000D02*
X116145000Y-139600000D01*
X87578999Y-90100001D02*
X84251500Y-93427500D01*
X80960000Y-139040000D02*
X80960000Y-139600000D01*
X130000000Y-109000000D02*
X123748500Y-102748500D01*
X136000000Y-92000000D02*
X134100001Y-90100001D01*
X134100001Y-90100001D02*
X87578999Y-90100001D01*
X116145000Y-139600000D02*
X123245000Y-146700000D01*
%TO.N,/+3V3_PWR*%
X84251500Y-110572500D02*
X84251500Y-127651500D01*
D22*
X135472500Y-83472500D02*
X136000000Y-84000000D01*
D23*
X135472500Y-78465000D02*
X134068500Y-79869000D01*
X84251500Y-127651500D02*
X96200000Y-139600000D01*
X105249000Y-79869000D02*
X103900000Y-78520000D01*
X96200000Y-139600000D02*
X99600000Y-143000000D01*
X134068500Y-79869000D02*
X105249000Y-79869000D01*
X99600000Y-143000000D02*
X110205000Y-143000000D01*
X110205000Y-143000000D02*
X113605000Y-139600000D01*
D22*
X135472500Y-78465000D02*
X135472500Y-83472500D01*
%TO.N,/VBAT-*%
D24*
X79500000Y-118000000D02*
X76175000Y-114675000D01*
X76625000Y-31375000D02*
X138875000Y-31375000D01*
X76175000Y-114675000D02*
X76175000Y-31825000D01*
X138875000Y-31375000D02*
X144000000Y-36500000D01*
X76175000Y-31825000D02*
X76625000Y-31375000D01*
%TO.N,Net-(CORE1-PadD4)*%
D22*
X79554000Y-46986000D02*
X109073500Y-46986000D01*
X109073500Y-46986000D02*
X110072500Y-47985000D01*
X78500000Y-48040000D02*
X79554000Y-46986000D01*
%TO.N,Net-(CORE1-PadD5)*%
X109073500Y-54606000D02*
X110072500Y-55605000D01*
X79554000Y-54606000D02*
X109073500Y-54606000D01*
X78500000Y-55660000D02*
X79554000Y-54606000D01*
%TO.N,Net-(CORE1-RX2{slash}D16)*%
X79554000Y-52066000D02*
X108531500Y-52066000D01*
X108531500Y-52066000D02*
X110072500Y-50525000D01*
X78500000Y-53120000D02*
X79554000Y-52066000D01*
%TO.N,Net-(CORE1-PadD18)*%
X108963500Y-59254000D02*
X110072500Y-58145000D01*
X79986000Y-59254000D02*
X108963500Y-59254000D01*
X78500000Y-60740000D02*
X79986000Y-59254000D01*
%TO.N,/PWR_SW_IN*%
D23*
X79000000Y-104500000D02*
X94000000Y-104500000D01*
X94000000Y-104500000D02*
X117500000Y-128000000D01*
%TO.N,/VBAT+*%
D22*
X133410503Y-54451000D02*
X120650000Y-67211503D01*
X137861000Y-52540503D02*
X135950503Y-54451000D01*
X120650000Y-67211503D02*
X120650000Y-76200000D01*
X137861000Y-49139000D02*
X137861000Y-52540503D01*
X144000000Y-43000000D02*
X137861000Y-49139000D01*
X135950503Y-54451000D02*
X133410503Y-54451000D01*
%TO.N,/I2S_SDA*%
X77425000Y-103847613D02*
X81272613Y-100000000D01*
X81272613Y-100000000D02*
X81272613Y-92036805D01*
X103518418Y-69791000D02*
X104123918Y-69791000D01*
X81272613Y-92036805D02*
X103518418Y-69791000D01*
X109018500Y-61739000D02*
X110072500Y-60685000D01*
X109018500Y-64896418D02*
X109018500Y-61739000D01*
X104123918Y-69791000D02*
X109018500Y-64896418D01*
X82460000Y-110187387D02*
X77425000Y-105152387D01*
X88580000Y-139600000D02*
X82460000Y-133480000D01*
X82460000Y-133480000D02*
X82460000Y-110187387D01*
X77425000Y-105152387D02*
X77425000Y-103847613D01*
%TO.N,/I2C_SCL*%
X130300000Y-128300000D02*
X99000000Y-97000000D01*
X84241000Y-97000000D02*
X82460000Y-95219000D01*
X99070000Y-147550000D02*
X124710000Y-147550000D01*
X91120000Y-139600000D02*
X99070000Y-147550000D01*
X99000000Y-97000000D02*
X84241000Y-97000000D01*
X101760418Y-72335582D02*
X109023082Y-72335582D01*
X109023082Y-72335582D02*
X110072500Y-73385000D01*
X127700000Y-150540000D02*
X130300000Y-150540000D01*
X82460000Y-91636000D02*
X101760418Y-72335582D01*
X124710000Y-147550000D02*
X127700000Y-150540000D01*
X130300000Y-150540000D02*
X130300000Y-128300000D01*
X82460000Y-95219000D02*
X82460000Y-91636000D01*
%TO.N,/SD_CS*%
X103445000Y-139600000D02*
X103445000Y-124445000D01*
X103445000Y-124445000D02*
X85000000Y-106000000D01*
%TO.N,/TFT_CS*%
X134000000Y-147000000D02*
X131160000Y-144160000D01*
X131160000Y-144160000D02*
X130800000Y-144160000D01*
%TO.N,/TFT_RST*%
X141650000Y-77826598D02*
X146350000Y-82526598D01*
X141650000Y-64322500D02*
X141650000Y-77826598D01*
X135472500Y-58145000D02*
X141650000Y-64322500D01*
X146350000Y-82526598D02*
X146350000Y-127650000D01*
X146350000Y-127650000D02*
X132000000Y-142000000D01*
%TO.N,/TFT_DC*%
X112000000Y-118000000D02*
X117202082Y-118000000D01*
X127700000Y-128497918D02*
X127700000Y-137780000D01*
X117202082Y-118000000D02*
X127700000Y-128497918D01*
X127700000Y-137780000D02*
X129000000Y-139080000D01*
%TD*%
%TA.AperFunction,Conductor*%
%TO.N,/GND*%
G36*
X82128316Y-95807708D02*
G01*
X82134794Y-95813740D01*
X83826324Y-97505271D01*
X83826331Y-97505277D01*
X83932871Y-97576464D01*
X83932870Y-97576464D01*
X83967544Y-97590826D01*
X84051256Y-97625501D01*
X84051260Y-97625501D01*
X84051261Y-97625502D01*
X84176928Y-97650500D01*
X84176931Y-97650500D01*
X98679192Y-97650500D01*
X98746231Y-97670185D01*
X98766873Y-97686819D01*
X129613181Y-128533127D01*
X129646666Y-128594450D01*
X129649500Y-128620808D01*
X129649500Y-130080365D01*
X129629815Y-130147404D01*
X129577011Y-130193159D01*
X129507853Y-130203103D01*
X129487185Y-130198296D01*
X129316243Y-130142754D01*
X129316241Y-130142753D01*
X129316240Y-130142753D01*
X129154957Y-130117208D01*
X129106287Y-130109500D01*
X128893713Y-130109500D01*
X128845042Y-130117208D01*
X128683760Y-130142753D01*
X128683757Y-130142754D01*
X128512817Y-130198296D01*
X128442977Y-130200291D01*
X128383144Y-130164211D01*
X128352316Y-130101510D01*
X128350500Y-130080365D01*
X128350500Y-128433846D01*
X128325502Y-128308179D01*
X128325501Y-128308178D01*
X128325501Y-128308174D01*
X128276465Y-128189791D01*
X128253403Y-128155276D01*
X128205277Y-128083249D01*
X128205272Y-128083243D01*
X117616755Y-117494726D01*
X117616751Y-117494723D01*
X117510209Y-117423535D01*
X117391826Y-117374499D01*
X117391820Y-117374497D01*
X117266153Y-117349500D01*
X117266151Y-117349500D01*
X112674362Y-117349500D01*
X112607323Y-117329815D01*
X112586681Y-117313181D01*
X112574038Y-117300538D01*
X112574034Y-117300535D01*
X112426553Y-117201990D01*
X112426540Y-117201983D01*
X112262667Y-117134106D01*
X112262658Y-117134103D01*
X112088694Y-117099500D01*
X112088691Y-117099500D01*
X111911309Y-117099500D01*
X111911306Y-117099500D01*
X111737341Y-117134103D01*
X111737332Y-117134106D01*
X111573459Y-117201983D01*
X111573446Y-117201990D01*
X111425965Y-117300535D01*
X111425961Y-117300538D01*
X111300538Y-117425961D01*
X111300535Y-117425965D01*
X111201990Y-117573446D01*
X111201983Y-117573459D01*
X111134106Y-117737332D01*
X111134103Y-117737341D01*
X111099500Y-117911304D01*
X111099500Y-118088695D01*
X111134103Y-118262658D01*
X111134106Y-118262667D01*
X111201983Y-118426540D01*
X111201990Y-118426553D01*
X111300535Y-118574034D01*
X111300538Y-118574038D01*
X111425961Y-118699461D01*
X111425965Y-118699464D01*
X111573446Y-118798009D01*
X111573459Y-118798016D01*
X111696363Y-118848923D01*
X111737334Y-118865894D01*
X111737336Y-118865894D01*
X111737341Y-118865896D01*
X111911304Y-118900499D01*
X111911307Y-118900500D01*
X111911309Y-118900500D01*
X112088693Y-118900500D01*
X112088694Y-118900499D01*
X112146682Y-118888964D01*
X112262658Y-118865896D01*
X112262661Y-118865894D01*
X112262666Y-118865894D01*
X112426547Y-118798013D01*
X112574035Y-118699464D01*
X112574038Y-118699461D01*
X112586681Y-118686819D01*
X112648004Y-118653334D01*
X112674362Y-118650500D01*
X116881274Y-118650500D01*
X116948313Y-118670185D01*
X116968955Y-118686819D01*
X127013181Y-128731045D01*
X127046666Y-128792368D01*
X127049500Y-128818726D01*
X127049500Y-137844069D01*
X127049500Y-137844071D01*
X127049499Y-137844071D01*
X127074497Y-137969738D01*
X127074499Y-137969744D01*
X127123535Y-138088127D01*
X127193300Y-138192539D01*
X127194726Y-138194673D01*
X127194727Y-138194674D01*
X127649342Y-138649288D01*
X127682827Y-138710611D01*
X127682319Y-138758755D01*
X127683516Y-138758945D01*
X127649500Y-138973713D01*
X127649500Y-139186286D01*
X127664955Y-139283869D01*
X127682754Y-139396243D01*
X127691520Y-139423223D01*
X127748444Y-139598414D01*
X127844951Y-139787820D01*
X127969890Y-139959786D01*
X128120213Y-140110109D01*
X128292182Y-140235050D01*
X128300946Y-140239516D01*
X128351742Y-140287491D01*
X128368536Y-140355312D01*
X128345998Y-140421447D01*
X128300946Y-140460484D01*
X128292182Y-140464949D01*
X128120213Y-140589890D01*
X127969890Y-140740213D01*
X127844951Y-140912179D01*
X127748444Y-141101585D01*
X127682753Y-141303760D01*
X127649500Y-141513713D01*
X127649500Y-141726287D01*
X127682754Y-141936243D01*
X127709788Y-142019446D01*
X127748444Y-142138414D01*
X127844951Y-142327820D01*
X127969890Y-142499786D01*
X128120213Y-142650109D01*
X128292182Y-142775050D01*
X128300946Y-142779516D01*
X128351742Y-142827491D01*
X128368536Y-142895312D01*
X128345998Y-142961447D01*
X128300946Y-143000484D01*
X128292182Y-143004949D01*
X128120213Y-143129890D01*
X127969890Y-143280213D01*
X127844951Y-143452179D01*
X127748444Y-143641585D01*
X127682753Y-143843760D01*
X127649500Y-144053713D01*
X127649500Y-144266286D01*
X127682753Y-144476239D01*
X127748444Y-144678414D01*
X127844951Y-144867820D01*
X127969890Y-145039786D01*
X128120213Y-145190109D01*
X128292179Y-145315048D01*
X128292181Y-145315049D01*
X128292184Y-145315051D01*
X128301493Y-145319794D01*
X128352290Y-145367766D01*
X128369087Y-145435587D01*
X128346552Y-145501722D01*
X128301505Y-145540760D01*
X128292446Y-145545376D01*
X128292440Y-145545380D01*
X128238282Y-145584727D01*
X128238282Y-145584728D01*
X128870591Y-146217037D01*
X128807007Y-146234075D01*
X128692993Y-146299901D01*
X128599901Y-146392993D01*
X128534075Y-146507007D01*
X128517037Y-146570591D01*
X127884728Y-145938282D01*
X127884727Y-145938282D01*
X127845380Y-145992439D01*
X127748904Y-146181782D01*
X127683242Y-146383869D01*
X127683242Y-146383872D01*
X127650000Y-146593753D01*
X127650000Y-146806246D01*
X127683242Y-147016127D01*
X127683242Y-147016130D01*
X127748904Y-147218217D01*
X127845375Y-147407550D01*
X127884728Y-147461716D01*
X128517037Y-146829408D01*
X128534075Y-146892993D01*
X128599901Y-147007007D01*
X128692993Y-147100099D01*
X128807007Y-147165925D01*
X128870589Y-147182962D01*
X128200370Y-147853181D01*
X128139047Y-147886666D01*
X128112698Y-147889500D01*
X128102134Y-147889500D01*
X128102123Y-147889501D01*
X128042516Y-147895908D01*
X127907671Y-147946202D01*
X127907664Y-147946206D01*
X127792455Y-148032452D01*
X127792452Y-148032455D01*
X127706206Y-148147664D01*
X127706202Y-148147671D01*
X127655908Y-148282517D01*
X127649501Y-148342116D01*
X127649500Y-148342135D01*
X127649500Y-149270191D01*
X127629815Y-149337230D01*
X127577011Y-149382985D01*
X127507853Y-149392929D01*
X127444297Y-149363904D01*
X127437819Y-149357872D01*
X125124673Y-147044726D01*
X125124260Y-147044450D01*
X125018127Y-146973535D01*
X124899744Y-146924499D01*
X124899738Y-146924497D01*
X124774071Y-146899500D01*
X124774069Y-146899500D01*
X99390808Y-146899500D01*
X99323769Y-146879815D01*
X99303127Y-146863181D01*
X93601627Y-141161681D01*
X93568142Y-141100358D01*
X93573126Y-141030666D01*
X93614998Y-140974733D01*
X93680462Y-140950316D01*
X93689308Y-140950000D01*
X93766246Y-140950000D01*
X93976127Y-140916757D01*
X93976130Y-140916757D01*
X94178217Y-140851095D01*
X94367554Y-140754622D01*
X94421716Y-140715270D01*
X94421717Y-140715270D01*
X93789408Y-140082962D01*
X93852993Y-140065925D01*
X93967007Y-140000099D01*
X94060099Y-139907007D01*
X94125925Y-139792993D01*
X94142962Y-139729408D01*
X94775270Y-140361717D01*
X94775270Y-140361716D01*
X94814622Y-140307555D01*
X94819232Y-140298507D01*
X94867205Y-140247709D01*
X94935025Y-140230912D01*
X95001161Y-140253447D01*
X95040204Y-140298504D01*
X95044949Y-140307817D01*
X95169890Y-140479786D01*
X95320213Y-140630109D01*
X95492179Y-140755048D01*
X95492181Y-140755049D01*
X95492184Y-140755051D01*
X95681588Y-140851557D01*
X95883757Y-140917246D01*
X96093713Y-140950500D01*
X96225638Y-140950500D01*
X96292677Y-140970185D01*
X96313319Y-140986819D01*
X99025964Y-143699464D01*
X99046908Y-143713458D01*
X99046909Y-143713459D01*
X99173446Y-143798009D01*
X99173453Y-143798013D01*
X99246305Y-143828189D01*
X99337334Y-143865895D01*
X99511303Y-143900499D01*
X99511307Y-143900500D01*
X99511308Y-143900500D01*
X110293693Y-143900500D01*
X110293694Y-143900499D01*
X110467666Y-143865895D01*
X110558695Y-143828189D01*
X110631547Y-143798013D01*
X110758092Y-143713458D01*
X110779036Y-143699464D01*
X113491681Y-140986819D01*
X113553004Y-140953334D01*
X113579362Y-140950500D01*
X113711286Y-140950500D01*
X113711287Y-140950500D01*
X113921243Y-140917246D01*
X114123412Y-140851557D01*
X114312816Y-140755051D01*
X114399138Y-140692335D01*
X114484786Y-140630109D01*
X114484788Y-140630106D01*
X114484792Y-140630104D01*
X114635104Y-140479792D01*
X114635106Y-140479788D01*
X114635109Y-140479786D01*
X114720890Y-140361717D01*
X114760051Y-140307816D01*
X114764793Y-140298508D01*
X114812763Y-140247711D01*
X114880583Y-140230911D01*
X114946719Y-140253445D01*
X114985763Y-140298500D01*
X114990373Y-140307547D01*
X115029728Y-140361716D01*
X115662037Y-139729408D01*
X115679075Y-139792993D01*
X115744901Y-139907007D01*
X115837993Y-140000099D01*
X115952007Y-140065925D01*
X116015590Y-140082962D01*
X115383282Y-140715269D01*
X115383282Y-140715270D01*
X115437449Y-140754624D01*
X115626782Y-140851095D01*
X115828870Y-140916757D01*
X116038754Y-140950000D01*
X116251246Y-140950000D01*
X116461127Y-140916757D01*
X116461130Y-140916757D01*
X116663217Y-140851095D01*
X116852554Y-140754622D01*
X116906716Y-140715270D01*
X116906717Y-140715270D01*
X116274408Y-140082962D01*
X116337993Y-140065925D01*
X116452007Y-140000099D01*
X116545099Y-139907007D01*
X116610925Y-139792993D01*
X116627962Y-139729408D01*
X117260270Y-140361717D01*
X117260270Y-140361716D01*
X117299622Y-140307554D01*
X117396095Y-140118217D01*
X117461757Y-139916130D01*
X117461757Y-139916127D01*
X117495000Y-139706246D01*
X117495000Y-139493753D01*
X117461757Y-139283872D01*
X117461757Y-139283869D01*
X117396095Y-139081782D01*
X117299624Y-138892449D01*
X117260270Y-138838282D01*
X117260269Y-138838282D01*
X116627962Y-139470590D01*
X116610925Y-139407007D01*
X116545099Y-139292993D01*
X116452007Y-139199901D01*
X116337993Y-139134075D01*
X116274409Y-139117037D01*
X116906716Y-138484728D01*
X116852550Y-138445375D01*
X116663217Y-138348904D01*
X116461129Y-138283242D01*
X116251246Y-138250000D01*
X116038754Y-138250000D01*
X115828872Y-138283242D01*
X115828869Y-138283242D01*
X115626782Y-138348904D01*
X115437439Y-138445380D01*
X115383282Y-138484727D01*
X115383282Y-138484728D01*
X116015591Y-139117037D01*
X115952007Y-139134075D01*
X115837993Y-139199901D01*
X115744901Y-139292993D01*
X115679075Y-139407007D01*
X115662037Y-139470591D01*
X115029728Y-138838282D01*
X115029727Y-138838282D01*
X114990380Y-138892440D01*
X114990376Y-138892446D01*
X114985760Y-138901505D01*
X114937781Y-138952297D01*
X114869959Y-138969087D01*
X114803826Y-138946543D01*
X114764794Y-138901493D01*
X114760051Y-138892184D01*
X114760049Y-138892181D01*
X114760048Y-138892179D01*
X114635109Y-138720213D01*
X114484786Y-138569890D01*
X114312820Y-138444951D01*
X114123414Y-138348444D01*
X114123413Y-138348443D01*
X114123412Y-138348443D01*
X113921243Y-138282754D01*
X113921241Y-138282753D01*
X113921240Y-138282753D01*
X113759957Y-138257208D01*
X113711287Y-138249500D01*
X113498713Y-138249500D01*
X113450042Y-138257208D01*
X113288760Y-138282753D01*
X113086585Y-138348444D01*
X112897179Y-138444951D01*
X112725213Y-138569890D01*
X112574890Y-138720213D01*
X112449949Y-138892182D01*
X112445484Y-138900946D01*
X112397509Y-138951742D01*
X112329688Y-138968536D01*
X112263553Y-138945998D01*
X112224516Y-138900946D01*
X112220050Y-138892182D01*
X112095109Y-138720213D01*
X111944786Y-138569890D01*
X111772820Y-138444951D01*
X111583414Y-138348444D01*
X111583413Y-138348443D01*
X111583412Y-138348443D01*
X111381243Y-138282754D01*
X111381241Y-138282753D01*
X111381240Y-138282753D01*
X111219957Y-138257208D01*
X111171287Y-138249500D01*
X110958713Y-138249500D01*
X110910042Y-138257208D01*
X110748760Y-138282753D01*
X110546585Y-138348444D01*
X110357179Y-138444951D01*
X110185213Y-138569890D01*
X110034890Y-138720213D01*
X109909949Y-138892182D01*
X109905484Y-138900946D01*
X109857509Y-138951742D01*
X109789688Y-138968536D01*
X109723553Y-138945998D01*
X109684516Y-138900946D01*
X109680050Y-138892182D01*
X109555109Y-138720213D01*
X109404786Y-138569890D01*
X109232820Y-138444951D01*
X109043414Y-138348444D01*
X109043413Y-138348443D01*
X109043412Y-138348443D01*
X108841243Y-138282754D01*
X108841241Y-138282753D01*
X108841240Y-138282753D01*
X108679957Y-138257208D01*
X108631287Y-138249500D01*
X108418713Y-138249500D01*
X108370042Y-138257208D01*
X108208760Y-138282753D01*
X108006585Y-138348444D01*
X107817179Y-138444951D01*
X107645213Y-138569890D01*
X107494890Y-138720213D01*
X107369949Y-138892182D01*
X107365484Y-138900946D01*
X107317509Y-138951742D01*
X107249688Y-138968536D01*
X107183553Y-138945998D01*
X107144516Y-138900946D01*
X107140050Y-138892182D01*
X107015109Y-138720213D01*
X106864786Y-138569890D01*
X106692820Y-138444951D01*
X106503414Y-138348444D01*
X106503413Y-138348443D01*
X106503412Y-138348443D01*
X106301243Y-138282754D01*
X106301241Y-138282753D01*
X106301240Y-138282753D01*
X106139957Y-138257208D01*
X106091287Y-138249500D01*
X105878713Y-138249500D01*
X105830042Y-138257208D01*
X105668760Y-138282753D01*
X105466585Y-138348444D01*
X105277179Y-138444951D01*
X105105215Y-138569889D01*
X104991673Y-138683431D01*
X104930350Y-138716915D01*
X104860658Y-138711931D01*
X104804725Y-138670059D01*
X104787810Y-138639082D01*
X104738797Y-138507671D01*
X104738793Y-138507664D01*
X104652547Y-138392455D01*
X104652544Y-138392452D01*
X104537335Y-138306206D01*
X104537328Y-138306202D01*
X104402482Y-138255908D01*
X104402483Y-138255908D01*
X104342883Y-138249501D01*
X104342881Y-138249500D01*
X104342873Y-138249500D01*
X104342865Y-138249500D01*
X104219500Y-138249500D01*
X104152461Y-138229815D01*
X104106706Y-138177011D01*
X104095500Y-138125500D01*
X104095500Y-137547648D01*
X121707500Y-137547648D01*
X121707500Y-137752351D01*
X121739522Y-137954534D01*
X121802781Y-138149223D01*
X121895715Y-138331613D01*
X122016028Y-138497213D01*
X122160786Y-138641971D01*
X122294387Y-138739036D01*
X122326390Y-138762287D01*
X122442607Y-138821503D01*
X122508776Y-138855218D01*
X122508778Y-138855218D01*
X122508781Y-138855220D01*
X122613137Y-138889127D01*
X122703465Y-138918477D01*
X122804557Y-138934488D01*
X122905648Y-138950500D01*
X122905649Y-138950500D01*
X123110351Y-138950500D01*
X123110352Y-138950500D01*
X123312534Y-138918477D01*
X123507219Y-138855220D01*
X123689610Y-138762287D01*
X123816552Y-138670059D01*
X123855213Y-138641971D01*
X123855215Y-138641968D01*
X123855219Y-138641966D01*
X123999966Y-138497219D01*
X123999968Y-138497215D01*
X123999971Y-138497213D01*
X124076081Y-138392455D01*
X124120287Y-138331610D01*
X124213220Y-138149219D01*
X124276477Y-137954534D01*
X124308500Y-137752352D01*
X124308500Y-137547648D01*
X124276477Y-137345466D01*
X124213220Y-137150781D01*
X124213218Y-137150778D01*
X124213218Y-137150776D01*
X124179503Y-137084607D01*
X124120287Y-136968390D01*
X124112556Y-136957749D01*
X123999971Y-136802786D01*
X123855213Y-136658028D01*
X123689613Y-136537715D01*
X123689612Y-136537714D01*
X123689610Y-136537713D01*
X123632653Y-136508691D01*
X123507223Y-136444781D01*
X123312534Y-136381522D01*
X123137995Y-136353878D01*
X123110352Y-136349500D01*
X122905648Y-136349500D01*
X122881329Y-136353351D01*
X122703465Y-136381522D01*
X122508776Y-136444781D01*
X122326386Y-136537715D01*
X122160786Y-136658028D01*
X122016028Y-136802786D01*
X121895715Y-136968386D01*
X121802781Y-137150776D01*
X121739522Y-137345465D01*
X121707500Y-137547648D01*
X104095500Y-137547648D01*
X104095500Y-124380928D01*
X104070502Y-124255261D01*
X104070501Y-124255260D01*
X104070501Y-124255256D01*
X104021465Y-124136873D01*
X104021464Y-124136872D01*
X104021461Y-124136866D01*
X103950277Y-124030332D01*
X103907427Y-123987482D01*
X103859669Y-123939724D01*
X94942452Y-115022507D01*
X85936819Y-106016873D01*
X85903334Y-105955550D01*
X85900500Y-105929192D01*
X85900500Y-105911306D01*
X85900499Y-105911304D01*
X85865896Y-105737341D01*
X85865893Y-105737332D01*
X85797392Y-105571952D01*
X85789923Y-105502482D01*
X85821199Y-105440003D01*
X85881288Y-105404352D01*
X85911953Y-105400500D01*
X93575638Y-105400500D01*
X93642677Y-105420185D01*
X93663319Y-105436819D01*
X115463181Y-127236680D01*
X115496666Y-127298003D01*
X115499500Y-127324361D01*
X115499500Y-129047870D01*
X115499501Y-129047876D01*
X115505908Y-129107483D01*
X115556202Y-129242328D01*
X115556206Y-129242335D01*
X115642452Y-129357544D01*
X115642455Y-129357547D01*
X115757664Y-129443793D01*
X115757671Y-129443797D01*
X115892517Y-129494091D01*
X115892516Y-129494091D01*
X115899444Y-129494835D01*
X115952127Y-129500500D01*
X119047872Y-129500499D01*
X119107483Y-129494091D01*
X119242331Y-129443796D01*
X119357546Y-129357546D01*
X119443796Y-129242331D01*
X119494091Y-129107483D01*
X119500500Y-129047873D01*
X119500499Y-126952128D01*
X119494091Y-126892517D01*
X119443796Y-126757669D01*
X119443795Y-126757668D01*
X119443793Y-126757664D01*
X119357547Y-126642455D01*
X119357544Y-126642452D01*
X119242335Y-126556206D01*
X119242328Y-126556202D01*
X119107482Y-126505908D01*
X119107483Y-126505908D01*
X119047883Y-126499501D01*
X119047881Y-126499500D01*
X119047873Y-126499500D01*
X119047865Y-126499500D01*
X117324361Y-126499500D01*
X117257322Y-126479815D01*
X117236680Y-126463181D01*
X112809986Y-122036487D01*
X112725634Y-121952135D01*
X115499500Y-121952135D01*
X115499500Y-124047870D01*
X115499501Y-124047876D01*
X115505908Y-124107483D01*
X115556202Y-124242328D01*
X115556206Y-124242335D01*
X115642452Y-124357544D01*
X115642455Y-124357547D01*
X115757664Y-124443793D01*
X115757671Y-124443797D01*
X115892517Y-124494091D01*
X115892516Y-124494091D01*
X115899444Y-124494835D01*
X115952127Y-124500500D01*
X119047872Y-124500499D01*
X119107483Y-124494091D01*
X119242331Y-124443796D01*
X119357546Y-124357546D01*
X119443796Y-124242331D01*
X119494091Y-124107483D01*
X119500500Y-124047873D01*
X119500499Y-121952128D01*
X119494091Y-121892517D01*
X119443796Y-121757669D01*
X119443795Y-121757668D01*
X119443793Y-121757664D01*
X119357547Y-121642455D01*
X119357544Y-121642452D01*
X119242335Y-121556206D01*
X119242328Y-121556202D01*
X119107482Y-121505908D01*
X119107483Y-121505908D01*
X119047883Y-121499501D01*
X119047881Y-121499500D01*
X119047873Y-121499500D01*
X119047864Y-121499500D01*
X115952129Y-121499500D01*
X115952123Y-121499501D01*
X115892516Y-121505908D01*
X115757671Y-121556202D01*
X115757664Y-121556206D01*
X115642455Y-121642452D01*
X115642452Y-121642455D01*
X115556206Y-121757664D01*
X115556202Y-121757671D01*
X115505908Y-121892517D01*
X115499501Y-121952116D01*
X115499501Y-121952123D01*
X115499500Y-121952135D01*
X112725634Y-121952135D01*
X94574039Y-103800538D01*
X94574038Y-103800537D01*
X94555189Y-103787943D01*
X94499150Y-103750499D01*
X94426547Y-103701987D01*
X94426540Y-103701983D01*
X94320037Y-103657869D01*
X94262666Y-103634105D01*
X94262658Y-103634103D01*
X94088696Y-103599500D01*
X94088692Y-103599500D01*
X94088691Y-103599500D01*
X80418157Y-103599500D01*
X80351118Y-103579815D01*
X80317838Y-103548384D01*
X80311373Y-103539486D01*
X80294313Y-103516004D01*
X80239865Y-103441061D01*
X80058940Y-103260136D01*
X80058935Y-103260132D01*
X79851950Y-103109750D01*
X79851949Y-103109749D01*
X79851947Y-103109748D01*
X79778910Y-103072533D01*
X79623975Y-102993589D01*
X79623972Y-102993588D01*
X79495641Y-102951891D01*
X79437965Y-102912453D01*
X79410767Y-102848095D01*
X79422682Y-102779248D01*
X79446275Y-102746282D01*
X81777889Y-100414670D01*
X81849078Y-100308127D01*
X81898114Y-100189744D01*
X81902110Y-100169655D01*
X81923113Y-100064069D01*
X81923113Y-95901421D01*
X81942798Y-95834382D01*
X81995602Y-95788627D01*
X82064760Y-95778683D01*
X82128316Y-95807708D01*
G37*
%TD.AperFunction*%
%TA.AperFunction,Conductor*%
G36*
X136864349Y-60461353D02*
G01*
X136886491Y-60478937D01*
X140963181Y-64555627D01*
X140996666Y-64616950D01*
X140999500Y-64643308D01*
X140999500Y-77890667D01*
X141004160Y-77914092D01*
X141004160Y-77914094D01*
X141021771Y-78002632D01*
X141024499Y-78016342D01*
X141073535Y-78134725D01*
X141142506Y-78237949D01*
X141144726Y-78241271D01*
X141144727Y-78241272D01*
X145663181Y-82759725D01*
X145696666Y-82821048D01*
X145699500Y-82847406D01*
X145699500Y-89527463D01*
X145679815Y-89594502D01*
X145627011Y-89640257D01*
X145557853Y-89650201D01*
X145498188Y-89624410D01*
X145391293Y-89539164D01*
X145391291Y-89539163D01*
X145162994Y-89395714D01*
X144920082Y-89278734D01*
X144665602Y-89189687D01*
X144665594Y-89189684D01*
X144468446Y-89144687D01*
X144402732Y-89129688D01*
X144402728Y-89129687D01*
X144402719Y-89129686D01*
X144134813Y-89099500D01*
X144134809Y-89099500D01*
X143865191Y-89099500D01*
X143865186Y-89099500D01*
X143597280Y-89129686D01*
X143597268Y-89129688D01*
X143334405Y-89189684D01*
X143334397Y-89189687D01*
X143079917Y-89278734D01*
X142837005Y-89395714D01*
X142608712Y-89539161D01*
X142397915Y-89707265D01*
X142207265Y-89897915D01*
X142039161Y-90108712D01*
X141895714Y-90337005D01*
X141778734Y-90579917D01*
X141689687Y-90834397D01*
X141689684Y-90834405D01*
X141629688Y-91097268D01*
X141629686Y-91097280D01*
X141599500Y-91365186D01*
X141599500Y-91634813D01*
X141629686Y-91902719D01*
X141629687Y-91902728D01*
X141629688Y-91902732D01*
X141644687Y-91968446D01*
X141689684Y-92165594D01*
X141689687Y-92165602D01*
X141778734Y-92420082D01*
X141895714Y-92662994D01*
X141932328Y-92721265D01*
X142039162Y-92891289D01*
X142207266Y-93102085D01*
X142397915Y-93292734D01*
X142608711Y-93460838D01*
X142837003Y-93604284D01*
X143079921Y-93721267D01*
X143271049Y-93788145D01*
X143334397Y-93810312D01*
X143334405Y-93810315D01*
X143334408Y-93810315D01*
X143334409Y-93810316D01*
X143597268Y-93870312D01*
X143865187Y-93900499D01*
X143865188Y-93900500D01*
X143865191Y-93900500D01*
X144134812Y-93900500D01*
X144134812Y-93900499D01*
X144402732Y-93870312D01*
X144665591Y-93810316D01*
X144920079Y-93721267D01*
X145162997Y-93604284D01*
X145391289Y-93460838D01*
X145498189Y-93375588D01*
X145562874Y-93349181D01*
X145631569Y-93361936D01*
X145682463Y-93409807D01*
X145699500Y-93472536D01*
X145699500Y-98200500D01*
X145679815Y-98267539D01*
X145627011Y-98313294D01*
X145575500Y-98324500D01*
X144277129Y-98324500D01*
X144277123Y-98324501D01*
X144217516Y-98330908D01*
X144082671Y-98381202D01*
X144082664Y-98381206D01*
X143967455Y-98467452D01*
X143967452Y-98467455D01*
X143881206Y-98582664D01*
X143881202Y-98582671D01*
X143830908Y-98717517D01*
X143824501Y-98777116D01*
X143824501Y-98777123D01*
X143824500Y-98777135D01*
X143824500Y-100222870D01*
X143824501Y-100222876D01*
X143830908Y-100282483D01*
X143881202Y-100417328D01*
X143881206Y-100417335D01*
X143967452Y-100532544D01*
X143967455Y-100532547D01*
X144082664Y-100618793D01*
X144082671Y-100618797D01*
X144217517Y-100669091D01*
X144217516Y-100669091D01*
X144224444Y-100669835D01*
X144277127Y-100675500D01*
X145575500Y-100675499D01*
X145642539Y-100695184D01*
X145688294Y-100747987D01*
X145699500Y-100799499D01*
X145699500Y-123200500D01*
X145679815Y-123267539D01*
X145627011Y-123313294D01*
X145575500Y-123324500D01*
X144277129Y-123324500D01*
X144277123Y-123324501D01*
X144217516Y-123330908D01*
X144082671Y-123381202D01*
X144082664Y-123381206D01*
X143967455Y-123467452D01*
X143967452Y-123467455D01*
X143881206Y-123582664D01*
X143881202Y-123582671D01*
X143830908Y-123717517D01*
X143824501Y-123777116D01*
X143824500Y-123777135D01*
X143824500Y-125222870D01*
X143824501Y-125222876D01*
X143830908Y-125282483D01*
X143881202Y-125417328D01*
X143881206Y-125417335D01*
X143967452Y-125532544D01*
X143967455Y-125532547D01*
X144082664Y-125618793D01*
X144082671Y-125618797D01*
X144217517Y-125669091D01*
X144217516Y-125669091D01*
X144224444Y-125669835D01*
X144277127Y-125675500D01*
X145575500Y-125675499D01*
X145642539Y-125695184D01*
X145688294Y-125747987D01*
X145699500Y-125799499D01*
X145699500Y-127329192D01*
X145679815Y-127396231D01*
X145663181Y-127416873D01*
X132162181Y-140917873D01*
X132100858Y-140951358D01*
X132031166Y-140946374D01*
X131975233Y-140904502D01*
X131950816Y-140839038D01*
X131950500Y-140830192D01*
X131950500Y-101235928D01*
X131925502Y-101110260D01*
X131925500Y-101110254D01*
X131905189Y-101061221D01*
X131905187Y-101061216D01*
X131876468Y-100991878D01*
X131876462Y-100991868D01*
X131805278Y-100885332D01*
X131805272Y-100885325D01*
X131211818Y-100291872D01*
X131178333Y-100230549D01*
X131175499Y-100204200D01*
X131175499Y-98777128D01*
X131169091Y-98717517D01*
X131118796Y-98582669D01*
X131118795Y-98582668D01*
X131118793Y-98582664D01*
X131032547Y-98467455D01*
X131032544Y-98467452D01*
X130917335Y-98381206D01*
X130917328Y-98381202D01*
X130782482Y-98330908D01*
X130782483Y-98330908D01*
X130722883Y-98324501D01*
X130722881Y-98324500D01*
X130722873Y-98324500D01*
X130722864Y-98324500D01*
X129277129Y-98324500D01*
X129277123Y-98324501D01*
X129217516Y-98330908D01*
X129082671Y-98381202D01*
X129082664Y-98381206D01*
X128967455Y-98467452D01*
X128967452Y-98467455D01*
X128881206Y-98582664D01*
X128881202Y-98582671D01*
X128830908Y-98717517D01*
X128824501Y-98777116D01*
X128824501Y-98777123D01*
X128824500Y-98777135D01*
X128824500Y-100222870D01*
X128824501Y-100222876D01*
X128830908Y-100282483D01*
X128881202Y-100417328D01*
X128881206Y-100417335D01*
X128967452Y-100532544D01*
X128967455Y-100532547D01*
X129082664Y-100618793D01*
X129082671Y-100618797D01*
X129127618Y-100635561D01*
X129217517Y-100669091D01*
X129277127Y-100675500D01*
X129704191Y-100675499D01*
X129771230Y-100695183D01*
X129791872Y-100711818D01*
X130613181Y-101533127D01*
X130646666Y-101594450D01*
X130649500Y-101620808D01*
X130649500Y-123201000D01*
X130629815Y-123268039D01*
X130577011Y-123313794D01*
X130525500Y-123325000D01*
X130250000Y-123325000D01*
X130250000Y-124009252D01*
X130212292Y-123987482D01*
X130072409Y-123950000D01*
X129927591Y-123950000D01*
X129787708Y-123987482D01*
X129750000Y-124009252D01*
X129750000Y-123325000D01*
X129277155Y-123325000D01*
X129217627Y-123331401D01*
X129217620Y-123331403D01*
X129082913Y-123381645D01*
X129082906Y-123381649D01*
X128967812Y-123467809D01*
X128967809Y-123467812D01*
X128881649Y-123582906D01*
X128881645Y-123582913D01*
X128831403Y-123717620D01*
X128831401Y-123717627D01*
X128825000Y-123777155D01*
X128825000Y-124250000D01*
X129509252Y-124250000D01*
X129487482Y-124287708D01*
X129450000Y-124427591D01*
X129450000Y-124572409D01*
X129487482Y-124712292D01*
X129509252Y-124750000D01*
X128825000Y-124750000D01*
X128825000Y-125222844D01*
X128831401Y-125282372D01*
X128831403Y-125282379D01*
X128881645Y-125417086D01*
X128881649Y-125417093D01*
X128967809Y-125532187D01*
X128967812Y-125532190D01*
X129082906Y-125618350D01*
X129082913Y-125618354D01*
X129217620Y-125668596D01*
X129217627Y-125668598D01*
X129277155Y-125674999D01*
X129277172Y-125675000D01*
X129750000Y-125675000D01*
X129750000Y-124990747D01*
X129787708Y-125012518D01*
X129927591Y-125050000D01*
X130072409Y-125050000D01*
X130212292Y-125012518D01*
X130250000Y-124990747D01*
X130250000Y-125675000D01*
X130525500Y-125675000D01*
X130592539Y-125694685D01*
X130638294Y-125747489D01*
X130649500Y-125799000D01*
X130649500Y-127430191D01*
X130629815Y-127497230D01*
X130577011Y-127542985D01*
X130507853Y-127552929D01*
X130444297Y-127523904D01*
X130437819Y-127517872D01*
X112769283Y-109849336D01*
X116285500Y-109849336D01*
X116285500Y-110152663D01*
X116319457Y-110454048D01*
X116319460Y-110454062D01*
X116386953Y-110749771D01*
X116386957Y-110749783D01*
X116487133Y-111036068D01*
X116618733Y-111309338D01*
X116618735Y-111309341D01*
X116780108Y-111566164D01*
X116969221Y-111803304D01*
X117183696Y-112017779D01*
X117420836Y-112206892D01*
X117677659Y-112368265D01*
X117950935Y-112499868D01*
X118146646Y-112568350D01*
X118237216Y-112600042D01*
X118237228Y-112600046D01*
X118532937Y-112667540D01*
X118532946Y-112667541D01*
X118532951Y-112667542D01*
X118733874Y-112690180D01*
X118834337Y-112701499D01*
X118834340Y-112701500D01*
X118834343Y-112701500D01*
X119137660Y-112701500D01*
X119137661Y-112701499D01*
X119291694Y-112684144D01*
X119439048Y-112667542D01*
X119439051Y-112667541D01*
X119439063Y-112667540D01*
X119734772Y-112600046D01*
X120021065Y-112499868D01*
X120294341Y-112368265D01*
X120551164Y-112206892D01*
X120788304Y-112017779D01*
X121002779Y-111803304D01*
X121191892Y-111566164D01*
X121353265Y-111309341D01*
X121484868Y-111036065D01*
X121585046Y-110749772D01*
X121652540Y-110454063D01*
X121659280Y-110394245D01*
X121686346Y-110329830D01*
X121743940Y-110290275D01*
X121813777Y-110288136D01*
X121873684Y-110324094D01*
X121904640Y-110386732D01*
X121906500Y-110408127D01*
X121906500Y-111961870D01*
X121906501Y-111961876D01*
X121912908Y-112021483D01*
X121963202Y-112156328D01*
X121963206Y-112156335D01*
X122049452Y-112271544D01*
X122049455Y-112271547D01*
X122164664Y-112357793D01*
X122164671Y-112357797D01*
X122299517Y-112408091D01*
X122299516Y-112408091D01*
X122306444Y-112408835D01*
X122359127Y-112414500D01*
X125137872Y-112414499D01*
X125197483Y-112408091D01*
X125332331Y-112357796D01*
X125447546Y-112271546D01*
X125533796Y-112156331D01*
X125584091Y-112021483D01*
X125590500Y-111961873D01*
X125590499Y-109183128D01*
X125584091Y-109123517D01*
X125533796Y-108988669D01*
X125533795Y-108988668D01*
X125533793Y-108988664D01*
X125447547Y-108873455D01*
X125447544Y-108873452D01*
X125332335Y-108787206D01*
X125332328Y-108787202D01*
X125197482Y-108736908D01*
X125197483Y-108736908D01*
X125137883Y-108730501D01*
X125137881Y-108730500D01*
X125137873Y-108730500D01*
X125137864Y-108730500D01*
X122359129Y-108730500D01*
X122359123Y-108730501D01*
X122299516Y-108736908D01*
X122164671Y-108787202D01*
X122164664Y-108787206D01*
X122049455Y-108873452D01*
X122049452Y-108873455D01*
X121963206Y-108988664D01*
X121963202Y-108988671D01*
X121912908Y-109123517D01*
X121906501Y-109183116D01*
X121906501Y-109183123D01*
X121906500Y-109183135D01*
X121906500Y-109593869D01*
X121886815Y-109660908D01*
X121834011Y-109706663D01*
X121764853Y-109716607D01*
X121701297Y-109687582D01*
X121663523Y-109628804D01*
X121659280Y-109607752D01*
X121652542Y-109547951D01*
X121652541Y-109547946D01*
X121652540Y-109547937D01*
X121585046Y-109252228D01*
X121484868Y-108965935D01*
X121353265Y-108692659D01*
X121191892Y-108435836D01*
X121002779Y-108198696D01*
X120788304Y-107984221D01*
X120551164Y-107795108D01*
X120294341Y-107633735D01*
X120294338Y-107633733D01*
X120021068Y-107502133D01*
X119734783Y-107401957D01*
X119734771Y-107401953D01*
X119506556Y-107349864D01*
X119439063Y-107334460D01*
X119439060Y-107334459D01*
X119439048Y-107334457D01*
X119137663Y-107300500D01*
X119137657Y-107300500D01*
X118834343Y-107300500D01*
X118834336Y-107300500D01*
X118532951Y-107334457D01*
X118532937Y-107334460D01*
X118237228Y-107401953D01*
X118237216Y-107401957D01*
X117950931Y-107502133D01*
X117677661Y-107633733D01*
X117420837Y-107795107D01*
X117183696Y-107984220D01*
X116969220Y-108198696D01*
X116780107Y-108435837D01*
X116618733Y-108692661D01*
X116487133Y-108965931D01*
X116386957Y-109252216D01*
X116386953Y-109252228D01*
X116319460Y-109547937D01*
X116319457Y-109547951D01*
X116285500Y-109849336D01*
X112769283Y-109849336D01*
X99414673Y-96494726D01*
X99414669Y-96494723D01*
X99308127Y-96423535D01*
X99189744Y-96374499D01*
X99189738Y-96374497D01*
X99064071Y-96349500D01*
X99064069Y-96349500D01*
X90752203Y-96349500D01*
X90685164Y-96329815D01*
X90639409Y-96277011D01*
X90629465Y-96207853D01*
X90658490Y-96144297D01*
X90674890Y-96128553D01*
X90675320Y-96128209D01*
X90816304Y-96015779D01*
X91030779Y-95801304D01*
X91219892Y-95564164D01*
X91381265Y-95307341D01*
X91512868Y-95034065D01*
X91613046Y-94747772D01*
X91680540Y-94452063D01*
X91690152Y-94366758D01*
X91714499Y-94150663D01*
X91714500Y-94150659D01*
X91714500Y-93847340D01*
X91714499Y-93847338D01*
X91710327Y-93810312D01*
X91698058Y-93701415D01*
X91691141Y-93640022D01*
X91691141Y-93640021D01*
X91680542Y-93545950D01*
X91680540Y-93545945D01*
X91680540Y-93545937D01*
X91613046Y-93250228D01*
X91512868Y-92963935D01*
X91381265Y-92690659D01*
X91219892Y-92433836D01*
X91030779Y-92196696D01*
X90872238Y-92038155D01*
X121907000Y-92038155D01*
X121907000Y-93177500D01*
X123027270Y-93177500D01*
X123015783Y-93205233D01*
X122986500Y-93352450D01*
X122986500Y-93502550D01*
X123015783Y-93649767D01*
X123027270Y-93677500D01*
X121907000Y-93677500D01*
X121907000Y-94816844D01*
X121913401Y-94876372D01*
X121913403Y-94876379D01*
X121963645Y-95011086D01*
X121963649Y-95011093D01*
X122049809Y-95126187D01*
X122049812Y-95126190D01*
X122164906Y-95212350D01*
X122164913Y-95212354D01*
X122299620Y-95262596D01*
X122299627Y-95262598D01*
X122359155Y-95268999D01*
X122359172Y-95269000D01*
X123498500Y-95269000D01*
X123498500Y-94148729D01*
X123526233Y-94160217D01*
X123673450Y-94189500D01*
X123823550Y-94189500D01*
X123970767Y-94160217D01*
X123998500Y-94148729D01*
X123998500Y-95269000D01*
X125137828Y-95269000D01*
X125137844Y-95268999D01*
X125197372Y-95262598D01*
X125197379Y-95262596D01*
X125332086Y-95212354D01*
X125332093Y-95212350D01*
X125447187Y-95126190D01*
X125447190Y-95126187D01*
X125533350Y-95011093D01*
X125533354Y-95011086D01*
X125583596Y-94876379D01*
X125583598Y-94876372D01*
X125589999Y-94816844D01*
X125590000Y-94816827D01*
X125590000Y-93677500D01*
X124469730Y-93677500D01*
X124481217Y-93649767D01*
X124510500Y-93502550D01*
X124510500Y-93352450D01*
X124481217Y-93205233D01*
X124469730Y-93177500D01*
X125590000Y-93177500D01*
X125590000Y-92038172D01*
X125589999Y-92038155D01*
X125583598Y-91978627D01*
X125583596Y-91978620D01*
X125533354Y-91843913D01*
X125533350Y-91843906D01*
X125447190Y-91728812D01*
X125447187Y-91728809D01*
X125332093Y-91642649D01*
X125332086Y-91642645D01*
X125197379Y-91592403D01*
X125197372Y-91592401D01*
X125137844Y-91586000D01*
X123998500Y-91586000D01*
X123998500Y-92706270D01*
X123970767Y-92694783D01*
X123823550Y-92665500D01*
X123673450Y-92665500D01*
X123526233Y-92694783D01*
X123498500Y-92706270D01*
X123498500Y-91586000D01*
X122359155Y-91586000D01*
X122299627Y-91592401D01*
X122299620Y-91592403D01*
X122164913Y-91642645D01*
X122164906Y-91642649D01*
X122049812Y-91728809D01*
X122049809Y-91728812D01*
X121963649Y-91843906D01*
X121963645Y-91843913D01*
X121913403Y-91978620D01*
X121913401Y-91978627D01*
X121907000Y-92038155D01*
X90872238Y-92038155D01*
X90816304Y-91982221D01*
X90811797Y-91978627D01*
X90716612Y-91902719D01*
X90579164Y-91793108D01*
X90401785Y-91681653D01*
X90322338Y-91631733D01*
X90049068Y-91500133D01*
X89762783Y-91399957D01*
X89762771Y-91399953D01*
X89534556Y-91347864D01*
X89467063Y-91332460D01*
X89467060Y-91332459D01*
X89467048Y-91332457D01*
X89165663Y-91298500D01*
X89165657Y-91298500D01*
X88862343Y-91298500D01*
X88862336Y-91298500D01*
X88560951Y-91332457D01*
X88560937Y-91332460D01*
X88265228Y-91399953D01*
X88265216Y-91399957D01*
X87978931Y-91500133D01*
X87705661Y-91631733D01*
X87448837Y-91793107D01*
X87211696Y-91982220D01*
X86997220Y-92196696D01*
X86808107Y-92433837D01*
X86646733Y-92690661D01*
X86515133Y-92963931D01*
X86414957Y-93250216D01*
X86414953Y-93250228D01*
X86347460Y-93545937D01*
X86347458Y-93545949D01*
X86337199Y-93637001D01*
X86310132Y-93701415D01*
X86252538Y-93740970D01*
X86182701Y-93743107D01*
X86126298Y-93710798D01*
X86093000Y-93677500D01*
X84972730Y-93677500D01*
X84984217Y-93649767D01*
X85013500Y-93502550D01*
X85013500Y-93352450D01*
X84984217Y-93205233D01*
X84972730Y-93177500D01*
X86093000Y-93177500D01*
X86093000Y-92038172D01*
X86092999Y-92038155D01*
X86086598Y-91978627D01*
X86086596Y-91978620D01*
X86036354Y-91843913D01*
X86036350Y-91843906D01*
X85950190Y-91728812D01*
X85950187Y-91728809D01*
X85835093Y-91642649D01*
X85835086Y-91642645D01*
X85700379Y-91592403D01*
X85700372Y-91592401D01*
X85640844Y-91586000D01*
X84501500Y-91586000D01*
X84501500Y-92706270D01*
X84473767Y-92694783D01*
X84326550Y-92665500D01*
X84176450Y-92665500D01*
X84029233Y-92694783D01*
X84001500Y-92706270D01*
X84001500Y-91586000D01*
X83729308Y-91586000D01*
X83662269Y-91566315D01*
X83616514Y-91513511D01*
X83606570Y-91444353D01*
X83635595Y-91380797D01*
X83641627Y-91374319D01*
X89270233Y-85745713D01*
X106599500Y-85745713D01*
X106599500Y-85958287D01*
X106632754Y-86168243D01*
X106698410Y-86370311D01*
X106698444Y-86370414D01*
X106794951Y-86559820D01*
X106919890Y-86731786D01*
X107070213Y-86882109D01*
X107242179Y-87007048D01*
X107242181Y-87007049D01*
X107242184Y-87007051D01*
X107431588Y-87103557D01*
X107633757Y-87169246D01*
X107843713Y-87202500D01*
X107843714Y-87202500D01*
X108056286Y-87202500D01*
X108056287Y-87202500D01*
X108266243Y-87169246D01*
X108468412Y-87103557D01*
X108657816Y-87007051D01*
X108679789Y-86991086D01*
X108829786Y-86882109D01*
X108829788Y-86882106D01*
X108829792Y-86882104D01*
X108980104Y-86731792D01*
X108980106Y-86731788D01*
X108980109Y-86731786D01*
X109105048Y-86559820D01*
X109105047Y-86559820D01*
X109105051Y-86559816D01*
X109201557Y-86370412D01*
X109267246Y-86168243D01*
X109300500Y-85958287D01*
X109300500Y-85745713D01*
X109267246Y-85535757D01*
X109201557Y-85333588D01*
X109105051Y-85144184D01*
X109105049Y-85144181D01*
X109105048Y-85144179D01*
X108980109Y-84972213D01*
X108829786Y-84821890D01*
X108657820Y-84696951D01*
X108468414Y-84600444D01*
X108468413Y-84600443D01*
X108468412Y-84600443D01*
X108266243Y-84534754D01*
X108266241Y-84534753D01*
X108266240Y-84534753D01*
X108104957Y-84509208D01*
X108056287Y-84501500D01*
X107843713Y-84501500D01*
X107795042Y-84509208D01*
X107633760Y-84534753D01*
X107431585Y-84600444D01*
X107242179Y-84696951D01*
X107070213Y-84821890D01*
X106919890Y-84972213D01*
X106794951Y-85144179D01*
X106698444Y-85333585D01*
X106632753Y-85535760D01*
X106599500Y-85745713D01*
X89270233Y-85745713D01*
X101993545Y-73022401D01*
X102054868Y-72988916D01*
X102081226Y-72986082D01*
X102610328Y-72986082D01*
X102677367Y-73005767D01*
X102723122Y-73058571D01*
X102733066Y-73127729D01*
X102728258Y-73148402D01*
X102725161Y-73157932D01*
X102725157Y-73157946D01*
X102695500Y-73345199D01*
X102695500Y-73534800D01*
X102716446Y-73667050D01*
X102725158Y-73722055D01*
X102762507Y-73837003D01*
X102783747Y-73902372D01*
X102841795Y-74016296D01*
X102869819Y-74071296D01*
X102981259Y-74224679D01*
X103115321Y-74358741D01*
X103268704Y-74470181D01*
X103348515Y-74510846D01*
X103437627Y-74556252D01*
X103437629Y-74556252D01*
X103437632Y-74556254D01*
X103547860Y-74592069D01*
X103605534Y-74631507D01*
X103632732Y-74695866D01*
X103620817Y-74764712D01*
X103573573Y-74816188D01*
X103547861Y-74827929D01*
X103505838Y-74841583D01*
X103437627Y-74863747D01*
X103268703Y-74949819D01*
X103115319Y-75061260D01*
X102981260Y-75195319D01*
X102869819Y-75348703D01*
X102783747Y-75517627D01*
X102725157Y-75697949D01*
X102695500Y-75885199D01*
X102695500Y-76074800D01*
X102709469Y-76162997D01*
X102725158Y-76262055D01*
X102733814Y-76288695D01*
X102783747Y-76442372D01*
X102841795Y-76556296D01*
X102869819Y-76611296D01*
X102981259Y-76764679D01*
X103115321Y-76898741D01*
X103268704Y-77010181D01*
X103348515Y-77050846D01*
X103437627Y-77096252D01*
X103437629Y-77096252D01*
X103437632Y-77096254D01*
X103547860Y-77132069D01*
X103605534Y-77171507D01*
X103632732Y-77235866D01*
X103620817Y-77304712D01*
X103573573Y-77356188D01*
X103547861Y-77367929D01*
X103505838Y-77381583D01*
X103437627Y-77403747D01*
X103268703Y-77489819D01*
X103115319Y-77601260D01*
X102981260Y-77735319D01*
X102869819Y-77888703D01*
X102783747Y-78057627D01*
X102725157Y-78237949D01*
X102695500Y-78425199D01*
X102695500Y-78614800D01*
X102716447Y-78747055D01*
X102725158Y-78802055D01*
X102749192Y-78876023D01*
X102783747Y-78982372D01*
X102841795Y-79096296D01*
X102869819Y-79151296D01*
X102981259Y-79304679D01*
X103115321Y-79438741D01*
X103268704Y-79550181D01*
X103348515Y-79590846D01*
X103437627Y-79636252D01*
X103437629Y-79636252D01*
X103437632Y-79636254D01*
X103617945Y-79694842D01*
X103617951Y-79694843D01*
X103617949Y-79694843D01*
X103796060Y-79723052D01*
X103859195Y-79752981D01*
X103864344Y-79757844D01*
X104674966Y-80568466D01*
X104734036Y-80607933D01*
X104734039Y-80607936D01*
X104822449Y-80667010D01*
X104822453Y-80667013D01*
X104904393Y-80700953D01*
X104986334Y-80734895D01*
X105160303Y-80769499D01*
X105160307Y-80769500D01*
X105160308Y-80769500D01*
X134157193Y-80769500D01*
X134157194Y-80769499D01*
X134331166Y-80734895D01*
X134413106Y-80700953D01*
X134495047Y-80667013D01*
X134495049Y-80667011D01*
X134495052Y-80667010D01*
X134583455Y-80607939D01*
X134583455Y-80607938D01*
X134583459Y-80607936D01*
X134629113Y-80577432D01*
X134695789Y-80556557D01*
X134763169Y-80575043D01*
X134809858Y-80627023D01*
X134822000Y-80680537D01*
X134822000Y-81836610D01*
X134802315Y-81903649D01*
X134763972Y-81941604D01*
X134608712Y-82039161D01*
X134397915Y-82207265D01*
X134207265Y-82397915D01*
X134039161Y-82608712D01*
X133895714Y-82837005D01*
X133778734Y-83079917D01*
X133689687Y-83334397D01*
X133689684Y-83334405D01*
X133629688Y-83597268D01*
X133629686Y-83597280D01*
X133599500Y-83865186D01*
X133599500Y-84134813D01*
X133629686Y-84402719D01*
X133629688Y-84402731D01*
X133689684Y-84665594D01*
X133689687Y-84665602D01*
X133778734Y-84920082D01*
X133895714Y-85162994D01*
X133895716Y-85162997D01*
X134039162Y-85391289D01*
X134207266Y-85602085D01*
X134397915Y-85792734D01*
X134608711Y-85960838D01*
X134837003Y-86104284D01*
X135079921Y-86221267D01*
X135271049Y-86288145D01*
X135334397Y-86310312D01*
X135334405Y-86310315D01*
X135334408Y-86310315D01*
X135334409Y-86310316D01*
X135597268Y-86370312D01*
X135865187Y-86400499D01*
X135865188Y-86400500D01*
X135865191Y-86400500D01*
X136134812Y-86400500D01*
X136134812Y-86400499D01*
X136402732Y-86370312D01*
X136665591Y-86310316D01*
X136920079Y-86221267D01*
X137162997Y-86104284D01*
X137391289Y-85960838D01*
X137602085Y-85792734D01*
X137792734Y-85602085D01*
X137960838Y-85391289D01*
X138104284Y-85162997D01*
X138221267Y-84920079D01*
X138310316Y-84665591D01*
X138370312Y-84402732D01*
X138400500Y-84134809D01*
X138400500Y-83865191D01*
X138370312Y-83597268D01*
X138310316Y-83334409D01*
X138221267Y-83079921D01*
X138104284Y-82837003D01*
X137960838Y-82608711D01*
X137792734Y-82397915D01*
X137602085Y-82207266D01*
X137391289Y-82039162D01*
X137162997Y-81895716D01*
X137162994Y-81895714D01*
X136920082Y-81778734D01*
X136665602Y-81689687D01*
X136665594Y-81689684D01*
X136468446Y-81644687D01*
X136402732Y-81629688D01*
X136402728Y-81629687D01*
X136402719Y-81629686D01*
X136233116Y-81610576D01*
X136168702Y-81583509D01*
X136129147Y-81525914D01*
X136123000Y-81487356D01*
X136123000Y-79544408D01*
X136142685Y-79477369D01*
X136174112Y-79444092D01*
X136257179Y-79383741D01*
X136391241Y-79249679D01*
X136502681Y-79096296D01*
X136588754Y-78927368D01*
X136647342Y-78747055D01*
X136663818Y-78643022D01*
X136677000Y-78559800D01*
X136677000Y-78370199D01*
X136656580Y-78241272D01*
X136647342Y-78182945D01*
X136588754Y-78002632D01*
X136588752Y-78002629D01*
X136588752Y-78002627D01*
X136502680Y-77833703D01*
X136431201Y-77735321D01*
X136391241Y-77680321D01*
X136257179Y-77546259D01*
X136103796Y-77434819D01*
X135934868Y-77348746D01*
X135824639Y-77312930D01*
X135766965Y-77273493D01*
X135739767Y-77209135D01*
X135751682Y-77140288D01*
X135798926Y-77088813D01*
X135824638Y-77077070D01*
X135934868Y-77041254D01*
X136103796Y-76955181D01*
X136257179Y-76843741D01*
X136391241Y-76709679D01*
X136502681Y-76556296D01*
X136588754Y-76387368D01*
X136647342Y-76207055D01*
X136663818Y-76103022D01*
X136677000Y-76019800D01*
X136677000Y-75830199D01*
X136660523Y-75726171D01*
X136647342Y-75642945D01*
X136588754Y-75462632D01*
X136588752Y-75462629D01*
X136588752Y-75462627D01*
X136502680Y-75293703D01*
X136431201Y-75195321D01*
X136391241Y-75140321D01*
X136257179Y-75006259D01*
X136103796Y-74894819D01*
X135934868Y-74808746D01*
X135824639Y-74772930D01*
X135766965Y-74733493D01*
X135739767Y-74669135D01*
X135751682Y-74600288D01*
X135798926Y-74548813D01*
X135824638Y-74537070D01*
X135934868Y-74501254D01*
X136103796Y-74415181D01*
X136257179Y-74303741D01*
X136391241Y-74169679D01*
X136502681Y-74016296D01*
X136588754Y-73847368D01*
X136647342Y-73667055D01*
X136663818Y-73563022D01*
X136677000Y-73479800D01*
X136677000Y-73290199D01*
X136660523Y-73186171D01*
X136647342Y-73102945D01*
X136588754Y-72922632D01*
X136588752Y-72922629D01*
X136588752Y-72922627D01*
X136502680Y-72753703D01*
X136391241Y-72600321D01*
X136257179Y-72466259D01*
X136103796Y-72354819D01*
X135934868Y-72268746D01*
X135824639Y-72232930D01*
X135766965Y-72193493D01*
X135739767Y-72129135D01*
X135751682Y-72060288D01*
X135798926Y-72008813D01*
X135824638Y-71997070D01*
X135934868Y-71961254D01*
X136103796Y-71875181D01*
X136257179Y-71763741D01*
X136391241Y-71629679D01*
X136502681Y-71476296D01*
X136588754Y-71307368D01*
X136647342Y-71127055D01*
X136663818Y-71023022D01*
X136677000Y-70939800D01*
X136677000Y-70750199D01*
X136660523Y-70646171D01*
X136647342Y-70562945D01*
X136588754Y-70382632D01*
X136588752Y-70382629D01*
X136588752Y-70382627D01*
X136502680Y-70213703D01*
X136391241Y-70060321D01*
X136257179Y-69926259D01*
X136103796Y-69814819D01*
X135934868Y-69728746D01*
X135824639Y-69692930D01*
X135766965Y-69653493D01*
X135739767Y-69589135D01*
X135751682Y-69520288D01*
X135798926Y-69468813D01*
X135824638Y-69457070D01*
X135934868Y-69421254D01*
X136103796Y-69335181D01*
X136257179Y-69223741D01*
X136391241Y-69089679D01*
X136502681Y-68936296D01*
X136588754Y-68767368D01*
X136647342Y-68587055D01*
X136663818Y-68483022D01*
X136677000Y-68399800D01*
X136677000Y-68210199D01*
X136660523Y-68106171D01*
X136647342Y-68022945D01*
X136588754Y-67842632D01*
X136588752Y-67842629D01*
X136588752Y-67842627D01*
X136502680Y-67673703D01*
X136391241Y-67520321D01*
X136257179Y-67386259D01*
X136103796Y-67274819D01*
X135934868Y-67188746D01*
X135824639Y-67152930D01*
X135766965Y-67113493D01*
X135739767Y-67049135D01*
X135751682Y-66980288D01*
X135798926Y-66928813D01*
X135824638Y-66917070D01*
X135934868Y-66881254D01*
X136103796Y-66795181D01*
X136257179Y-66683741D01*
X136391241Y-66549679D01*
X136502681Y-66396296D01*
X136588754Y-66227368D01*
X136647342Y-66047055D01*
X136663818Y-65943022D01*
X136677000Y-65859800D01*
X136677000Y-65670199D01*
X136660523Y-65566171D01*
X136647342Y-65482945D01*
X136588754Y-65302632D01*
X136588752Y-65302629D01*
X136588752Y-65302627D01*
X136530704Y-65188703D01*
X136502681Y-65133704D01*
X136391241Y-64980321D01*
X136257179Y-64846259D01*
X136103796Y-64734819D01*
X135934868Y-64648746D01*
X135824639Y-64612930D01*
X135766965Y-64573493D01*
X135739767Y-64509135D01*
X135751682Y-64440288D01*
X135798926Y-64388813D01*
X135824638Y-64377070D01*
X135934868Y-64341254D01*
X136103796Y-64255181D01*
X136257179Y-64143741D01*
X136391241Y-64009679D01*
X136502681Y-63856296D01*
X136588754Y-63687368D01*
X136647342Y-63507055D01*
X136663818Y-63403022D01*
X136677000Y-63319800D01*
X136677000Y-63130199D01*
X136660523Y-63026171D01*
X136647342Y-62942945D01*
X136588754Y-62762632D01*
X136588752Y-62762629D01*
X136588752Y-62762627D01*
X136502680Y-62593703D01*
X136431201Y-62495321D01*
X136391241Y-62440321D01*
X136257179Y-62306259D01*
X136103796Y-62194819D01*
X135934868Y-62108746D01*
X135824639Y-62072930D01*
X135766965Y-62033493D01*
X135739767Y-61969135D01*
X135751682Y-61900288D01*
X135798926Y-61848813D01*
X135824638Y-61837070D01*
X135934868Y-61801254D01*
X136103796Y-61715181D01*
X136257179Y-61603741D01*
X136391241Y-61469679D01*
X136502681Y-61316296D01*
X136588754Y-61147368D01*
X136647342Y-60967055D01*
X136663818Y-60863022D01*
X136677000Y-60779800D01*
X136677000Y-60590205D01*
X136676337Y-60586021D01*
X136685290Y-60516727D01*
X136730284Y-60463273D01*
X136797034Y-60442631D01*
X136864349Y-60461353D01*
G37*
%TD.AperFunction*%
%TA.AperFunction,Conductor*%
G36*
X83315703Y-127696397D02*
G01*
X83353477Y-127755175D01*
X83356117Y-127765919D01*
X83385603Y-127914159D01*
X83385604Y-127914163D01*
X83385605Y-127914166D01*
X83403815Y-127958126D01*
X83403815Y-127958127D01*
X83453483Y-128078040D01*
X83453490Y-128078052D01*
X83505086Y-128155271D01*
X83505087Y-128155272D01*
X83505090Y-128155276D01*
X83528152Y-128189791D01*
X83552037Y-128225538D01*
X83552038Y-128225539D01*
X93401704Y-138075203D01*
X93435189Y-138136526D01*
X93430205Y-138206218D01*
X93388333Y-138262151D01*
X93348260Y-138280976D01*
X93348507Y-138281736D01*
X93141782Y-138348904D01*
X92952439Y-138445380D01*
X92898282Y-138484727D01*
X92898282Y-138484728D01*
X93530591Y-139117037D01*
X93467007Y-139134075D01*
X93352993Y-139199901D01*
X93259901Y-139292993D01*
X93194075Y-139407007D01*
X93177037Y-139470591D01*
X92544728Y-138838282D01*
X92544727Y-138838282D01*
X92505380Y-138892440D01*
X92505376Y-138892446D01*
X92500760Y-138901505D01*
X92452781Y-138952297D01*
X92384959Y-138969087D01*
X92318826Y-138946543D01*
X92279794Y-138901493D01*
X92275051Y-138892184D01*
X92275049Y-138892181D01*
X92275048Y-138892179D01*
X92150109Y-138720213D01*
X91999786Y-138569890D01*
X91827820Y-138444951D01*
X91638414Y-138348444D01*
X91638413Y-138348443D01*
X91638412Y-138348443D01*
X91436243Y-138282754D01*
X91436241Y-138282753D01*
X91436240Y-138282753D01*
X91274957Y-138257208D01*
X91226287Y-138249500D01*
X91013713Y-138249500D01*
X90965042Y-138257208D01*
X90803760Y-138282753D01*
X90601585Y-138348444D01*
X90412179Y-138444951D01*
X90240213Y-138569890D01*
X90089890Y-138720213D01*
X89964949Y-138892182D01*
X89960484Y-138900946D01*
X89912509Y-138951742D01*
X89844688Y-138968536D01*
X89778553Y-138945998D01*
X89739516Y-138900946D01*
X89735050Y-138892182D01*
X89610109Y-138720213D01*
X89459786Y-138569890D01*
X89287820Y-138444951D01*
X89098414Y-138348444D01*
X89098413Y-138348443D01*
X89098412Y-138348443D01*
X88896243Y-138282754D01*
X88896241Y-138282753D01*
X88896240Y-138282753D01*
X88734957Y-138257208D01*
X88686287Y-138249500D01*
X88473713Y-138249500D01*
X88363888Y-138266894D01*
X88258945Y-138283516D01*
X88258686Y-138281882D01*
X88196094Y-138278730D01*
X88149288Y-138249342D01*
X83146819Y-133246873D01*
X83113334Y-133185550D01*
X83110500Y-133159192D01*
X83110500Y-127790110D01*
X83130185Y-127723071D01*
X83182989Y-127677316D01*
X83252147Y-127667372D01*
X83315703Y-127696397D01*
G37*
%TD.AperFunction*%
%TA.AperFunction,Conductor*%
G36*
X77005703Y-92146968D02*
G01*
X77012181Y-92153000D01*
X77151915Y-92292734D01*
X77362711Y-92460838D01*
X77591003Y-92604284D01*
X77833921Y-92721267D01*
X78025049Y-92788145D01*
X78088397Y-92810312D01*
X78088405Y-92810315D01*
X78088408Y-92810315D01*
X78088409Y-92810316D01*
X78351268Y-92870312D01*
X78619187Y-92900499D01*
X78619188Y-92900500D01*
X78619191Y-92900500D01*
X78888812Y-92900500D01*
X78888812Y-92900499D01*
X79156732Y-92870312D01*
X79419591Y-92810316D01*
X79674079Y-92721267D01*
X79916997Y-92604284D01*
X80145289Y-92460838D01*
X80356085Y-92292734D01*
X80410432Y-92238387D01*
X80471755Y-92204902D01*
X80541447Y-92209886D01*
X80597380Y-92251758D01*
X80621797Y-92317222D01*
X80622113Y-92326068D01*
X80622113Y-99679191D01*
X80602428Y-99746230D01*
X80585794Y-99766872D01*
X77012181Y-103340485D01*
X76950858Y-103373970D01*
X76881166Y-103368986D01*
X76825233Y-103327114D01*
X76800816Y-103261650D01*
X76800500Y-103252804D01*
X76800500Y-92240681D01*
X76820185Y-92173642D01*
X76872989Y-92127887D01*
X76942147Y-92117943D01*
X77005703Y-92146968D01*
G37*
%TD.AperFunction*%
%TA.AperFunction,Conductor*%
G36*
X84501500Y-95269000D02*
G01*
X85640828Y-95269000D01*
X85640844Y-95268999D01*
X85700372Y-95262598D01*
X85700379Y-95262596D01*
X85835086Y-95212354D01*
X85835093Y-95212350D01*
X85950187Y-95126190D01*
X85950190Y-95126187D01*
X86036350Y-95011093D01*
X86036354Y-95011086D01*
X86086596Y-94876379D01*
X86086598Y-94876372D01*
X86092999Y-94816844D01*
X86093000Y-94816827D01*
X86093000Y-94401693D01*
X86112685Y-94334654D01*
X86165489Y-94288899D01*
X86234647Y-94278955D01*
X86298203Y-94307980D01*
X86335977Y-94366758D01*
X86340220Y-94387810D01*
X86347457Y-94452048D01*
X86347460Y-94452062D01*
X86414953Y-94747771D01*
X86414957Y-94747783D01*
X86515133Y-95034068D01*
X86646733Y-95307338D01*
X86646735Y-95307341D01*
X86808108Y-95564164D01*
X86949193Y-95741078D01*
X86997220Y-95801303D01*
X87211696Y-96015779D01*
X87353110Y-96128553D01*
X87393250Y-96185741D01*
X87396100Y-96255553D01*
X87360755Y-96315823D01*
X87298436Y-96347416D01*
X87275797Y-96349500D01*
X84561808Y-96349500D01*
X84494769Y-96329815D01*
X84474127Y-96313181D01*
X83641627Y-95480681D01*
X83608142Y-95419358D01*
X83613126Y-95349666D01*
X83654998Y-95293733D01*
X83720462Y-95269316D01*
X83729308Y-95269000D01*
X84001500Y-95269000D01*
X84001500Y-94148729D01*
X84029233Y-94160217D01*
X84176450Y-94189500D01*
X84326550Y-94189500D01*
X84473767Y-94160217D01*
X84501500Y-94148729D01*
X84501500Y-95269000D01*
G37*
%TD.AperFunction*%
%TA.AperFunction,Conductor*%
G36*
X150192539Y-29480185D02*
G01*
X150238294Y-29532989D01*
X150249500Y-29584500D01*
X150249500Y-153807300D01*
X150229815Y-153874339D01*
X150177011Y-153920094D01*
X150125500Y-153931300D01*
X75174500Y-153931300D01*
X75107461Y-153911615D01*
X75061706Y-153858811D01*
X75050500Y-153807300D01*
X75050500Y-150247648D01*
X121707500Y-150247648D01*
X121707500Y-150452351D01*
X121739522Y-150654534D01*
X121802781Y-150849223D01*
X121895715Y-151031613D01*
X122016028Y-151197213D01*
X122160786Y-151341971D01*
X122315749Y-151454556D01*
X122326390Y-151462287D01*
X122442607Y-151521503D01*
X122508776Y-151555218D01*
X122508778Y-151555218D01*
X122508781Y-151555220D01*
X122613137Y-151589127D01*
X122703465Y-151618477D01*
X122804557Y-151634488D01*
X122905648Y-151650500D01*
X122905649Y-151650500D01*
X123110351Y-151650500D01*
X123110352Y-151650500D01*
X123312534Y-151618477D01*
X123507219Y-151555220D01*
X123689610Y-151462287D01*
X123782590Y-151394732D01*
X123855213Y-151341971D01*
X123855215Y-151341968D01*
X123855219Y-151341966D01*
X123999966Y-151197219D01*
X123999968Y-151197215D01*
X123999971Y-151197213D01*
X124058640Y-151116461D01*
X124120287Y-151031610D01*
X124213220Y-150849219D01*
X124276477Y-150654534D01*
X124308500Y-150452352D01*
X124308500Y-150247648D01*
X124276477Y-150045466D01*
X124213220Y-149850781D01*
X124213218Y-149850778D01*
X124213218Y-149850776D01*
X124179503Y-149784607D01*
X124120287Y-149668390D01*
X124112556Y-149657749D01*
X123999971Y-149502786D01*
X123855213Y-149358028D01*
X123689613Y-149237715D01*
X123689612Y-149237714D01*
X123689610Y-149237713D01*
X123632653Y-149208691D01*
X123507223Y-149144781D01*
X123312534Y-149081522D01*
X123137995Y-149053878D01*
X123110352Y-149049500D01*
X122905648Y-149049500D01*
X122881329Y-149053351D01*
X122703465Y-149081522D01*
X122508776Y-149144781D01*
X122326386Y-149237715D01*
X122160786Y-149358028D01*
X122016028Y-149502786D01*
X121895715Y-149668386D01*
X121802781Y-149850776D01*
X121739522Y-150045465D01*
X121707500Y-150247648D01*
X75050500Y-150247648D01*
X75050500Y-131952135D01*
X77499500Y-131952135D01*
X77499500Y-134047870D01*
X77499501Y-134047876D01*
X77505908Y-134107483D01*
X77556202Y-134242328D01*
X77556206Y-134242335D01*
X77642452Y-134357544D01*
X77642455Y-134357547D01*
X77757664Y-134443793D01*
X77757671Y-134443797D01*
X77892517Y-134494091D01*
X77892516Y-134494091D01*
X77899444Y-134494835D01*
X77952127Y-134500500D01*
X81047872Y-134500499D01*
X81107483Y-134494091D01*
X81242331Y-134443796D01*
X81357546Y-134357546D01*
X81443796Y-134242331D01*
X81494091Y-134107483D01*
X81500500Y-134047873D01*
X81500499Y-131952128D01*
X81494091Y-131892517D01*
X81443796Y-131757669D01*
X81443795Y-131757668D01*
X81443793Y-131757664D01*
X81357547Y-131642455D01*
X81357544Y-131642452D01*
X81242335Y-131556206D01*
X81242328Y-131556202D01*
X81107482Y-131505908D01*
X81107483Y-131505908D01*
X81047883Y-131499501D01*
X81047881Y-131499500D01*
X81047873Y-131499500D01*
X81047864Y-131499500D01*
X77952129Y-131499500D01*
X77952123Y-131499501D01*
X77892516Y-131505908D01*
X77757671Y-131556202D01*
X77757664Y-131556206D01*
X77642455Y-131642452D01*
X77642452Y-131642455D01*
X77556206Y-131757664D01*
X77556202Y-131757671D01*
X77505908Y-131892517D01*
X77499501Y-131952116D01*
X77499501Y-131952123D01*
X77499500Y-131952135D01*
X75050500Y-131952135D01*
X75050500Y-31763389D01*
X75549500Y-31763389D01*
X75549500Y-114736611D01*
X75573535Y-114857444D01*
X75573540Y-114857461D01*
X75620685Y-114971280D01*
X75620690Y-114971289D01*
X75654914Y-115022507D01*
X75654915Y-115022509D01*
X75689141Y-115073733D01*
X75780586Y-115165178D01*
X75780608Y-115165198D01*
X77464154Y-116848744D01*
X77497639Y-116910067D01*
X77499765Y-116949659D01*
X77499500Y-116952120D01*
X77499500Y-119047870D01*
X77499501Y-119047876D01*
X77505908Y-119107483D01*
X77556202Y-119242328D01*
X77556206Y-119242335D01*
X77642452Y-119357544D01*
X77642455Y-119357547D01*
X77757664Y-119443793D01*
X77757671Y-119443797D01*
X77892517Y-119494091D01*
X77892516Y-119494091D01*
X77899444Y-119494835D01*
X77952127Y-119500500D01*
X81047872Y-119500499D01*
X81107483Y-119494091D01*
X81242331Y-119443796D01*
X81357546Y-119357546D01*
X81443796Y-119242331D01*
X81494091Y-119107483D01*
X81500500Y-119047873D01*
X81500499Y-116952128D01*
X81494091Y-116892517D01*
X81443796Y-116757669D01*
X81443795Y-116757668D01*
X81443793Y-116757664D01*
X81357547Y-116642455D01*
X81357544Y-116642452D01*
X81242335Y-116556206D01*
X81242328Y-116556202D01*
X81107482Y-116505908D01*
X81107483Y-116505908D01*
X81047883Y-116499501D01*
X81047881Y-116499500D01*
X81047873Y-116499500D01*
X81047865Y-116499500D01*
X78935452Y-116499500D01*
X78868413Y-116479815D01*
X78847771Y-116463181D01*
X76836819Y-114452229D01*
X76803334Y-114390906D01*
X76800500Y-114364548D01*
X76800500Y-109827155D01*
X77375000Y-109827155D01*
X77375000Y-110750000D01*
X78399999Y-110750000D01*
X78374979Y-110810402D01*
X78350000Y-110935981D01*
X78350000Y-111064019D01*
X78374979Y-111189598D01*
X78399999Y-111250000D01*
X77375000Y-111250000D01*
X77375000Y-112172844D01*
X77381401Y-112232372D01*
X77381403Y-112232379D01*
X77431645Y-112367086D01*
X77431649Y-112367093D01*
X77517809Y-112482187D01*
X77517812Y-112482190D01*
X77632906Y-112568350D01*
X77632913Y-112568354D01*
X77767620Y-112618596D01*
X77767627Y-112618598D01*
X77827155Y-112624999D01*
X77827172Y-112625000D01*
X78750000Y-112625000D01*
X78750000Y-111600001D01*
X78810402Y-111625021D01*
X78935981Y-111650000D01*
X79064019Y-111650000D01*
X79189598Y-111625021D01*
X79250000Y-111600001D01*
X79250000Y-112625000D01*
X80172828Y-112625000D01*
X80172844Y-112624999D01*
X80232372Y-112618598D01*
X80232379Y-112618596D01*
X80367086Y-112568354D01*
X80367093Y-112568350D01*
X80482187Y-112482190D01*
X80482190Y-112482187D01*
X80568350Y-112367093D01*
X80568354Y-112367086D01*
X80618596Y-112232379D01*
X80618598Y-112232372D01*
X80624999Y-112172844D01*
X80625000Y-112172827D01*
X80625000Y-111250000D01*
X79600001Y-111250000D01*
X79625021Y-111189598D01*
X79650000Y-111064019D01*
X79650000Y-110935981D01*
X79625021Y-110810402D01*
X79600001Y-110750000D01*
X80625000Y-110750000D01*
X80625000Y-109827172D01*
X80624999Y-109827155D01*
X80618598Y-109767627D01*
X80618596Y-109767620D01*
X80568354Y-109632913D01*
X80568350Y-109632906D01*
X80482190Y-109517812D01*
X80482187Y-109517809D01*
X80367093Y-109431649D01*
X80367086Y-109431645D01*
X80232379Y-109381403D01*
X80232372Y-109381401D01*
X80172844Y-109375000D01*
X79250000Y-109375000D01*
X79250000Y-110399998D01*
X79189598Y-110374979D01*
X79064019Y-110350000D01*
X78935981Y-110350000D01*
X78810402Y-110374979D01*
X78750000Y-110399998D01*
X78750000Y-109375000D01*
X77827155Y-109375000D01*
X77767627Y-109381401D01*
X77767620Y-109381403D01*
X77632913Y-109431645D01*
X77632906Y-109431649D01*
X77517812Y-109517809D01*
X77517809Y-109517812D01*
X77431649Y-109632906D01*
X77431645Y-109632913D01*
X77381403Y-109767620D01*
X77381401Y-109767627D01*
X77375000Y-109827155D01*
X76800500Y-109827155D01*
X76800500Y-105747195D01*
X76820185Y-105680156D01*
X76872989Y-105634401D01*
X76942147Y-105624457D01*
X77005703Y-105653482D01*
X77012181Y-105659514D01*
X81773181Y-110420514D01*
X81806666Y-110481837D01*
X81809500Y-110508195D01*
X81809500Y-133544069D01*
X81809500Y-133544071D01*
X81809499Y-133544071D01*
X81828141Y-133637782D01*
X81828141Y-133637783D01*
X81834496Y-133669737D01*
X81834498Y-133669742D01*
X81883534Y-133788125D01*
X81954726Y-133894673D01*
X81954727Y-133894674D01*
X86097873Y-138037819D01*
X86131358Y-138099142D01*
X86126374Y-138168834D01*
X86084502Y-138224767D01*
X86019038Y-138249184D01*
X86010192Y-138249500D01*
X85933713Y-138249500D01*
X85885042Y-138257208D01*
X85723760Y-138282753D01*
X85521585Y-138348444D01*
X85332179Y-138444951D01*
X85160213Y-138569890D01*
X85009890Y-138720213D01*
X84884949Y-138892182D01*
X84880484Y-138900946D01*
X84832509Y-138951742D01*
X84764688Y-138968536D01*
X84698553Y-138945998D01*
X84659516Y-138900946D01*
X84655050Y-138892182D01*
X84530109Y-138720213D01*
X84379786Y-138569890D01*
X84207820Y-138444951D01*
X84018414Y-138348444D01*
X84018413Y-138348443D01*
X84018412Y-138348443D01*
X83816243Y-138282754D01*
X83816241Y-138282753D01*
X83816240Y-138282753D01*
X83654957Y-138257208D01*
X83606287Y-138249500D01*
X83393713Y-138249500D01*
X83345042Y-138257208D01*
X83183760Y-138282753D01*
X82981585Y-138348444D01*
X82792179Y-138444951D01*
X82620213Y-138569890D01*
X82469890Y-138720213D01*
X82344949Y-138892182D01*
X82340202Y-138901499D01*
X82292227Y-138952293D01*
X82224405Y-138969087D01*
X82158271Y-138946548D01*
X82119234Y-138901495D01*
X82114626Y-138892452D01*
X82075270Y-138838282D01*
X82075269Y-138838282D01*
X81442962Y-139470590D01*
X81425925Y-139407007D01*
X81360099Y-139292993D01*
X81267007Y-139199901D01*
X81152993Y-139134075D01*
X81089409Y-139117037D01*
X81721716Y-138484728D01*
X81667550Y-138445375D01*
X81478217Y-138348904D01*
X81276129Y-138283242D01*
X81066246Y-138250000D01*
X80853754Y-138250000D01*
X80643872Y-138283242D01*
X80643869Y-138283242D01*
X80441782Y-138348904D01*
X80252439Y-138445380D01*
X80198282Y-138484727D01*
X80198282Y-138484728D01*
X80830591Y-139117037D01*
X80767007Y-139134075D01*
X80652993Y-139199901D01*
X80559901Y-139292993D01*
X80494075Y-139407007D01*
X80477037Y-139470591D01*
X79806818Y-138800372D01*
X79773333Y-138739049D01*
X79773330Y-138739036D01*
X79770499Y-138726015D01*
X79770499Y-138702128D01*
X79764091Y-138642517D01*
X79735926Y-138567002D01*
X79713798Y-138507673D01*
X79713793Y-138507664D01*
X79627547Y-138392455D01*
X79627544Y-138392452D01*
X79512335Y-138306206D01*
X79512328Y-138306202D01*
X79377482Y-138255908D01*
X79377483Y-138255908D01*
X79317883Y-138249501D01*
X79317881Y-138249500D01*
X79317873Y-138249500D01*
X79317864Y-138249500D01*
X77522129Y-138249500D01*
X77522123Y-138249501D01*
X77462516Y-138255908D01*
X77327671Y-138306202D01*
X77327664Y-138306206D01*
X77212455Y-138392452D01*
X77212452Y-138392455D01*
X77126206Y-138507664D01*
X77126202Y-138507671D01*
X77075908Y-138642517D01*
X77069501Y-138702116D01*
X77069500Y-138702135D01*
X77069500Y-140497870D01*
X77069501Y-140497876D01*
X77075908Y-140557483D01*
X77126202Y-140692328D01*
X77126206Y-140692335D01*
X77212452Y-140807544D01*
X77212455Y-140807547D01*
X77327664Y-140893793D01*
X77327671Y-140893797D01*
X77462517Y-140944091D01*
X77462516Y-140944091D01*
X77469444Y-140944835D01*
X77522127Y-140950500D01*
X79317872Y-140950499D01*
X79377483Y-140944091D01*
X79512331Y-140893796D01*
X79627546Y-140807546D01*
X79713796Y-140692331D01*
X79764091Y-140557483D01*
X79770500Y-140497873D01*
X79770499Y-140473979D01*
X79773330Y-140460963D01*
X79783940Y-140441525D01*
X79790179Y-140420275D01*
X79806803Y-140399643D01*
X79806808Y-140399636D01*
X79806811Y-140399634D01*
X79806818Y-140399626D01*
X80477037Y-139729408D01*
X80494075Y-139792993D01*
X80559901Y-139907007D01*
X80652993Y-140000099D01*
X80767007Y-140065925D01*
X80830590Y-140082962D01*
X80198282Y-140715269D01*
X80198282Y-140715270D01*
X80252449Y-140754624D01*
X80441782Y-140851095D01*
X80643870Y-140916757D01*
X80853754Y-140950000D01*
X81066246Y-140950000D01*
X81276127Y-140916757D01*
X81276130Y-140916757D01*
X81478217Y-140851095D01*
X81667554Y-140754622D01*
X81721716Y-140715270D01*
X81721717Y-140715270D01*
X81089408Y-140082962D01*
X81152993Y-140065925D01*
X81267007Y-140000099D01*
X81360099Y-139907007D01*
X81425925Y-139792993D01*
X81442962Y-139729408D01*
X82075270Y-140361717D01*
X82075270Y-140361716D01*
X82114622Y-140307555D01*
X82119232Y-140298507D01*
X82167205Y-140247709D01*
X82235025Y-140230912D01*
X82301161Y-140253447D01*
X82340204Y-140298504D01*
X82344949Y-140307817D01*
X82469890Y-140479786D01*
X82620213Y-140630109D01*
X82792179Y-140755048D01*
X82792181Y-140755049D01*
X82792184Y-140755051D01*
X82981588Y-140851557D01*
X83183757Y-140917246D01*
X83393713Y-140950500D01*
X83393714Y-140950500D01*
X83606286Y-140950500D01*
X83606287Y-140950500D01*
X83816243Y-140917246D01*
X84018412Y-140851557D01*
X84207816Y-140755051D01*
X84294138Y-140692335D01*
X84379786Y-140630109D01*
X84379788Y-140630106D01*
X84379792Y-140630104D01*
X84530104Y-140479792D01*
X84530106Y-140479788D01*
X84530109Y-140479786D01*
X84655048Y-140307820D01*
X84655047Y-140307820D01*
X84655051Y-140307816D01*
X84659514Y-140299054D01*
X84707488Y-140248259D01*
X84775308Y-140231463D01*
X84841444Y-140253999D01*
X84880486Y-140299056D01*
X84884951Y-140307820D01*
X85009890Y-140479786D01*
X85160213Y-140630109D01*
X85332179Y-140755048D01*
X85332181Y-140755049D01*
X85332184Y-140755051D01*
X85521588Y-140851557D01*
X85723757Y-140917246D01*
X85933713Y-140950500D01*
X85933714Y-140950500D01*
X86146286Y-140950500D01*
X86146287Y-140950500D01*
X86356243Y-140917246D01*
X86558412Y-140851557D01*
X86747816Y-140755051D01*
X86834138Y-140692335D01*
X86919786Y-140630109D01*
X86919788Y-140630106D01*
X86919792Y-140630104D01*
X87070104Y-140479792D01*
X87070106Y-140479788D01*
X87070109Y-140479786D01*
X87195048Y-140307820D01*
X87195047Y-140307820D01*
X87195051Y-140307816D01*
X87199514Y-140299054D01*
X87247488Y-140248259D01*
X87315308Y-140231463D01*
X87381444Y-140253999D01*
X87420486Y-140299056D01*
X87424951Y-140307820D01*
X87549890Y-140479786D01*
X87700213Y-140630109D01*
X87872179Y-140755048D01*
X87872181Y-140755049D01*
X87872184Y-140755051D01*
X88061588Y-140851557D01*
X88263757Y-140917246D01*
X88473713Y-140950500D01*
X88473714Y-140950500D01*
X88686286Y-140950500D01*
X88686287Y-140950500D01*
X88896243Y-140917246D01*
X89098412Y-140851557D01*
X89287816Y-140755051D01*
X89374138Y-140692335D01*
X89459786Y-140630109D01*
X89459788Y-140630106D01*
X89459792Y-140630104D01*
X89610104Y-140479792D01*
X89610106Y-140479788D01*
X89610109Y-140479786D01*
X89735048Y-140307820D01*
X89735047Y-140307820D01*
X89735051Y-140307816D01*
X89739514Y-140299054D01*
X89787488Y-140248259D01*
X89855308Y-140231463D01*
X89921444Y-140253999D01*
X89960486Y-140299056D01*
X89964951Y-140307820D01*
X90089890Y-140479786D01*
X90240213Y-140630109D01*
X90412179Y-140755048D01*
X90412181Y-140755049D01*
X90412184Y-140755051D01*
X90601588Y-140851557D01*
X90803757Y-140917246D01*
X91013713Y-140950500D01*
X91013714Y-140950500D01*
X91226286Y-140950500D01*
X91226287Y-140950500D01*
X91336111Y-140933105D01*
X91441055Y-140916484D01*
X91441315Y-140918128D01*
X91503852Y-140921250D01*
X91550711Y-140950657D01*
X98655325Y-148055272D01*
X98655326Y-148055273D01*
X98655329Y-148055275D01*
X98655331Y-148055277D01*
X98761873Y-148126465D01*
X98880256Y-148175501D01*
X98880260Y-148175501D01*
X98880261Y-148175502D01*
X99005928Y-148200500D01*
X99005931Y-148200500D01*
X124389192Y-148200500D01*
X124456231Y-148220185D01*
X124476873Y-148236819D01*
X127285325Y-151045272D01*
X127285330Y-151045276D01*
X127285331Y-151045277D01*
X127391874Y-151116466D01*
X127461221Y-151145189D01*
X127510256Y-151165501D01*
X127510259Y-151165501D01*
X127510260Y-151165502D01*
X127635928Y-151190500D01*
X127635931Y-151190500D01*
X130364071Y-151190500D01*
X130448615Y-151173682D01*
X130489744Y-151165501D01*
X130608127Y-151116465D01*
X130714669Y-151045276D01*
X130805276Y-150954669D01*
X130876465Y-150848127D01*
X130925501Y-150729744D01*
X130950500Y-150604069D01*
X130950500Y-145184500D01*
X130970185Y-145117461D01*
X131022989Y-145071706D01*
X131074500Y-145060500D01*
X131089192Y-145060500D01*
X131156231Y-145080185D01*
X131176873Y-145096819D01*
X133063181Y-146983127D01*
X133096666Y-147044450D01*
X133099500Y-147070808D01*
X133099500Y-147088695D01*
X133134103Y-147262658D01*
X133134106Y-147262667D01*
X133201983Y-147426540D01*
X133201990Y-147426553D01*
X133300535Y-147574034D01*
X133300538Y-147574038D01*
X133425961Y-147699461D01*
X133425965Y-147699464D01*
X133573446Y-147798009D01*
X133573459Y-147798016D01*
X133696363Y-147848923D01*
X133737334Y-147865894D01*
X133737336Y-147865894D01*
X133737341Y-147865896D01*
X133911304Y-147900499D01*
X133911307Y-147900500D01*
X133911309Y-147900500D01*
X134088693Y-147900500D01*
X134088694Y-147900499D01*
X134158239Y-147886666D01*
X134262658Y-147865896D01*
X134262661Y-147865894D01*
X134262666Y-147865894D01*
X134426547Y-147798013D01*
X134574035Y-147699464D01*
X134699464Y-147574035D01*
X134798013Y-147426547D01*
X134865894Y-147262666D01*
X134900500Y-147088691D01*
X134900500Y-146911309D01*
X134900500Y-146911306D01*
X134900499Y-146911304D01*
X134865896Y-146737341D01*
X134865893Y-146737332D01*
X134798016Y-146573459D01*
X134798009Y-146573446D01*
X134699464Y-146425965D01*
X134699461Y-146425961D01*
X134574038Y-146300538D01*
X134574034Y-146300535D01*
X134426553Y-146201990D01*
X134426540Y-146201983D01*
X134262667Y-146134106D01*
X134262658Y-146134103D01*
X134088694Y-146099500D01*
X134088691Y-146099500D01*
X134070808Y-146099500D01*
X134003769Y-146079815D01*
X133983127Y-146063181D01*
X132096819Y-144176873D01*
X132063334Y-144115550D01*
X132060500Y-144089192D01*
X132060500Y-144071306D01*
X132060499Y-144071304D01*
X132025896Y-143897341D01*
X132025893Y-143897332D01*
X131958016Y-143733459D01*
X131958009Y-143733446D01*
X131931245Y-143693391D01*
X131910367Y-143626713D01*
X131928851Y-143559333D01*
X131980830Y-143512643D01*
X132034347Y-143500500D01*
X141214071Y-143500500D01*
X141298615Y-143483682D01*
X141339744Y-143475501D01*
X141458127Y-143426465D01*
X141564669Y-143355277D01*
X149505276Y-135414670D01*
X149576465Y-135308127D01*
X149625501Y-135189744D01*
X149632402Y-135155051D01*
X149650500Y-135064069D01*
X149650500Y-53935931D01*
X149650500Y-53935928D01*
X149625502Y-53810261D01*
X149625501Y-53810260D01*
X149625501Y-53810256D01*
X149576465Y-53691873D01*
X149574461Y-53688874D01*
X149562458Y-53670909D01*
X149505275Y-53585328D01*
X149505272Y-53585325D01*
X146407735Y-50487789D01*
X146374250Y-50426466D01*
X146372197Y-50414000D01*
X146370312Y-50397268D01*
X146310316Y-50134409D01*
X146304445Y-50117632D01*
X146245335Y-49948704D01*
X146221267Y-49879921D01*
X146104284Y-49637003D01*
X145960838Y-49408711D01*
X145792734Y-49197915D01*
X145602085Y-49007266D01*
X145391289Y-48839162D01*
X145162997Y-48695716D01*
X145162994Y-48695714D01*
X144920082Y-48578734D01*
X144665602Y-48489687D01*
X144665594Y-48489684D01*
X144468446Y-48444687D01*
X144402732Y-48429688D01*
X144402728Y-48429687D01*
X144402719Y-48429686D01*
X144310577Y-48419304D01*
X144277008Y-48410645D01*
X144189744Y-48374499D01*
X144189736Y-48374497D01*
X144064073Y-48349501D01*
X144064069Y-48349501D01*
X143935931Y-48349501D01*
X143935926Y-48349501D01*
X143810263Y-48374496D01*
X143810259Y-48374498D01*
X143810257Y-48374498D01*
X143810256Y-48374499D01*
X143777530Y-48388054D01*
X143722990Y-48410645D01*
X143689424Y-48419303D01*
X143597278Y-48429686D01*
X143597268Y-48429688D01*
X143334405Y-48489684D01*
X143334397Y-48489687D01*
X143079917Y-48578734D01*
X142837005Y-48695714D01*
X142608712Y-48839161D01*
X142397915Y-49007265D01*
X142207265Y-49197915D01*
X142039161Y-49408712D01*
X141895714Y-49637005D01*
X141778734Y-49879917D01*
X141689687Y-50134397D01*
X141689684Y-50134405D01*
X141629688Y-50397268D01*
X141629686Y-50397280D01*
X141599500Y-50665186D01*
X141599500Y-50934813D01*
X141629686Y-51202719D01*
X141629688Y-51202731D01*
X141689684Y-51465594D01*
X141689687Y-51465602D01*
X141778734Y-51720082D01*
X141895714Y-51962994D01*
X141895716Y-51962997D01*
X142039162Y-52191289D01*
X142207266Y-52402085D01*
X142397915Y-52592734D01*
X142608711Y-52760838D01*
X142837003Y-52904284D01*
X143079921Y-53021267D01*
X143271049Y-53088145D01*
X143334397Y-53110312D01*
X143334405Y-53110315D01*
X143334408Y-53110315D01*
X143334409Y-53110316D01*
X143597268Y-53170312D01*
X143865187Y-53200499D01*
X143865188Y-53200500D01*
X143865191Y-53200500D01*
X144134812Y-53200500D01*
X144134812Y-53200499D01*
X144402732Y-53170312D01*
X144665591Y-53110316D01*
X144920079Y-53021267D01*
X145162997Y-52904284D01*
X145391289Y-52760838D01*
X145602085Y-52592734D01*
X145792734Y-52402085D01*
X145960838Y-52191289D01*
X145997929Y-52132259D01*
X146050264Y-52085968D01*
X146119317Y-52075320D01*
X146183166Y-52103695D01*
X146190604Y-52110550D01*
X148313181Y-54233127D01*
X148346666Y-54294450D01*
X148349500Y-54320808D01*
X148349500Y-134679192D01*
X148329815Y-134746231D01*
X148313181Y-134766873D01*
X140916873Y-142163181D01*
X140855550Y-142196666D01*
X140829192Y-142199500D01*
X133024500Y-142199500D01*
X132957461Y-142179815D01*
X132911706Y-142127011D01*
X132900500Y-142075500D01*
X132900500Y-142070808D01*
X132920185Y-142003769D01*
X132936819Y-141983127D01*
X146855272Y-128064674D01*
X146855277Y-128064669D01*
X146926466Y-127958126D01*
X146975501Y-127839743D01*
X146997420Y-127729554D01*
X147000500Y-127714071D01*
X147000500Y-82462526D01*
X146975502Y-82336859D01*
X146975501Y-82336858D01*
X146975501Y-82336854D01*
X146926465Y-82218471D01*
X146918978Y-82207266D01*
X146855277Y-82111929D01*
X146855275Y-82111927D01*
X146855273Y-82111924D01*
X142336819Y-77593470D01*
X142303334Y-77532147D01*
X142300500Y-77505789D01*
X142300500Y-76972536D01*
X142320185Y-76905497D01*
X142372989Y-76859742D01*
X142442147Y-76849798D01*
X142501810Y-76875588D01*
X142608711Y-76960838D01*
X142837003Y-77104284D01*
X143079921Y-77221267D01*
X143229175Y-77273493D01*
X143334397Y-77310312D01*
X143334405Y-77310315D01*
X143334408Y-77310315D01*
X143334409Y-77310316D01*
X143597268Y-77370312D01*
X143865187Y-77400499D01*
X143865188Y-77400500D01*
X143865191Y-77400500D01*
X144134812Y-77400500D01*
X144134812Y-77400499D01*
X144402732Y-77370312D01*
X144665591Y-77310316D01*
X144920079Y-77221267D01*
X145162997Y-77104284D01*
X145391289Y-76960838D01*
X145602085Y-76792734D01*
X145792734Y-76602085D01*
X145960838Y-76391289D01*
X146104284Y-76162997D01*
X146221267Y-75920079D01*
X146310316Y-75665591D01*
X146370312Y-75402732D01*
X146400500Y-75134809D01*
X146400500Y-74865191D01*
X146370312Y-74597268D01*
X146310316Y-74334409D01*
X146221267Y-74079921D01*
X146104284Y-73837003D01*
X145960838Y-73608711D01*
X145792734Y-73397915D01*
X145602085Y-73207266D01*
X145391289Y-73039162D01*
X145162997Y-72895716D01*
X145162994Y-72895714D01*
X144920082Y-72778734D01*
X144665602Y-72689687D01*
X144665594Y-72689684D01*
X144468446Y-72644687D01*
X144402732Y-72629688D01*
X144402728Y-72629687D01*
X144402719Y-72629686D01*
X144134813Y-72599500D01*
X144134809Y-72599500D01*
X143865191Y-72599500D01*
X143865186Y-72599500D01*
X143597280Y-72629686D01*
X143597268Y-72629688D01*
X143334405Y-72689684D01*
X143334397Y-72689687D01*
X143079917Y-72778734D01*
X142837005Y-72895714D01*
X142608708Y-73039163D01*
X142608706Y-73039164D01*
X142501812Y-73124410D01*
X142437126Y-73150819D01*
X142368430Y-73138062D01*
X142317537Y-73090192D01*
X142300500Y-73027463D01*
X142300500Y-68972536D01*
X142320185Y-68905497D01*
X142372989Y-68859742D01*
X142442147Y-68849798D01*
X142501810Y-68875588D01*
X142608711Y-68960838D01*
X142837003Y-69104284D01*
X143079921Y-69221267D01*
X143242887Y-69278291D01*
X143334397Y-69310312D01*
X143334405Y-69310315D01*
X143334408Y-69310315D01*
X143334409Y-69310316D01*
X143597268Y-69370312D01*
X143865187Y-69400499D01*
X143865188Y-69400500D01*
X143865191Y-69400500D01*
X144134812Y-69400500D01*
X144134812Y-69400499D01*
X144402732Y-69370312D01*
X144665591Y-69310316D01*
X144920079Y-69221267D01*
X145162997Y-69104284D01*
X145391289Y-68960838D01*
X145602085Y-68792734D01*
X145792734Y-68602085D01*
X145960838Y-68391289D01*
X146104284Y-68162997D01*
X146221267Y-67920079D01*
X146310316Y-67665591D01*
X146370312Y-67402732D01*
X146400500Y-67134809D01*
X146400500Y-66865191D01*
X146370312Y-66597268D01*
X146310316Y-66334409D01*
X146221267Y-66079921D01*
X146104284Y-65837003D01*
X145960838Y-65608711D01*
X145792734Y-65397915D01*
X145602085Y-65207266D01*
X145391289Y-65039162D01*
X145162997Y-64895716D01*
X145162994Y-64895714D01*
X144920082Y-64778734D01*
X144665602Y-64689687D01*
X144665594Y-64689684D01*
X144459513Y-64642648D01*
X144402732Y-64629688D01*
X144402728Y-64629687D01*
X144402719Y-64629686D01*
X144134813Y-64599500D01*
X144134809Y-64599500D01*
X143865191Y-64599500D01*
X143865186Y-64599500D01*
X143597280Y-64629686D01*
X143597268Y-64629688D01*
X143334405Y-64689684D01*
X143334397Y-64689687D01*
X143079917Y-64778734D01*
X142837005Y-64895714D01*
X142608708Y-65039163D01*
X142608706Y-65039164D01*
X142501812Y-65124410D01*
X142437126Y-65150819D01*
X142368430Y-65138062D01*
X142317537Y-65090192D01*
X142300500Y-65027463D01*
X142300500Y-64258428D01*
X142275502Y-64132761D01*
X142275501Y-64132760D01*
X142275501Y-64132756D01*
X142247303Y-64064680D01*
X142226466Y-64014374D01*
X142223334Y-64009687D01*
X142223329Y-64009679D01*
X142155276Y-63907830D01*
X142155274Y-63907827D01*
X142155273Y-63907826D01*
X136695730Y-58448284D01*
X136662245Y-58386961D01*
X136660938Y-58341207D01*
X136669985Y-58284086D01*
X136677000Y-58239800D01*
X136677000Y-58050199D01*
X136660523Y-57946171D01*
X136647342Y-57862945D01*
X136588754Y-57682632D01*
X136588752Y-57682629D01*
X136588752Y-57682627D01*
X136502680Y-57513703D01*
X136391241Y-57360321D01*
X136257179Y-57226259D01*
X136103796Y-57114819D01*
X135934868Y-57028746D01*
X135824639Y-56992930D01*
X135766965Y-56953493D01*
X135739767Y-56889135D01*
X135751682Y-56820288D01*
X135798926Y-56768813D01*
X135824638Y-56757070D01*
X135934868Y-56721254D01*
X136044908Y-56665186D01*
X141599500Y-56665186D01*
X141599500Y-56934813D01*
X141629686Y-57202719D01*
X141629688Y-57202731D01*
X141689684Y-57465594D01*
X141689687Y-57465602D01*
X141778734Y-57720082D01*
X141895714Y-57962994D01*
X141895716Y-57962997D01*
X142039162Y-58191289D01*
X142207266Y-58402085D01*
X142397915Y-58592734D01*
X142608711Y-58760838D01*
X142837003Y-58904284D01*
X143079921Y-59021267D01*
X143271049Y-59088145D01*
X143334397Y-59110312D01*
X143334405Y-59110315D01*
X143334408Y-59110315D01*
X143334409Y-59110316D01*
X143597268Y-59170312D01*
X143865187Y-59200499D01*
X143865188Y-59200500D01*
X143865191Y-59200500D01*
X144134812Y-59200500D01*
X144134812Y-59200499D01*
X144402732Y-59170312D01*
X144665591Y-59110316D01*
X144920079Y-59021267D01*
X145162997Y-58904284D01*
X145391289Y-58760838D01*
X145602085Y-58592734D01*
X145792734Y-58402085D01*
X145960838Y-58191289D01*
X146104284Y-57962997D01*
X146221267Y-57720079D01*
X146310316Y-57465591D01*
X146370312Y-57202732D01*
X146400500Y-56934809D01*
X146400500Y-56665191D01*
X146370312Y-56397268D01*
X146310316Y-56134409D01*
X146221267Y-55879921D01*
X146104284Y-55637003D01*
X145960838Y-55408711D01*
X145792734Y-55197915D01*
X145602085Y-55007266D01*
X145391289Y-54839162D01*
X145162997Y-54695716D01*
X145162994Y-54695714D01*
X144920082Y-54578734D01*
X144665602Y-54489687D01*
X144665594Y-54489684D01*
X144468446Y-54444687D01*
X144402732Y-54429688D01*
X144402728Y-54429687D01*
X144402719Y-54429686D01*
X144134813Y-54399500D01*
X144134809Y-54399500D01*
X143865191Y-54399500D01*
X143865186Y-54399500D01*
X143597280Y-54429686D01*
X143597268Y-54429688D01*
X143334405Y-54489684D01*
X143334397Y-54489687D01*
X143079917Y-54578734D01*
X142837005Y-54695714D01*
X142608712Y-54839161D01*
X142397915Y-55007265D01*
X142207265Y-55197915D01*
X142039161Y-55408712D01*
X141895714Y-55637005D01*
X141778734Y-55879917D01*
X141689687Y-56134397D01*
X141689684Y-56134405D01*
X141629688Y-56397268D01*
X141629686Y-56397280D01*
X141599500Y-56665186D01*
X136044908Y-56665186D01*
X136103796Y-56635181D01*
X136257179Y-56523741D01*
X136391241Y-56389679D01*
X136502681Y-56236296D01*
X136588754Y-56067368D01*
X136647342Y-55887055D01*
X136663818Y-55783022D01*
X136677000Y-55699800D01*
X136677000Y-55510199D01*
X136658675Y-55394502D01*
X136647342Y-55322945D01*
X136588754Y-55142632D01*
X136588752Y-55142629D01*
X136588752Y-55142627D01*
X136502681Y-54973704D01*
X136499731Y-54969644D01*
X136476252Y-54903837D01*
X136492078Y-54835784D01*
X136512365Y-54809082D01*
X138366277Y-52955172D01*
X138437465Y-52848630D01*
X138462683Y-52787749D01*
X138486501Y-52730247D01*
X138496783Y-52678559D01*
X138511500Y-52604574D01*
X138511500Y-49459807D01*
X138531185Y-49392768D01*
X138547814Y-49372131D01*
X142760386Y-45159558D01*
X142821707Y-45126075D01*
X142891399Y-45131059D01*
X142901867Y-45135521D01*
X143079921Y-45221267D01*
X143271049Y-45288145D01*
X143334397Y-45310312D01*
X143334405Y-45310315D01*
X143334408Y-45310315D01*
X143334409Y-45310316D01*
X143597268Y-45370312D01*
X143865187Y-45400499D01*
X143865188Y-45400500D01*
X143865191Y-45400500D01*
X144134812Y-45400500D01*
X144134812Y-45400499D01*
X144402732Y-45370312D01*
X144665591Y-45310316D01*
X144920079Y-45221267D01*
X145162997Y-45104284D01*
X145391289Y-44960838D01*
X145602085Y-44792734D01*
X145792734Y-44602085D01*
X145960838Y-44391289D01*
X146104284Y-44162997D01*
X146221267Y-43920079D01*
X146310316Y-43665591D01*
X146370312Y-43402732D01*
X146400500Y-43134809D01*
X146400500Y-42865191D01*
X146370312Y-42597268D01*
X146310316Y-42334409D01*
X146308319Y-42328703D01*
X146254648Y-42175319D01*
X146221267Y-42079921D01*
X146104284Y-41837003D01*
X145960838Y-41608711D01*
X145792734Y-41397915D01*
X145602085Y-41207266D01*
X145391289Y-41039162D01*
X145162997Y-40895716D01*
X145162994Y-40895714D01*
X144920082Y-40778734D01*
X144665602Y-40689687D01*
X144665594Y-40689684D01*
X144468446Y-40644687D01*
X144402732Y-40629688D01*
X144402728Y-40629687D01*
X144402719Y-40629686D01*
X144134813Y-40599500D01*
X144134809Y-40599500D01*
X143865191Y-40599500D01*
X143865186Y-40599500D01*
X143597280Y-40629686D01*
X143597268Y-40629688D01*
X143334405Y-40689684D01*
X143334397Y-40689687D01*
X143079917Y-40778734D01*
X142837005Y-40895714D01*
X142608712Y-41039161D01*
X142397915Y-41207265D01*
X142207265Y-41397915D01*
X142039161Y-41608712D01*
X141895714Y-41837005D01*
X141778734Y-42079917D01*
X141689687Y-42334397D01*
X141689684Y-42334405D01*
X141629688Y-42597268D01*
X141629686Y-42597280D01*
X141599500Y-42865186D01*
X141599500Y-43134813D01*
X141629686Y-43402719D01*
X141629688Y-43402731D01*
X141689684Y-43665594D01*
X141689687Y-43665602D01*
X141778734Y-43920082D01*
X141812492Y-43990180D01*
X141850359Y-44068813D01*
X141864478Y-44098130D01*
X141875830Y-44167071D01*
X141848108Y-44231206D01*
X141840439Y-44239613D01*
X137355726Y-48724326D01*
X137298312Y-48810255D01*
X137284533Y-48830876D01*
X137235499Y-48949255D01*
X137235497Y-48949261D01*
X137210500Y-49074928D01*
X137210500Y-52219694D01*
X137190815Y-52286733D01*
X137174181Y-52307375D01*
X136802997Y-52678559D01*
X136741674Y-52712044D01*
X136671982Y-52707060D01*
X136616049Y-52665188D01*
X136597386Y-52629200D01*
X136588754Y-52602632D01*
X136588752Y-52602629D01*
X136588752Y-52602627D01*
X136502680Y-52433703D01*
X136479708Y-52402085D01*
X136391241Y-52280321D01*
X136257179Y-52146259D01*
X136103796Y-52034819D01*
X135934868Y-51948746D01*
X135824639Y-51912930D01*
X135766965Y-51873493D01*
X135739767Y-51809135D01*
X135751682Y-51740288D01*
X135798926Y-51688813D01*
X135824638Y-51677070D01*
X135934868Y-51641254D01*
X136103796Y-51555181D01*
X136257179Y-51443741D01*
X136391241Y-51309679D01*
X136502681Y-51156296D01*
X136588754Y-50987368D01*
X136647342Y-50807055D01*
X136663818Y-50703022D01*
X136677000Y-50619800D01*
X136677000Y-50430199D01*
X136660523Y-50326171D01*
X136647342Y-50242945D01*
X136588754Y-50062632D01*
X136588752Y-50062629D01*
X136588752Y-50062627D01*
X136502680Y-49893703D01*
X136431201Y-49795321D01*
X136391241Y-49740321D01*
X136257179Y-49606259D01*
X136103796Y-49494819D01*
X135934868Y-49408746D01*
X135824639Y-49372930D01*
X135766965Y-49333493D01*
X135739767Y-49269135D01*
X135751682Y-49200288D01*
X135798926Y-49148813D01*
X135824638Y-49137070D01*
X135934868Y-49101254D01*
X136103796Y-49015181D01*
X136257179Y-48903741D01*
X136391241Y-48769679D01*
X136502681Y-48616296D01*
X136588754Y-48447368D01*
X136647342Y-48267055D01*
X136663818Y-48163022D01*
X136677000Y-48079800D01*
X136677000Y-47890199D01*
X136658675Y-47774502D01*
X136647342Y-47702945D01*
X136588754Y-47522632D01*
X136588752Y-47522629D01*
X136588752Y-47522627D01*
X136502680Y-47353703D01*
X136431201Y-47255321D01*
X136391241Y-47200321D01*
X136257179Y-47066259D01*
X136103796Y-46954819D01*
X135934868Y-46868746D01*
X135824639Y-46832930D01*
X135766965Y-46793493D01*
X135739767Y-46729135D01*
X135751682Y-46660288D01*
X135798926Y-46608813D01*
X135824638Y-46597070D01*
X135934868Y-46561254D01*
X136103796Y-46475181D01*
X136257179Y-46363741D01*
X136391241Y-46229679D01*
X136502681Y-46076296D01*
X136588754Y-45907368D01*
X136647342Y-45727055D01*
X136663818Y-45623022D01*
X136677000Y-45539800D01*
X136677000Y-45350199D01*
X136656579Y-45221265D01*
X136647342Y-45162945D01*
X136588754Y-44982632D01*
X136588752Y-44982629D01*
X136588752Y-44982627D01*
X136502680Y-44813703D01*
X136431201Y-44715321D01*
X136391241Y-44660321D01*
X136257179Y-44526259D01*
X136103796Y-44414819D01*
X135934868Y-44328746D01*
X135824639Y-44292930D01*
X135766965Y-44253493D01*
X135739767Y-44189135D01*
X135751682Y-44120288D01*
X135798926Y-44068813D01*
X135824638Y-44057070D01*
X135934868Y-44021254D01*
X136103796Y-43935181D01*
X136257179Y-43823741D01*
X136391241Y-43689679D01*
X136502681Y-43536296D01*
X136588754Y-43367368D01*
X136647342Y-43187055D01*
X136663818Y-43083022D01*
X136677000Y-42999800D01*
X136677000Y-42810199D01*
X136660523Y-42706171D01*
X136647342Y-42622945D01*
X136588754Y-42442632D01*
X136588752Y-42442629D01*
X136588752Y-42442627D01*
X136533610Y-42334405D01*
X136502681Y-42273704D01*
X136391241Y-42120321D01*
X136257179Y-41986259D01*
X136103796Y-41874819D01*
X135934868Y-41788746D01*
X135824639Y-41752930D01*
X135766965Y-41713493D01*
X135739767Y-41649135D01*
X135751682Y-41580288D01*
X135798926Y-41528813D01*
X135824638Y-41517070D01*
X135934868Y-41481254D01*
X136103796Y-41395181D01*
X136257179Y-41283741D01*
X136391241Y-41149679D01*
X136502681Y-40996296D01*
X136588754Y-40827368D01*
X136647342Y-40647055D01*
X136663818Y-40543022D01*
X136677000Y-40459800D01*
X136677000Y-40270199D01*
X136660523Y-40166171D01*
X136647342Y-40082945D01*
X136588754Y-39902632D01*
X136588752Y-39902629D01*
X136588752Y-39902627D01*
X136502680Y-39733703D01*
X136431201Y-39635321D01*
X136391241Y-39580321D01*
X136257179Y-39446259D01*
X136103796Y-39334819D01*
X135934868Y-39248746D01*
X135824639Y-39212930D01*
X135766965Y-39173493D01*
X135739767Y-39109135D01*
X135751682Y-39040288D01*
X135798926Y-38988813D01*
X135824638Y-38977070D01*
X135934868Y-38941254D01*
X136103796Y-38855181D01*
X136257179Y-38743741D01*
X136391241Y-38609679D01*
X136502681Y-38456296D01*
X136588754Y-38287368D01*
X136647342Y-38107055D01*
X136663818Y-38003022D01*
X136677000Y-37919800D01*
X136677000Y-37730199D01*
X136660523Y-37626171D01*
X136647342Y-37542945D01*
X136588754Y-37362632D01*
X136588752Y-37362629D01*
X136588752Y-37362627D01*
X136502680Y-37193703D01*
X136391241Y-37040321D01*
X136257179Y-36906259D01*
X136103796Y-36794819D01*
X135934868Y-36708746D01*
X135824639Y-36672930D01*
X135766965Y-36633493D01*
X135739767Y-36569135D01*
X135751682Y-36500288D01*
X135798926Y-36448813D01*
X135824638Y-36437070D01*
X135934868Y-36401254D01*
X136103796Y-36315181D01*
X136257179Y-36203741D01*
X136391241Y-36069679D01*
X136502681Y-35916296D01*
X136588754Y-35747368D01*
X136647342Y-35567055D01*
X136663818Y-35463022D01*
X136677000Y-35379800D01*
X136677000Y-35190199D01*
X136660523Y-35086171D01*
X136647342Y-35002945D01*
X136588754Y-34822632D01*
X136588752Y-34822629D01*
X136588752Y-34822627D01*
X136529972Y-34707266D01*
X136502681Y-34653704D01*
X136391241Y-34500321D01*
X136257179Y-34366259D01*
X136103796Y-34254819D01*
X135934868Y-34168746D01*
X135824639Y-34132930D01*
X135766965Y-34093493D01*
X135739767Y-34029135D01*
X135751682Y-33960288D01*
X135798926Y-33908813D01*
X135824638Y-33897070D01*
X135934868Y-33861254D01*
X136103796Y-33775181D01*
X136257179Y-33663741D01*
X136391241Y-33529679D01*
X136502681Y-33376296D01*
X136588754Y-33207368D01*
X136647342Y-33027055D01*
X136663818Y-32923022D01*
X136677000Y-32839800D01*
X136677000Y-32650199D01*
X136660523Y-32546171D01*
X136647342Y-32462945D01*
X136588754Y-32282632D01*
X136588752Y-32282629D01*
X136588752Y-32282627D01*
X136562291Y-32230695D01*
X136536864Y-32180793D01*
X136523969Y-32112126D01*
X136550245Y-32047386D01*
X136607351Y-32007128D01*
X136647350Y-32000500D01*
X138564548Y-32000500D01*
X138631587Y-32020185D01*
X138652229Y-32036819D01*
X141851931Y-35236522D01*
X141885416Y-35297845D01*
X141880432Y-35367537D01*
X141875970Y-35378004D01*
X141778737Y-35579909D01*
X141778734Y-35579917D01*
X141689687Y-35834397D01*
X141689684Y-35834405D01*
X141629688Y-36097268D01*
X141629686Y-36097280D01*
X141599500Y-36365186D01*
X141599500Y-36634813D01*
X141629686Y-36902719D01*
X141629688Y-36902731D01*
X141689684Y-37165594D01*
X141689687Y-37165602D01*
X141778734Y-37420082D01*
X141895714Y-37662994D01*
X141895716Y-37662997D01*
X142039162Y-37891289D01*
X142207266Y-38102085D01*
X142397915Y-38292734D01*
X142608711Y-38460838D01*
X142837003Y-38604284D01*
X143079921Y-38721267D01*
X143271049Y-38788145D01*
X143334397Y-38810312D01*
X143334405Y-38810315D01*
X143334408Y-38810315D01*
X143334409Y-38810316D01*
X143597268Y-38870312D01*
X143865187Y-38900499D01*
X143865188Y-38900500D01*
X143865191Y-38900500D01*
X144134812Y-38900500D01*
X144134812Y-38900499D01*
X144402732Y-38870312D01*
X144665591Y-38810316D01*
X144920079Y-38721267D01*
X145162997Y-38604284D01*
X145391289Y-38460838D01*
X145602085Y-38292734D01*
X145792734Y-38102085D01*
X145960838Y-37891289D01*
X146104284Y-37662997D01*
X146221267Y-37420079D01*
X146310316Y-37165591D01*
X146370312Y-36902732D01*
X146400500Y-36634809D01*
X146400500Y-36365191D01*
X146370312Y-36097268D01*
X146310316Y-35834409D01*
X146221267Y-35579921D01*
X146104284Y-35337003D01*
X145960838Y-35108711D01*
X145792734Y-34897915D01*
X145602085Y-34707266D01*
X145391289Y-34539162D01*
X145162997Y-34395716D01*
X145162994Y-34395714D01*
X144920082Y-34278734D01*
X144665602Y-34189687D01*
X144665594Y-34189684D01*
X144468446Y-34144687D01*
X144402732Y-34129688D01*
X144402728Y-34129687D01*
X144402719Y-34129686D01*
X144134813Y-34099500D01*
X144134809Y-34099500D01*
X143865191Y-34099500D01*
X143865186Y-34099500D01*
X143597280Y-34129686D01*
X143597268Y-34129688D01*
X143334405Y-34189684D01*
X143334397Y-34189687D01*
X143079917Y-34278734D01*
X143079909Y-34278737D01*
X142878004Y-34375970D01*
X142809063Y-34387322D01*
X142744929Y-34359600D01*
X142736522Y-34351931D01*
X139367928Y-30983338D01*
X139367925Y-30983334D01*
X139367925Y-30983335D01*
X139360858Y-30976268D01*
X139360858Y-30976267D01*
X139273733Y-30889142D01*
X139273732Y-30889141D01*
X139273731Y-30889140D01*
X139222509Y-30854915D01*
X139171286Y-30820688D01*
X139171283Y-30820686D01*
X139171280Y-30820685D01*
X139090792Y-30787347D01*
X139057453Y-30773537D01*
X139047427Y-30771543D01*
X138997029Y-30761518D01*
X138936610Y-30749500D01*
X138936607Y-30749500D01*
X138936606Y-30749500D01*
X76686607Y-30749500D01*
X76563393Y-30749500D01*
X76563389Y-30749500D01*
X76502971Y-30761518D01*
X76465259Y-30769019D01*
X76442550Y-30773536D01*
X76442548Y-30773537D01*
X76409207Y-30787347D01*
X76328719Y-30820684D01*
X76328705Y-30820692D01*
X76226272Y-30889138D01*
X76226264Y-30889144D01*
X75689144Y-31426264D01*
X75689138Y-31426272D01*
X75654914Y-31477489D01*
X75654915Y-31477490D01*
X75620688Y-31528713D01*
X75620685Y-31528718D01*
X75608786Y-31557449D01*
X75608785Y-31557452D01*
X75573538Y-31642545D01*
X75573535Y-31642555D01*
X75549500Y-31763389D01*
X75050500Y-31763389D01*
X75050500Y-29584500D01*
X75070185Y-29517461D01*
X75122989Y-29471706D01*
X75174500Y-29460500D01*
X150125500Y-29460500D01*
X150192539Y-29480185D01*
G37*
%TD.AperFunction*%
%TD*%
M02*
